{
  "header": {
    "PPQ": 120,
    "bpm": 77.99997660000702,
    "timeSignature": [
      3,
      4
    ],
    "name": ""
  },
  "startTime": 0,
  "duration": 101.15387649999978,
  "tracks": [
    {
      "startTime": 0,
      "duration": 0,
      "length": 0,
      "notes": [],
      "controlChanges": {},
      "id": 0
    },
    {
      "startTime": 0,
      "duration": 101.15387649999955,
      "length": 311,
      "notes": [
        {
          "name": "D4",
          "midi": 62,
          "time": 0,
          "velocity": 0.5039370078740157,
          "duration": 0.3846155
        },
        {
          "name": "E4",
          "midi": 64,
          "time": 0.3846155,
          "velocity": 0.5039370078740157,
          "duration": 0.3846155
        },
        {
          "name": "F4",
          "midi": 65,
          "time": 0.769231,
          "velocity": 0.5039370078740157,
          "duration": 0.3846155
        },
        {
          "name": "G4",
          "midi": 67,
          "time": 1.1538465,
          "velocity": 0.5039370078740157,
          "duration": 0.3846155
        },
        {
          "name": "E4",
          "midi": 64,
          "time": 1.538462,
          "velocity": 0.5039370078740157,
          "duration": 0.3846155
        },
        {
          "name": "F4",
          "midi": 65,
          "time": 1.9230775,
          "velocity": 0.5039370078740157,
          "duration": 0.1923077500000001
        },
        {
          "name": "D4",
          "midi": 62,
          "time": 2.11538525,
          "velocity": 0.5039370078740157,
          "duration": 0.1923077499999999
        },
        {
          "name": "C#4",
          "midi": 61,
          "time": 2.307693,
          "velocity": 0.5039370078740157,
          "duration": 0.1923077499999999
        },
        {
          "name": "D4",
          "midi": 62,
          "time": 2.50000075,
          "velocity": 0.5039370078740157,
          "duration": 0.1923077499999999
        },
        {
          "name": "A#4",
          "midi": 70,
          "time": 2.6923084999999998,
          "velocity": 0.5039370078740157,
          "duration": 0.3846155000000002
        },
        {
          "name": "G4",
          "midi": 67,
          "time": 3.4615394999999998,
          "velocity": 0.5039370078740157,
          "duration": 0.7692310000000004
        },
        {
          "name": "A4",
          "midi": 69,
          "time": 4.2307705,
          "velocity": 0.5039370078740157,
          "duration": 0.9615387499999999
        },
        {
          "name": "G4",
          "midi": 67,
          "time": 5.19230925,
          "velocity": 0.5039370078740157,
          "duration": 0.19230775000000033
        },
        {
          "name": "F4",
          "midi": 65,
          "time": 5.384617,
          "velocity": 0.5039370078740157,
          "duration": 0.19230775000000033
        },
        {
          "name": "E4",
          "midi": 64,
          "time": 5.576924750000001,
          "velocity": 0.5039370078740157,
          "duration": 0.19230775000000033
        },
        {
          "name": "G4",
          "midi": 67,
          "time": 5.769232500000001,
          "velocity": 0.5039370078740157,
          "duration": 0.19230775000000033
        },
        {
          "name": "F4",
          "midi": 65,
          "time": 5.961540250000001,
          "velocity": 0.5039370078740157,
          "duration": 0.19230775000000033
        },
        {
          "name": "E4",
          "midi": 64,
          "time": 6.153848000000002,
          "velocity": 0.5039370078740157,
          "duration": 0.19230775000000033
        },
        {
          "name": "D4",
          "midi": 62,
          "time": 6.346155750000002,
          "velocity": 0.5039370078740157,
          "duration": 0.19230775000000033
        },
        {
          "name": "E4",
          "midi": 64,
          "time": 6.538463500000002,
          "velocity": 0.5039370078740157,
          "duration": 0.3846154999999998
        },
        {
          "name": "C5",
          "midi": 72,
          "time": 6.923079000000002,
          "velocity": 0.5039370078740157,
          "duration": 0.5769232500000001
        },
        {
          "name": "B4",
          "midi": 71,
          "time": 7.500002250000002,
          "velocity": 0.5039370078740157,
          "duration": 0.19230775000000033
        },
        {
          "name": "A4",
          "midi": 69,
          "time": 7.692310000000003,
          "velocity": 0.5039370078740157,
          "duration": 0.19230775000000033
        },
        {
          "name": "B4",
          "midi": 71,
          "time": 7.884617750000003,
          "velocity": 0.5039370078740157,
          "duration": 0.19230775000000033
        },
        {
          "name": "B4",
          "midi": 71,
          "time": 8.076925500000003,
          "velocity": 0.5039370078740157,
          "duration": 0.19230774999999944
        },
        {
          "name": "A4",
          "midi": 69,
          "time": 8.269233250000003,
          "velocity": 0.5039370078740157,
          "duration": 0.19230774999999944
        },
        {
          "name": "G#4",
          "midi": 68,
          "time": 8.461541000000002,
          "velocity": 0.5039370078740157,
          "duration": 0.19230774999999944
        },
        {
          "name": "A4",
          "midi": 69,
          "time": 8.653848750000002,
          "velocity": 0.5039370078740157,
          "duration": 0.19230774999999944
        },
        {
          "name": "A4",
          "midi": 69,
          "time": 8.846156500000001,
          "velocity": 0.5039370078740157,
          "duration": 0.19230774999999944
        },
        {
          "name": "G4",
          "midi": 67,
          "time": 9.03846425,
          "velocity": 0.5039370078740157,
          "duration": 0.19230774999999944
        },
        {
          "name": "F#4",
          "midi": 66,
          "time": 9.230772,
          "velocity": 0.5039370078740157,
          "duration": 0.19230774999999944
        },
        {
          "name": "G4",
          "midi": 67,
          "time": 9.42307975,
          "velocity": 0.5039370078740157,
          "duration": 0.19230774999999944
        },
        {
          "name": "E5",
          "midi": 76,
          "time": 9.615387499999999,
          "velocity": 0.5039370078740157,
          "duration": 0.7692309999999996
        },
        {
          "name": "G4",
          "midi": 67,
          "time": 10.384618499999998,
          "velocity": 0.5039370078740157,
          "duration": 0.7692309999999996
        },
        {
          "name": "F4",
          "midi": 65,
          "time": 11.153849499999998,
          "velocity": 0.5039370078740157,
          "duration": 0.38461550000000067
        },
        {
          "name": "D5",
          "midi": 74,
          "time": 11.538464999999999,
          "velocity": 0.5039370078740157,
          "duration": 0.5769232500000001
        },
        {
          "name": "C5",
          "midi": 72,
          "time": 12.115388249999999,
          "velocity": 0.5039370078740157,
          "duration": 0.19230774999999944
        },
        {
          "name": "A#4",
          "midi": 70,
          "time": 12.307695999999998,
          "velocity": 0.5039370078740157,
          "duration": 0.19230774999999944
        },
        {
          "name": "A4",
          "midi": 69,
          "time": 12.500003749999998,
          "velocity": 0.5039370078740157,
          "duration": 0.19230774999999944
        },
        {
          "name": "C5",
          "midi": 72,
          "time": 12.692311499999997,
          "velocity": 0.5039370078740157,
          "duration": 0.19230774999999944
        },
        {
          "name": "A#4",
          "midi": 70,
          "time": 12.884619249999997,
          "velocity": 0.5039370078740157,
          "duration": 0.19230774999999944
        },
        {
          "name": "A4",
          "midi": 69,
          "time": 13.076926999999996,
          "velocity": 0.5039370078740157,
          "duration": 0.19230774999999944
        },
        {
          "name": "G4",
          "midi": 67,
          "time": 13.269234749999995,
          "velocity": 0.5039370078740157,
          "duration": 0.19230774999999944
        },
        {
          "name": "A4",
          "midi": 69,
          "time": 13.461542499999995,
          "velocity": 0.5039370078740157,
          "duration": 0.7692309999999996
        },
        {
          "name": "G4",
          "midi": 67,
          "time": 14.230773499999994,
          "velocity": 0.5039370078740157,
          "duration": 1.9230775000000015
        },
        {
          "name": "E4",
          "midi": 64,
          "time": 16.153850999999996,
          "velocity": 0.5039370078740157,
          "duration": 0.3846154999999989
        },
        {
          "name": "F4",
          "midi": 65,
          "time": 16.538466499999995,
          "velocity": 0.5039370078740157,
          "duration": 0.3846154999999989
        },
        {
          "name": "G4",
          "midi": 67,
          "time": 16.923081999999994,
          "velocity": 0.5039370078740157,
          "duration": 0.3846154999999989
        },
        {
          "name": "A4",
          "midi": 69,
          "time": 17.307697499999993,
          "velocity": 0.5039370078740157,
          "duration": 0.3846154999999989
        },
        {
          "name": "F4",
          "midi": 65,
          "time": 17.69231299999999,
          "velocity": 0.5039370078740157,
          "duration": 0.3846154999999989
        },
        {
          "name": "A#4",
          "midi": 70,
          "time": 18.07692849999999,
          "velocity": 0.5039370078740157,
          "duration": 0.19230775000000122
        },
        {
          "name": "G4",
          "midi": 67,
          "time": 18.26923624999999,
          "velocity": 0.5039370078740157,
          "duration": 0.19230775000000122
        },
        {
          "name": "F#4",
          "midi": 66,
          "time": 18.461543999999993,
          "velocity": 0.5039370078740157,
          "duration": 0.19230775000000122
        },
        {
          "name": "G4",
          "midi": 67,
          "time": 18.653851749999994,
          "velocity": 0.5039370078740157,
          "duration": 0.19230775000000122
        },
        {
          "name": "D#5",
          "midi": 75,
          "time": 18.846159499999995,
          "velocity": 0.5039370078740157,
          "duration": 0.7692310000000013
        },
        {
          "name": "C#5",
          "midi": 73,
          "time": 19.615390499999997,
          "velocity": 0.5039370078740157,
          "duration": 0.7692310000000013
        },
        {
          "name": "D5",
          "midi": 74,
          "time": 20.384621499999998,
          "velocity": 0.5039370078740157,
          "duration": 0.7692310000000013
        },
        {
          "name": "D5",
          "midi": 74,
          "time": 21.1538525,
          "velocity": 0.5039370078740157,
          "duration": 0.3846154999999989
        },
        {
          "name": "B4",
          "midi": 71,
          "time": 21.923083499999997,
          "velocity": 0.5039370078740157,
          "duration": 0.7692310000000013
        },
        {
          "name": "C5",
          "midi": 72,
          "time": 22.6923145,
          "velocity": 0.5039370078740157,
          "duration": 0.7692310000000013
        },
        {
          "name": "C5",
          "midi": 72,
          "time": 23.4615455,
          "velocity": 0.5039370078740157,
          "duration": 0.7692310000000013
        },
        {
          "name": "A4",
          "midi": 69,
          "time": 24.2307765,
          "velocity": 0.5039370078740157,
          "duration": 0.7692310000000013
        },
        {
          "name": "A#4",
          "midi": 70,
          "time": 25.000007500000002,
          "velocity": 0.5039370078740157,
          "duration": 2.6923084999999993
        },
        {
          "name": "A4",
          "midi": 69,
          "time": 27.692316,
          "velocity": 0.5039370078740157,
          "duration": 0.3846154999999989
        },
        {
          "name": "B4",
          "midi": 71,
          "time": 28.0769315,
          "velocity": 0.5039370078740157,
          "duration": 0.3846154999999989
        },
        {
          "name": "C#5",
          "midi": 73,
          "time": 28.461547,
          "velocity": 0.5039370078740157,
          "duration": 0.3846154999999989
        },
        {
          "name": "D5",
          "midi": 74,
          "time": 28.8461625,
          "velocity": 0.5039370078740157,
          "duration": 0.3846154999999989
        },
        {
          "name": "B4",
          "midi": 71,
          "time": 29.230777999999997,
          "velocity": 0.5039370078740157,
          "duration": 0.3846154999999989
        },
        {
          "name": "C#5",
          "midi": 73,
          "time": 29.615393499999996,
          "velocity": 0.5039370078740157,
          "duration": 0.19230775000000122
        },
        {
          "name": "A4",
          "midi": 69,
          "time": 29.807701249999997,
          "velocity": 0.5039370078740157,
          "duration": 0.19230775000000122
        },
        {
          "name": "G#4",
          "midi": 68,
          "time": 30.000009,
          "velocity": 0.5039370078740157,
          "duration": 0.19230775000000122
        },
        {
          "name": "A4",
          "midi": 69,
          "time": 30.19231675,
          "velocity": 0.5039370078740157,
          "duration": 0.19230775000000122
        },
        {
          "name": "F5",
          "midi": 77,
          "time": 30.3846245,
          "velocity": 0.5039370078740157,
          "duration": 0.3846154999999989
        },
        {
          "name": "D5",
          "midi": 74,
          "time": 31.1538555,
          "velocity": 0.5039370078740157,
          "duration": 0.7692310000000013
        },
        {
          "name": "E5",
          "midi": 76,
          "time": 31.9230865,
          "velocity": 0.5039370078740157,
          "duration": 0.3846154999999989
        },
        {
          "name": "A5",
          "midi": 81,
          "time": 32.307702,
          "velocity": 0.5039370078740157,
          "duration": 0.5769232500000001
        },
        {
          "name": "G5",
          "midi": 79,
          "time": 32.88462525,
          "velocity": 0.5039370078740157,
          "duration": 0.19230774999999767
        },
        {
          "name": "F#5",
          "midi": 78,
          "time": 33.076933,
          "velocity": 0.5039370078740157,
          "duration": 0.19230774999999767
        },
        {
          "name": "E5",
          "midi": 76,
          "time": 33.269240749999994,
          "velocity": 0.5039370078740157,
          "duration": 0.19230774999999767
        },
        {
          "name": "G5",
          "midi": 79,
          "time": 33.46154849999999,
          "velocity": 0.5039370078740157,
          "duration": 0.19230774999999767
        },
        {
          "name": "F#5",
          "midi": 78,
          "time": 33.65385624999999,
          "velocity": 0.5039370078740157,
          "duration": 0.19230774999999767
        },
        {
          "name": "E5",
          "midi": 76,
          "time": 33.84616399999999,
          "velocity": 0.5039370078740157,
          "duration": 0.19230774999999767
        },
        {
          "name": "D5",
          "midi": 74,
          "time": 34.038471749999985,
          "velocity": 0.5039370078740157,
          "duration": 0.19230774999999767
        },
        {
          "name": "D#5",
          "midi": 75,
          "time": 34.23077949999998,
          "velocity": 0.5039370078740157,
          "duration": 0.19230774999999767
        },
        {
          "name": "C6",
          "midi": 84,
          "time": 34.42308724999998,
          "velocity": 0.5039370078740157,
          "duration": 0.19230774999999767
        },
        {
          "name": "A#5",
          "midi": 82,
          "time": 34.61539499999998,
          "velocity": 0.5039370078740157,
          "duration": 0.38461550000000244
        },
        {
          "name": "A5",
          "midi": 81,
          "time": 35.19231824999998,
          "velocity": 0.5039370078740157,
          "duration": 0.19230774999999767
        },
        {
          "name": "G#5",
          "midi": 80,
          "time": 35.384625999999976,
          "velocity": 0.5039370078740157,
          "duration": 0.19230774999999767
        },
        {
          "name": "F#5",
          "midi": 78,
          "time": 35.576933749999974,
          "velocity": 0.5039370078740157,
          "duration": 0.19230774999999767
        },
        {
          "name": "A5",
          "midi": 81,
          "time": 35.76924149999997,
          "velocity": 0.5039370078740157,
          "duration": 0.19230774999999767
        },
        {
          "name": "G#5",
          "midi": 80,
          "time": 35.96154924999997,
          "velocity": 0.5039370078740157,
          "duration": 0.19230774999999767
        },
        {
          "name": "F#5",
          "midi": 78,
          "time": 36.15385699999997,
          "velocity": 0.5039370078740157,
          "duration": 0.19230774999999767
        },
        {
          "name": "E5",
          "midi": 76,
          "time": 36.346164749999964,
          "velocity": 0.5039370078740157,
          "duration": 0.19230774999999767
        },
        {
          "name": "D5",
          "midi": 74,
          "time": 36.53847249999996,
          "velocity": 0.5039370078740157,
          "duration": 0.19230774999999767
        },
        {
          "name": "C5",
          "midi": 72,
          "time": 36.73078024999996,
          "velocity": 0.5039370078740157,
          "duration": 0.19230774999999767
        },
        {
          "name": "B4",
          "midi": 71,
          "time": 36.92308799999996,
          "velocity": 0.5039370078740157,
          "duration": 0.19230774999999767
        },
        {
          "name": "C5",
          "midi": 72,
          "time": 37.115395749999955,
          "velocity": 0.5039370078740157,
          "duration": 0.19230774999999767
        },
        {
          "name": "C5",
          "midi": 72,
          "time": 37.30770349999995,
          "velocity": 0.5039370078740157,
          "duration": 0.19230774999999767
        },
        {
          "name": "B4",
          "midi": 71,
          "time": 37.50001124999995,
          "velocity": 0.5039370078740157,
          "duration": 0.19230774999999767
        },
        {
          "name": "A4",
          "midi": 69,
          "time": 37.69231899999995,
          "velocity": 0.5039370078740157,
          "duration": 0.19230774999999767
        },
        {
          "name": "B4",
          "midi": 71,
          "time": 37.884626749999946,
          "velocity": 0.5039370078740157,
          "duration": 0.19230774999999767
        },
        {
          "name": "B4",
          "midi": 71,
          "time": 38.07693449999994,
          "velocity": 0.5039370078740157,
          "duration": 0.19230774999999767
        },
        {
          "name": "A4",
          "midi": 69,
          "time": 38.26924224999994,
          "velocity": 0.5039370078740157,
          "duration": 0.19230774999999767
        },
        {
          "name": "G#4",
          "midi": 68,
          "time": 38.46154999999994,
          "velocity": 0.5039370078740157,
          "duration": 0.19230774999999767
        },
        {
          "name": "A4",
          "midi": 69,
          "time": 38.653857749999936,
          "velocity": 0.5039370078740157,
          "duration": 0.19230774999999767
        },
        {
          "name": "G4",
          "midi": 67,
          "time": 38.846165499999934,
          "velocity": 0.5039370078740157,
          "duration": 0.9615387500000026
        },
        {
          "name": "F4",
          "midi": 65,
          "time": 39.80770424999994,
          "velocity": 0.5039370078740157,
          "duration": 0.19230774999999767
        },
        {
          "name": "E4",
          "midi": 64,
          "time": 40.000011999999934,
          "velocity": 0.5039370078740157,
          "duration": 0.19230774999999767
        },
        {
          "name": "F4",
          "midi": 65,
          "time": 40.19231974999993,
          "velocity": 0.5039370078740157,
          "duration": 0.19230774999999767
        },
        {
          "name": "F4",
          "midi": 65,
          "time": 40.38462749999993,
          "velocity": 0.5039370078740157,
          "duration": 0.19230774999999767
        },
        {
          "name": "E4",
          "midi": 64,
          "time": 40.57693524999993,
          "velocity": 0.5039370078740157,
          "duration": 0.19230774999999767
        },
        {
          "name": "D4",
          "midi": 62,
          "time": 40.769242999999925,
          "velocity": 0.5039370078740157,
          "duration": 0.19230774999999767
        },
        {
          "name": "A4",
          "midi": 69,
          "time": 40.96155074999992,
          "velocity": 0.5039370078740157,
          "duration": 0.19230774999999767
        },
        {
          "name": "A4",
          "midi": 69,
          "time": 41.15385849999992,
          "velocity": 0.5039370078740157,
          "duration": 3.269231750000003
        },
        {
          "name": "D#5",
          "midi": 75,
          "time": 44.42309024999992,
          "velocity": 0.5039370078740157,
          "duration": 0.19230774999999767
        },
        {
          "name": "E5",
          "midi": 76,
          "time": 44.61539799999992,
          "velocity": 0.5039370078740157,
          "duration": 0.19230774999999767
        },
        {
          "name": "A4",
          "midi": 69,
          "time": 44.80770574999992,
          "velocity": 0.5039370078740157,
          "duration": 0.19230774999999767
        },
        {
          "name": "C5",
          "midi": 72,
          "time": 45.000013499999916,
          "velocity": 0.5039370078740157,
          "duration": 0.19230774999999767
        },
        {
          "name": "B4",
          "midi": 71,
          "time": 45.192321249999914,
          "velocity": 0.5039370078740157,
          "duration": 0.19230774999999767
        },
        {
          "name": "A4",
          "midi": 69,
          "time": 45.38462899999991,
          "velocity": 0.5039370078740157,
          "duration": 0.19230774999999767
        },
        {
          "name": "G#4",
          "midi": 68,
          "time": 45.57693674999991,
          "velocity": 0.5039370078740157,
          "duration": 0.19230774999999767
        },
        {
          "name": "A4",
          "midi": 69,
          "time": 45.76924449999991,
          "velocity": 0.5039370078740157,
          "duration": 0.9615387500000026
        },
        {
          "name": "G4",
          "midi": 67,
          "time": 46.73078324999991,
          "velocity": 0.5039370078740157,
          "duration": 0.19230774999999767
        },
        {
          "name": "F4",
          "midi": 65,
          "time": 46.92309099999991,
          "velocity": 0.5039370078740157,
          "duration": 0.19230774999999767
        },
        {
          "name": "E4",
          "midi": 64,
          "time": 47.115398749999905,
          "velocity": 0.5039370078740157,
          "duration": 0.19230774999999767
        },
        {
          "name": "G4",
          "midi": 67,
          "time": 47.3077064999999,
          "velocity": 0.5039370078740157,
          "duration": 0.19230774999999767
        },
        {
          "name": "F4",
          "midi": 65,
          "time": 47.5000142499999,
          "velocity": 0.5039370078740157,
          "duration": 0.19230774999999767
        },
        {
          "name": "E4",
          "midi": 64,
          "time": 47.6923219999999,
          "velocity": 0.5039370078740157,
          "duration": 0.19230774999999767
        },
        {
          "name": "D4",
          "midi": 62,
          "time": 47.884629749999895,
          "velocity": 0.5039370078740157,
          "duration": 0.19230774999999767
        },
        {
          "name": "E4",
          "midi": 64,
          "time": 48.07693749999989,
          "velocity": 0.5039370078740157,
          "duration": 0.38461550000000244
        },
        {
          "name": "E5",
          "midi": 76,
          "time": 48.461552999999896,
          "velocity": 0.5039370078740157,
          "duration": 0.38461550000000244
        },
        {
          "name": "D5",
          "midi": 74,
          "time": 48.8461684999999,
          "velocity": 0.5039370078740157,
          "duration": 0.38461550000000244
        },
        {
          "name": "C#5",
          "midi": 73,
          "time": 49.2307839999999,
          "velocity": 0.5039370078740157,
          "duration": 0.38461550000000244
        },
        {
          "name": "B4",
          "midi": 71,
          "time": 49.6153994999999,
          "velocity": 0.5039370078740157,
          "duration": 0.38461550000000244
        },
        {
          "name": "D5",
          "midi": 74,
          "time": 50.000014999999905,
          "velocity": 0.5039370078740157,
          "duration": 0.38461550000000244
        },
        {
          "name": "C#5",
          "midi": 73,
          "time": 50.38463049999991,
          "velocity": 0.5039370078740157,
          "duration": 0.19230774999999767
        },
        {
          "name": "E5",
          "midi": 76,
          "time": 50.576938249999905,
          "velocity": 0.5039370078740157,
          "duration": 0.19230774999999767
        },
        {
          "name": "F5",
          "midi": 77,
          "time": 50.7692459999999,
          "velocity": 0.5039370078740157,
          "duration": 0.19230774999999767
        },
        {
          "name": "E5",
          "midi": 76,
          "time": 50.9615537499999,
          "velocity": 0.5039370078740157,
          "duration": 0.19230774999999767
        },
        {
          "name": "G4",
          "midi": 67,
          "time": 51.1538614999999,
          "velocity": 0.5039370078740157,
          "duration": 0.38461550000000244
        },
        {
          "name": "A#4",
          "midi": 70,
          "time": 51.9230924999999,
          "velocity": 0.5039370078740157,
          "duration": 0.9615387500000026
        },
        {
          "name": "A4",
          "midi": 69,
          "time": 52.884631249999906,
          "velocity": 0.5039370078740157,
          "duration": 0.19230774999999767
        },
        {
          "name": "G4",
          "midi": 67,
          "time": 53.0769389999999,
          "velocity": 0.5039370078740157,
          "duration": 0.19230774999999767
        },
        {
          "name": "A4",
          "midi": 69,
          "time": 53.2692467499999,
          "velocity": 0.5039370078740157,
          "duration": 0.19230774999999767
        },
        {
          "name": "A4",
          "midi": 69,
          "time": 53.4615544999999,
          "velocity": 0.5039370078740157,
          "duration": 0.19230774999999767
        },
        {
          "name": "G4",
          "midi": 67,
          "time": 53.6538622499999,
          "velocity": 0.5039370078740157,
          "duration": 0.19230774999999767
        },
        {
          "name": "F4",
          "midi": 65,
          "time": 53.846169999999894,
          "velocity": 0.5039370078740157,
          "duration": 0.19230774999999767
        },
        {
          "name": "G4",
          "midi": 67,
          "time": 54.03847774999989,
          "velocity": 0.5039370078740157,
          "duration": 0.19230774999999767
        },
        {
          "name": "G4",
          "midi": 67,
          "time": 54.23078549999989,
          "velocity": 0.5039370078740157,
          "duration": 0.19230774999999767
        },
        {
          "name": "F4",
          "midi": 65,
          "time": 54.42309324999989,
          "velocity": 0.5039370078740157,
          "duration": 0.19230774999999767
        },
        {
          "name": "E4",
          "midi": 64,
          "time": 54.615400999999885,
          "velocity": 0.5039370078740157,
          "duration": 0.19230774999999767
        },
        {
          "name": "F4",
          "midi": 65,
          "time": 54.80770874999988,
          "velocity": 0.5039370078740157,
          "duration": 0.19230774999999767
        },
        {
          "name": "F4",
          "midi": 65,
          "time": 55.00001649999988,
          "velocity": 0.5039370078740157,
          "duration": 0.9615387500000026
        },
        {
          "name": "E4",
          "midi": 64,
          "time": 55.96155524999988,
          "velocity": 0.5039370078740157,
          "duration": 0.19230774999999767
        },
        {
          "name": "F#4",
          "midi": 66,
          "time": 56.15386299999988,
          "velocity": 0.5039370078740157,
          "duration": 0.19230774999999767
        },
        {
          "name": "G4",
          "midi": 67,
          "time": 56.34617074999988,
          "velocity": 0.5039370078740157,
          "duration": 0.19230774999999767
        },
        {
          "name": "F#4",
          "midi": 66,
          "time": 56.538478499999876,
          "velocity": 0.5039370078740157,
          "duration": 0.19230774999999767
        },
        {
          "name": "G4",
          "midi": 67,
          "time": 56.73078624999987,
          "velocity": 0.5039370078740157,
          "duration": 0.19230774999999767
        },
        {
          "name": "A4",
          "midi": 69,
          "time": 56.92309399999987,
          "velocity": 0.5039370078740157,
          "duration": 0.19230774999999767
        },
        {
          "name": "G4",
          "midi": 67,
          "time": 57.11540174999987,
          "velocity": 0.5039370078740157,
          "duration": 0.19230774999999767
        },
        {
          "name": "G4",
          "midi": 67,
          "time": 57.307709499999866,
          "velocity": 0.5039370078740157,
          "duration": 0.19230774999999767
        },
        {
          "name": "A4",
          "midi": 69,
          "time": 57.500017249999864,
          "velocity": 0.5039370078740157,
          "duration": 0.19230774999999767
        },
        {
          "name": "A#4",
          "midi": 70,
          "time": 57.69232499999986,
          "velocity": 0.5039370078740157,
          "duration": 0.19230774999999767
        },
        {
          "name": "A4",
          "midi": 69,
          "time": 57.88463274999986,
          "velocity": 0.5039370078740157,
          "duration": 0.19230774999999767
        },
        {
          "name": "A4",
          "midi": 69,
          "time": 58.07694049999986,
          "velocity": 0.5039370078740157,
          "duration": 0.19230774999999767
        },
        {
          "name": "B4",
          "midi": 71,
          "time": 58.269248249999855,
          "velocity": 0.5039370078740157,
          "duration": 0.19230774999999767
        },
        {
          "name": "C5",
          "midi": 72,
          "time": 58.46155599999985,
          "velocity": 0.5039370078740157,
          "duration": 0.19230774999999767
        },
        {
          "name": "B4",
          "midi": 71,
          "time": 58.65386374999985,
          "velocity": 0.5039370078740157,
          "duration": 0.19230774999999767
        },
        {
          "name": "B4",
          "midi": 71,
          "time": 58.84617149999985,
          "velocity": 0.5039370078740157,
          "duration": 0.19230774999999767
        },
        {
          "name": "C#5",
          "midi": 73,
          "time": 59.038479249999845,
          "velocity": 0.5039370078740157,
          "duration": 0.19230774999999767
        },
        {
          "name": "D5",
          "midi": 74,
          "time": 59.23078699999984,
          "velocity": 0.5039370078740157,
          "duration": 0.19230774999999767
        },
        {
          "name": "C#5",
          "midi": 73,
          "time": 59.42309474999984,
          "velocity": 0.5039370078740157,
          "duration": 0.19230774999999767
        },
        {
          "name": "C#5",
          "midi": 73,
          "time": 59.61540249999984,
          "velocity": 0.5039370078740157,
          "duration": 0.38461550000000244
        },
        {
          "name": "A5",
          "midi": 81,
          "time": 60.00001799999984,
          "velocity": 0.5039370078740157,
          "duration": 0.38461550000000244
        },
        {
          "name": "G5",
          "midi": 79,
          "time": 60.38463349999984,
          "velocity": 0.5039370078740157,
          "duration": 0.38461550000000244
        },
        {
          "name": "F5",
          "midi": 77,
          "time": 60.769248999999846,
          "velocity": 0.5039370078740157,
          "duration": 0.38461550000000244
        },
        {
          "name": "E5",
          "midi": 76,
          "time": 61.15386449999985,
          "velocity": 0.5039370078740157,
          "duration": 0.38461550000000244
        },
        {
          "name": "G5",
          "midi": 79,
          "time": 61.53847999999985,
          "velocity": 0.5039370078740157,
          "duration": 0.38461550000000244
        },
        {
          "name": "F5",
          "midi": 77,
          "time": 61.92309549999985,
          "velocity": 0.5039370078740157,
          "duration": 0.19230774999999767
        },
        {
          "name": "A5",
          "midi": 81,
          "time": 62.11540324999985,
          "velocity": 0.5039370078740157,
          "duration": 0.19230774999999767
        },
        {
          "name": "A#5",
          "midi": 82,
          "time": 62.30771099999985,
          "velocity": 0.5039370078740157,
          "duration": 0.19230774999999767
        },
        {
          "name": "A5",
          "midi": 81,
          "time": 62.500018749999846,
          "velocity": 0.5039370078740157,
          "duration": 0.19230774999999767
        },
        {
          "name": "C#5",
          "midi": 73,
          "time": 62.692326499999844,
          "velocity": 0.5039370078740157,
          "duration": 0.7692309999999978
        },
        {
          "name": "E5",
          "midi": 76,
          "time": 63.46155749999984,
          "velocity": 0.5039370078740157,
          "duration": 1.1538465000000002
        },
        {
          "name": "A4",
          "midi": 69,
          "time": 64.61540399999984,
          "velocity": 0.5039370078740157,
          "duration": 0.38461549999999534
        },
        {
          "name": "D5",
          "midi": 74,
          "time": 65.00001949999984,
          "velocity": 0.5039370078740157,
          "duration": 0.7692310000000049
        },
        {
          "name": "C5",
          "midi": 72,
          "time": 65.76925049999984,
          "velocity": 0.5039370078740157,
          "duration": 1.1538465000000002
        },
        {
          "name": "D#5",
          "midi": 75,
          "time": 66.92309699999984,
          "velocity": 0.5039370078740157,
          "duration": 0.576923249999993
        },
        {
          "name": "D5",
          "midi": 74,
          "time": 67.50002024999984,
          "velocity": 0.5039370078740157,
          "duration": 0.19230774999999767
        },
        {
          "name": "C5",
          "midi": 72,
          "time": 67.69232799999983,
          "velocity": 0.5039370078740157,
          "duration": 0.19230774999999767
        },
        {
          "name": "D5",
          "midi": 74,
          "time": 67.88463574999983,
          "velocity": 0.5039370078740157,
          "duration": 0.19230774999999767
        },
        {
          "name": "D5",
          "midi": 74,
          "time": 68.07694349999983,
          "velocity": 0.5039370078740157,
          "duration": 0.19230774999999767
        },
        {
          "name": "C5",
          "midi": 72,
          "time": 68.26925124999983,
          "velocity": 0.5039370078740157,
          "duration": 0.19230774999999767
        },
        {
          "name": "A#4",
          "midi": 70,
          "time": 68.46155899999982,
          "velocity": 0.5039370078740157,
          "duration": 0.19230774999999767
        },
        {
          "name": "C5",
          "midi": 72,
          "time": 68.65386674999982,
          "velocity": 0.5039370078740157,
          "duration": 0.19230774999999767
        },
        {
          "name": "C5",
          "midi": 72,
          "time": 68.84617449999982,
          "velocity": 0.5039370078740157,
          "duration": 0.19230774999999767
        },
        {
          "name": "A#4",
          "midi": 70,
          "time": 69.03848224999982,
          "velocity": 0.5039370078740157,
          "duration": 0.19230774999999767
        },
        {
          "name": "A4",
          "midi": 69,
          "time": 69.23078999999981,
          "velocity": 0.5039370078740157,
          "duration": 0.19230774999999767
        },
        {
          "name": "A#4",
          "midi": 70,
          "time": 69.42309774999981,
          "velocity": 0.5039370078740157,
          "duration": 0.19230774999999767
        },
        {
          "name": "D5",
          "midi": 74,
          "time": 69.61540549999981,
          "velocity": 0.5039370078740157,
          "duration": 0.19230774999999767
        },
        {
          "name": "C5",
          "midi": 72,
          "time": 69.80771324999981,
          "velocity": 0.5039370078740157,
          "duration": 0.19230774999999767
        },
        {
          "name": "A#4",
          "midi": 70,
          "time": 70.0000209999998,
          "velocity": 0.5039370078740157,
          "duration": 0.19230774999999767
        },
        {
          "name": "C5",
          "midi": 72,
          "time": 70.1923287499998,
          "velocity": 0.5039370078740157,
          "duration": 0.19230774999999767
        },
        {
          "name": "C5",
          "midi": 72,
          "time": 70.3846364999998,
          "velocity": 0.5039370078740157,
          "duration": 0.19230774999999767
        },
        {
          "name": "A#4",
          "midi": 70,
          "time": 70.5769442499998,
          "velocity": 0.5039370078740157,
          "duration": 0.19230774999999767
        },
        {
          "name": "A4",
          "midi": 69,
          "time": 70.7692519999998,
          "velocity": 0.5039370078740157,
          "duration": 0.19230774999999767
        },
        {
          "name": "A#4",
          "midi": 70,
          "time": 70.9615597499998,
          "velocity": 0.5039370078740157,
          "duration": 0.19230774999999767
        },
        {
          "name": "A#4",
          "midi": 70,
          "time": 71.15386749999979,
          "velocity": 0.5039370078740157,
          "duration": 0.19230774999999767
        },
        {
          "name": "A4",
          "midi": 69,
          "time": 71.34617524999979,
          "velocity": 0.5039370078740157,
          "duration": 0.19230774999999767
        },
        {
          "name": "G4",
          "midi": 67,
          "time": 71.53848299999979,
          "velocity": 0.5039370078740157,
          "duration": 0.19230774999999767
        },
        {
          "name": "A4",
          "midi": 69,
          "time": 71.73079074999978,
          "velocity": 0.5039370078740157,
          "duration": 0.19230774999999767
        },
        {
          "name": "C5",
          "midi": 72,
          "time": 71.92309849999978,
          "velocity": 0.5039370078740157,
          "duration": 0.19230774999999767
        },
        {
          "name": "A#4",
          "midi": 70,
          "time": 72.11540624999978,
          "velocity": 0.5039370078740157,
          "duration": 0.19230774999999767
        },
        {
          "name": "A4",
          "midi": 69,
          "time": 72.30771399999978,
          "velocity": 0.5039370078740157,
          "duration": 0.19230774999999767
        },
        {
          "name": "A#4",
          "midi": 70,
          "time": 72.50002174999977,
          "velocity": 0.5039370078740157,
          "duration": 0.19230774999999767
        },
        {
          "name": "A#4",
          "midi": 70,
          "time": 72.69232949999977,
          "velocity": 0.5039370078740157,
          "duration": 0.19230774999999767
        },
        {
          "name": "A4",
          "midi": 69,
          "time": 72.88463724999977,
          "velocity": 0.5039370078740157,
          "duration": 0.19230774999999767
        },
        {
          "name": "G4",
          "midi": 67,
          "time": 73.07694499999977,
          "velocity": 0.5039370078740157,
          "duration": 0.19230774999999767
        },
        {
          "name": "A4",
          "midi": 69,
          "time": 73.26925274999977,
          "velocity": 0.5039370078740157,
          "duration": 0.19230774999999767
        },
        {
          "name": "A4",
          "midi": 69,
          "time": 73.46156049999976,
          "velocity": 0.5039370078740157,
          "duration": 0.19230774999999767
        },
        {
          "name": "G4",
          "midi": 67,
          "time": 73.65386824999976,
          "velocity": 0.5039370078740157,
          "duration": 0.19230774999999767
        },
        {
          "name": "F4",
          "midi": 65,
          "time": 73.84617599999976,
          "velocity": 0.5039370078740157,
          "duration": 0.19230774999999767
        },
        {
          "name": "G4",
          "midi": 67,
          "time": 74.03848374999976,
          "velocity": 0.5039370078740157,
          "duration": 0.19230774999999767
        },
        {
          "name": "E5",
          "midi": 76,
          "time": 74.23079149999975,
          "velocity": 0.5039370078740157,
          "duration": 0.7692310000000049
        },
        {
          "name": "C#5",
          "midi": 73,
          "time": 75.00002249999976,
          "velocity": 0.5039370078740157,
          "duration": 0.7692310000000049
        },
        {
          "name": "D5",
          "midi": 74,
          "time": 75.76925349999976,
          "velocity": 0.5039370078740157,
          "duration": 0.9615387500000026
        },
        {
          "name": "C5",
          "midi": 72,
          "time": 76.73079224999977,
          "velocity": 0.5039370078740157,
          "duration": 0.19230774999999767
        },
        {
          "name": "A#4",
          "midi": 70,
          "time": 76.92309999999976,
          "velocity": 0.5039370078740157,
          "duration": 0.19230774999999767
        },
        {
          "name": "A4",
          "midi": 69,
          "time": 77.11540774999976,
          "velocity": 0.5039370078740157,
          "duration": 0.19230774999999767
        },
        {
          "name": "C5",
          "midi": 72,
          "time": 77.30771549999976,
          "velocity": 0.5039370078740157,
          "duration": 0.19230774999999767
        },
        {
          "name": "A#4",
          "midi": 70,
          "time": 77.50002324999976,
          "velocity": 0.5039370078740157,
          "duration": 0.19230774999999767
        },
        {
          "name": "A4",
          "midi": 69,
          "time": 77.69233099999975,
          "velocity": 0.5039370078740157,
          "duration": 0.19230774999999767
        },
        {
          "name": "G4",
          "midi": 67,
          "time": 77.88463874999975,
          "velocity": 0.5039370078740157,
          "duration": 0.19230774999999767
        },
        {
          "name": "A4",
          "midi": 69,
          "time": 78.07694649999975,
          "velocity": 0.5039370078740157,
          "duration": 0.38461549999999534
        },
        {
          "name": "F#4",
          "midi": 66,
          "time": 78.46156199999974,
          "velocity": 0.5039370078740157,
          "duration": 0.38461549999999534
        },
        {
          "name": "G4",
          "midi": 67,
          "time": 78.84617749999974,
          "velocity": 0.5039370078740157,
          "duration": 0.38461549999999534
        },
        {
          "name": "A4",
          "midi": 69,
          "time": 79.23079299999974,
          "velocity": 0.5039370078740157,
          "duration": 0.38461549999999534
        },
        {
          "name": "A#4",
          "midi": 70,
          "time": 79.61540849999973,
          "velocity": 0.5039370078740157,
          "duration": 0.38461549999999534
        },
        {
          "name": "G4",
          "midi": 67,
          "time": 80.00002399999973,
          "velocity": 0.5039370078740157,
          "duration": 0.38461549999999534
        },
        {
          "name": "A4",
          "midi": 69,
          "time": 80.38463949999972,
          "velocity": 0.5039370078740157,
          "duration": 0.19230774999999767
        },
        {
          "name": "C5",
          "midi": 72,
          "time": 80.57694724999972,
          "velocity": 0.5039370078740157,
          "duration": 0.19230774999999767
        },
        {
          "name": "D#5",
          "midi": 75,
          "time": 80.76925499999972,
          "velocity": 0.5039370078740157,
          "duration": 0.576923249999993
        },
        {
          "name": "D5",
          "midi": 74,
          "time": 81.34617824999971,
          "velocity": 0.5039370078740157,
          "duration": 0.19230774999999767
        },
        {
          "name": "C5",
          "midi": 72,
          "time": 81.53848599999971,
          "velocity": 0.5039370078740157,
          "duration": 0.19230774999999767
        },
        {
          "name": "A#4",
          "midi": 70,
          "time": 81.7307937499997,
          "velocity": 0.5039370078740157,
          "duration": 0.19230774999999767
        },
        {
          "name": "D5",
          "midi": 74,
          "time": 81.9231014999997,
          "velocity": 0.5039370078740157,
          "duration": 0.19230774999999767
        },
        {
          "name": "C5",
          "midi": 72,
          "time": 82.1154092499997,
          "velocity": 0.5039370078740157,
          "duration": 0.19230774999999767
        },
        {
          "name": "A#4",
          "midi": 70,
          "time": 82.3077169999997,
          "velocity": 0.5039370078740157,
          "duration": 0.19230774999999767
        },
        {
          "name": "A4",
          "midi": 69,
          "time": 82.5000247499997,
          "velocity": 0.5039370078740157,
          "duration": 0.19230774999999767
        },
        {
          "name": "A#4",
          "midi": 70,
          "time": 82.6923324999997,
          "velocity": 0.5039370078740157,
          "duration": 0.19230774999999767
        },
        {
          "name": "D5",
          "midi": 74,
          "time": 82.88464024999969,
          "velocity": 0.5039370078740157,
          "duration": 0.19230774999999767
        },
        {
          "name": "F5",
          "midi": 77,
          "time": 83.07694799999969,
          "velocity": 0.5039370078740157,
          "duration": 0.576923249999993
        },
        {
          "name": "E5",
          "midi": 76,
          "time": 83.65387124999968,
          "velocity": 0.5039370078740157,
          "duration": 0.19230774999999767
        },
        {
          "name": "D5",
          "midi": 74,
          "time": 83.84617899999968,
          "velocity": 0.5039370078740157,
          "duration": 0.19230774999999767
        },
        {
          "name": "C#5",
          "midi": 73,
          "time": 84.03848674999968,
          "velocity": 0.5039370078740157,
          "duration": 0.19230774999999767
        },
        {
          "name": "E5",
          "midi": 76,
          "time": 84.23079449999967,
          "velocity": 0.5039370078740157,
          "duration": 0.19230774999999767
        },
        {
          "name": "D5",
          "midi": 74,
          "time": 84.42310224999967,
          "velocity": 0.5039370078740157,
          "duration": 0.19230774999999767
        },
        {
          "name": "C#5",
          "midi": 73,
          "time": 84.61540999999967,
          "velocity": 0.5039370078740157,
          "duration": 0.19230774999999767
        },
        {
          "name": "B4",
          "midi": 71,
          "time": 84.80771774999967,
          "velocity": 0.5039370078740157,
          "duration": 0.19230774999999767
        },
        {
          "name": "C#5",
          "midi": 73,
          "time": 85.00002549999967,
          "velocity": 0.5039370078740157,
          "duration": 0.19230774999999767
        },
        {
          "name": "E5",
          "midi": 76,
          "time": 85.19233324999966,
          "velocity": 0.5039370078740157,
          "duration": 0.19230774999999767
        },
        {
          "name": "A#5",
          "midi": 82,
          "time": 85.38464099999966,
          "velocity": 0.5039370078740157,
          "duration": 0.576923249999993
        },
        {
          "name": "A5",
          "midi": 81,
          "time": 85.96156424999965,
          "velocity": 0.5039370078740157,
          "duration": 0.19230774999999767
        },
        {
          "name": "G5",
          "midi": 79,
          "time": 86.15387199999965,
          "velocity": 0.5039370078740157,
          "duration": 0.19230774999999767
        },
        {
          "name": "F5",
          "midi": 77,
          "time": 86.34617974999965,
          "velocity": 0.5039370078740157,
          "duration": 0.19230774999999767
        },
        {
          "name": "A5",
          "midi": 81,
          "time": 86.53848749999965,
          "velocity": 0.5039370078740157,
          "duration": 0.19230774999999767
        },
        {
          "name": "G5",
          "midi": 79,
          "time": 86.73079524999964,
          "velocity": 0.5039370078740157,
          "duration": 0.19230774999999767
        },
        {
          "name": "F5",
          "midi": 77,
          "time": 86.92310299999964,
          "velocity": 0.5039370078740157,
          "duration": 0.19230774999999767
        },
        {
          "name": "E5",
          "midi": 76,
          "time": 87.11541074999964,
          "velocity": 0.5039370078740157,
          "duration": 0.19230774999999767
        },
        {
          "name": "G5",
          "midi": 79,
          "time": 87.30771849999964,
          "velocity": 0.5039370078740157,
          "duration": 0.19230774999999767
        },
        {
          "name": "F5",
          "midi": 77,
          "time": 87.50002624999964,
          "velocity": 0.5039370078740157,
          "duration": 0.19230774999999767
        },
        {
          "name": "E5",
          "midi": 76,
          "time": 87.69233399999963,
          "velocity": 0.5039370078740157,
          "duration": 0.19230774999999767
        },
        {
          "name": "F5",
          "midi": 77,
          "time": 87.88464174999963,
          "velocity": 0.5039370078740157,
          "duration": 0.19230774999999767
        },
        {
          "name": "F5",
          "midi": 77,
          "time": 88.07694949999963,
          "velocity": 0.5039370078740157,
          "duration": 0.19230774999999767
        },
        {
          "name": "E5",
          "midi": 76,
          "time": 88.26925724999963,
          "velocity": 0.5039370078740157,
          "duration": 0.19230774999999767
        },
        {
          "name": "D5",
          "midi": 74,
          "time": 88.46156499999962,
          "velocity": 0.5039370078740157,
          "duration": 0.19230774999999767
        },
        {
          "name": "E5",
          "midi": 76,
          "time": 88.65387274999962,
          "velocity": 0.5039370078740157,
          "duration": 0.19230774999999767
        },
        {
          "name": "E5",
          "midi": 76,
          "time": 88.84618049999962,
          "velocity": 0.5039370078740157,
          "duration": 0.19230774999999767
        },
        {
          "name": "D5",
          "midi": 74,
          "time": 89.03848824999962,
          "velocity": 0.5039370078740157,
          "duration": 0.19230774999999767
        },
        {
          "name": "C#5",
          "midi": 73,
          "time": 89.23079599999961,
          "velocity": 0.5039370078740157,
          "duration": 0.19230774999999767
        },
        {
          "name": "D5",
          "midi": 74,
          "time": 89.42310374999961,
          "velocity": 0.5039370078740157,
          "duration": 0.19230774999999767
        },
        {
          "name": "C5",
          "midi": 72,
          "time": 89.61541149999961,
          "velocity": 0.5039370078740157,
          "duration": 0.9615387500000026
        },
        {
          "name": "A#4",
          "midi": 70,
          "time": 90.57695024999961,
          "velocity": 0.5039370078740157,
          "duration": 0.19230774999999767
        },
        {
          "name": "A4",
          "midi": 69,
          "time": 90.76925799999961,
          "velocity": 0.5039370078740157,
          "duration": 0.19230774999999767
        },
        {
          "name": "A#4",
          "midi": 70,
          "time": 90.96156574999961,
          "velocity": 0.5039370078740157,
          "duration": 0.19230774999999767
        },
        {
          "name": "A#4",
          "midi": 70,
          "time": 91.1538734999996,
          "velocity": 0.5039370078740157,
          "duration": 0.19230774999999767
        },
        {
          "name": "A4",
          "midi": 69,
          "time": 91.3461812499996,
          "velocity": 0.5039370078740157,
          "duration": 0.19230774999999767
        },
        {
          "name": "G4",
          "midi": 67,
          "time": 91.5384889999996,
          "velocity": 0.5039370078740157,
          "duration": 0.19230774999999767
        },
        {
          "name": "D5",
          "midi": 74,
          "time": 91.7307967499996,
          "velocity": 0.5039370078740157,
          "duration": 0.19230774999999767
        },
        {
          "name": "D5",
          "midi": 74,
          "time": 91.9231044999996,
          "velocity": 0.5039370078740157,
          "duration": 3.269231750000003
        },
        {
          "name": "G#5",
          "midi": 80,
          "time": 95.1923362499996,
          "velocity": 0.5039370078740157,
          "duration": 0.19230774999999767
        },
        {
          "name": "A5",
          "midi": 81,
          "time": 95.3846439999996,
          "velocity": 0.5039370078740157,
          "duration": 0.19230774999999767
        },
        {
          "name": "D5",
          "midi": 74,
          "time": 95.5769517499996,
          "velocity": 0.5039370078740157,
          "duration": 0.19230774999999767
        },
        {
          "name": "F5",
          "midi": 77,
          "time": 95.76925949999959,
          "velocity": 0.5039370078740157,
          "duration": 0.19230774999999767
        },
        {
          "name": "E5",
          "midi": 76,
          "time": 95.96156724999959,
          "velocity": 0.5039370078740157,
          "duration": 0.19230774999999767
        },
        {
          "name": "D5",
          "midi": 74,
          "time": 96.15387499999959,
          "velocity": 0.5039370078740157,
          "duration": 0.19230774999999767
        },
        {
          "name": "C#5",
          "midi": 73,
          "time": 96.34618274999958,
          "velocity": 0.5039370078740157,
          "duration": 0.19230774999999767
        },
        {
          "name": "D5",
          "midi": 74,
          "time": 96.53849049999958,
          "velocity": 0.5039370078740157,
          "duration": 2.307692999999972
        },
        {
          "name": "C5",
          "midi": 72,
          "time": 96.92310599999958,
          "velocity": 0.5039370078740157,
          "duration": 0.38461549999999534
        },
        {
          "name": "A4",
          "midi": 69,
          "time": 96.92310599999958,
          "velocity": 0.5039370078740157,
          "duration": 0.38461549999999534
        },
        {
          "name": "A#4",
          "midi": 70,
          "time": 97.30772149999957,
          "velocity": 0.5039370078740157,
          "duration": 0.38461549999999534
        },
        {
          "name": "G4",
          "midi": 67,
          "time": 97.30772149999957,
          "velocity": 0.5039370078740157,
          "duration": 0.38461549999999534
        },
        {
          "name": "A4",
          "midi": 69,
          "time": 97.69233699999957,
          "velocity": 0.5039370078740157,
          "duration": 0.38461549999999534
        },
        {
          "name": "F#4",
          "midi": 66,
          "time": 97.69233699999957,
          "velocity": 0.5039370078740157,
          "duration": 0.38461549999999534
        },
        {
          "name": "G4",
          "midi": 67,
          "time": 98.07695249999956,
          "velocity": 0.5039370078740157,
          "duration": 0.38461549999999534
        },
        {
          "name": "E4",
          "midi": 64,
          "time": 98.07695249999956,
          "velocity": 0.5039370078740157,
          "duration": 0.38461549999999534
        },
        {
          "name": "A#4",
          "midi": 70,
          "time": 98.46156799999956,
          "velocity": 0.5039370078740157,
          "duration": 0.38461549999999534
        },
        {
          "name": "G4",
          "midi": 67,
          "time": 98.46156799999956,
          "velocity": 0.5039370078740157,
          "duration": 0.38461549999999534
        },
        {
          "name": "A4",
          "midi": 69,
          "time": 98.84618349999955,
          "velocity": 0.5039370078740157,
          "duration": 2.3076930000000004
        },
        {
          "name": "F#4",
          "midi": 66,
          "time": 98.84618349999955,
          "velocity": 0.5039370078740157,
          "duration": 2.3076930000000004
        },
        {
          "name": "D5",
          "midi": 74,
          "time": 98.84618349999955,
          "velocity": 0.5039370078740157,
          "duration": 2.3076930000000004
        }
      ],
      "controlChanges": {},
      "id": 1,
      "channelNumber": 0,
      "isPercussion": false
    },
    {
      "startTime": 4.615386,
      "duration": 101.15387649999971,
      "length": 180,
      "notes": [
        {
          "name": "A3",
          "midi": 57,
          "time": 4.615386,
          "velocity": 0.5039370078740157,
          "duration": 0.3846154999999998
        },
        {
          "name": "B3",
          "midi": 59,
          "time": 5.0000015,
          "velocity": 0.5039370078740157,
          "duration": 0.3846154999999998
        },
        {
          "name": "C4",
          "midi": 60,
          "time": 5.3846169999999995,
          "velocity": 0.5039370078740157,
          "duration": 0.3846154999999998
        },
        {
          "name": "D4",
          "midi": 62,
          "time": 5.769232499999999,
          "velocity": 0.5039370078740157,
          "duration": 0.3846154999999998
        },
        {
          "name": "B3",
          "midi": 59,
          "time": 6.153847999999999,
          "velocity": 0.5039370078740157,
          "duration": 0.3846154999999998
        },
        {
          "name": "C4",
          "midi": 60,
          "time": 6.538463499999999,
          "velocity": 0.5039370078740157,
          "duration": 0.19230775000000033
        },
        {
          "name": "A3",
          "midi": 57,
          "time": 6.730771249999999,
          "velocity": 0.5039370078740157,
          "duration": 0.19230775000000033
        },
        {
          "name": "G#3",
          "midi": 56,
          "time": 6.9230789999999995,
          "velocity": 0.5039370078740157,
          "duration": 0.19230775000000033
        },
        {
          "name": "A3",
          "midi": 57,
          "time": 7.11538675,
          "velocity": 0.5039370078740157,
          "duration": 0.19230775000000033
        },
        {
          "name": "F4",
          "midi": 65,
          "time": 7.3076945,
          "velocity": 0.5039370078740157,
          "duration": 0.3846154999999998
        },
        {
          "name": "D4",
          "midi": 62,
          "time": 8.0769255,
          "velocity": 0.5039370078740157,
          "duration": 0.7692309999999996
        },
        {
          "name": "E4",
          "midi": 64,
          "time": 8.8461565,
          "velocity": 0.5039370078740157,
          "duration": 0.9615387500000008
        },
        {
          "name": "D4",
          "midi": 62,
          "time": 9.80769525,
          "velocity": 0.5039370078740157,
          "duration": 0.19230774999999944
        },
        {
          "name": "C#4",
          "midi": 61,
          "time": 10.000003,
          "velocity": 0.5039370078740157,
          "duration": 0.19230774999999944
        },
        {
          "name": "B3",
          "midi": 59,
          "time": 10.192310749999999,
          "velocity": 0.5039370078740157,
          "duration": 0.19230774999999944
        },
        {
          "name": "D4",
          "midi": 62,
          "time": 10.384618499999998,
          "velocity": 0.5039370078740157,
          "duration": 0.19230774999999944
        },
        {
          "name": "C#4",
          "midi": 61,
          "time": 10.576926249999998,
          "velocity": 0.5039370078740157,
          "duration": 0.19230774999999944
        },
        {
          "name": "B3",
          "midi": 59,
          "time": 10.769233999999997,
          "velocity": 0.5039370078740157,
          "duration": 0.19230774999999944
        },
        {
          "name": "A3",
          "midi": 57,
          "time": 10.961541749999997,
          "velocity": 0.5039370078740157,
          "duration": 0.19230774999999944
        },
        {
          "name": "D4",
          "midi": 62,
          "time": 11.153849499999996,
          "velocity": 0.5039370078740157,
          "duration": 0.7692309999999996
        },
        {
          "name": "F4",
          "midi": 65,
          "time": 13.846157999999996,
          "velocity": 0.5039370078740157,
          "duration": 0.5769232500000001
        },
        {
          "name": "E4",
          "midi": 64,
          "time": 14.423081249999996,
          "velocity": 0.5039370078740157,
          "duration": 0.19230774999999944
        },
        {
          "name": "D4",
          "midi": 62,
          "time": 14.615388999999995,
          "velocity": 0.5039370078740157,
          "duration": 0.19230774999999944
        },
        {
          "name": "E4",
          "midi": 64,
          "time": 14.807696749999995,
          "velocity": 0.5039370078740157,
          "duration": 0.19230774999999944
        },
        {
          "name": "E4",
          "midi": 64,
          "time": 15.000004499999994,
          "velocity": 0.5039370078740157,
          "duration": 0.19230774999999944
        },
        {
          "name": "D4",
          "midi": 62,
          "time": 15.192312249999993,
          "velocity": 0.5039370078740157,
          "duration": 0.19230774999999944
        },
        {
          "name": "C#4",
          "midi": 61,
          "time": 15.384619999999993,
          "velocity": 0.5039370078740157,
          "duration": 0.19230774999999944
        },
        {
          "name": "D4",
          "midi": 62,
          "time": 15.576927749999992,
          "velocity": 0.5039370078740157,
          "duration": 0.19230774999999944
        },
        {
          "name": "C#4",
          "midi": 61,
          "time": 15.769235499999992,
          "velocity": 0.5039370078740157,
          "duration": 0.7692309999999996
        },
        {
          "name": "D4",
          "midi": 62,
          "time": 16.53846649999999,
          "velocity": 0.5039370078740157,
          "duration": 0.3846154999999989
        },
        {
          "name": "E4",
          "midi": 64,
          "time": 16.92308199999999,
          "velocity": 0.5039370078740157,
          "duration": 0.3846154999999989
        },
        {
          "name": "C#4",
          "midi": 61,
          "time": 17.30769749999999,
          "velocity": 0.5039370078740157,
          "duration": 0.3846154999999989
        },
        {
          "name": "D4",
          "midi": 62,
          "time": 17.692312999999988,
          "velocity": 0.5039370078740157,
          "duration": 0.3846154999999989
        },
        {
          "name": "D#4",
          "midi": 63,
          "time": 18.076928499999987,
          "velocity": 0.5039370078740157,
          "duration": 0.3846154999999989
        },
        {
          "name": "D4",
          "midi": 62,
          "time": 18.461543999999986,
          "velocity": 0.5039370078740157,
          "duration": 0.3846154999999989
        },
        {
          "name": "G4",
          "midi": 67,
          "time": 18.846159499999985,
          "velocity": 0.5039370078740157,
          "duration": 0.7692310000000013
        },
        {
          "name": "E4",
          "midi": 64,
          "time": 19.615390499999986,
          "velocity": 0.5039370078740157,
          "duration": 0.7692310000000013
        },
        {
          "name": "A4",
          "midi": 69,
          "time": 20.57692924999999,
          "velocity": 0.5039370078740157,
          "duration": 0.19230775000000122
        },
        {
          "name": "G4",
          "midi": 67,
          "time": 20.76923699999999,
          "velocity": 0.5039370078740157,
          "duration": 0.19230775000000122
        },
        {
          "name": "A4",
          "midi": 69,
          "time": 20.96154474999999,
          "velocity": 0.5039370078740157,
          "duration": 0.19230775000000122
        },
        {
          "name": "F4",
          "midi": 65,
          "time": 21.153852499999992,
          "velocity": 0.5039370078740157,
          "duration": 0.7692310000000013
        },
        {
          "name": "D4",
          "midi": 62,
          "time": 21.923083499999994,
          "velocity": 0.5039370078740157,
          "duration": 0.7692310000000013
        },
        {
          "name": "G4",
          "midi": 67,
          "time": 22.884622249999996,
          "velocity": 0.5039370078740157,
          "duration": 0.19230775000000122
        },
        {
          "name": "F4",
          "midi": 65,
          "time": 23.076929999999997,
          "velocity": 0.5039370078740157,
          "duration": 0.19230775000000122
        },
        {
          "name": "G4",
          "midi": 67,
          "time": 23.26923775,
          "velocity": 0.5039370078740157,
          "duration": 0.19230775000000122
        },
        {
          "name": "D#4",
          "midi": 63,
          "time": 23.4615455,
          "velocity": 0.5039370078740157,
          "duration": 0.7692310000000013
        },
        {
          "name": "C4",
          "midi": 60,
          "time": 24.2307765,
          "velocity": 0.5039370078740157,
          "duration": 0.7692310000000013
        },
        {
          "name": "A4",
          "midi": 69,
          "time": 25.384623,
          "velocity": 0.5039370078740157,
          "duration": 0.3846154999999989
        },
        {
          "name": "G4",
          "midi": 67,
          "time": 25.7692385,
          "velocity": 0.5039370078740157,
          "duration": 0.3846154999999989
        },
        {
          "name": "F4",
          "midi": 65,
          "time": 26.153854,
          "velocity": 0.5039370078740157,
          "duration": 0.3846154999999989
        },
        {
          "name": "E4",
          "midi": 64,
          "time": 26.538469499999998,
          "velocity": 0.5039370078740157,
          "duration": 0.3846154999999989
        },
        {
          "name": "G4",
          "midi": 67,
          "time": 26.923084999999997,
          "velocity": 0.5039370078740157,
          "duration": 0.3846154999999989
        },
        {
          "name": "C#4",
          "midi": 61,
          "time": 27.307700499999996,
          "velocity": 0.5039370078740157,
          "duration": 0.7692310000000013
        },
        {
          "name": "D4",
          "midi": 62,
          "time": 28.076931499999997,
          "velocity": 0.5039370078740157,
          "duration": 0.3846154999999989
        },
        {
          "name": "E4",
          "midi": 64,
          "time": 28.461546999999996,
          "velocity": 0.5039370078740157,
          "duration": 0.3846154999999989
        },
        {
          "name": "A3",
          "midi": 57,
          "time": 28.846162499999995,
          "velocity": 0.5039370078740157,
          "duration": 0.7692310000000013
        },
        {
          "name": "E4",
          "midi": 64,
          "time": 30.000008999999995,
          "velocity": 0.5039370078740157,
          "duration": 0.3846154999999989
        },
        {
          "name": "D4",
          "midi": 62,
          "time": 30.384624499999994,
          "velocity": 0.5039370078740157,
          "duration": 0.3846154999999989
        },
        {
          "name": "C#4",
          "midi": 61,
          "time": 30.769239999999993,
          "velocity": 0.5039370078740157,
          "duration": 0.3846154999999989
        },
        {
          "name": "B3",
          "midi": 59,
          "time": 31.15385549999999,
          "velocity": 0.5039370078740157,
          "duration": 0.3846154999999989
        },
        {
          "name": "D4",
          "midi": 62,
          "time": 31.53847099999999,
          "velocity": 0.5039370078740157,
          "duration": 0.3846154999999989
        },
        {
          "name": "C#4",
          "midi": 61,
          "time": 31.92308649999999,
          "velocity": 0.5039370078740157,
          "duration": 0.19230774999999767
        },
        {
          "name": "E4",
          "midi": 64,
          "time": 32.11539424999999,
          "velocity": 0.5039370078740157,
          "duration": 0.19230774999999767
        },
        {
          "name": "F4",
          "midi": 65,
          "time": 32.307701999999985,
          "velocity": 0.5039370078740157,
          "duration": 0.19230774999999767
        },
        {
          "name": "E4",
          "midi": 64,
          "time": 32.50000974999998,
          "velocity": 0.5039370078740157,
          "duration": 0.19230774999999767
        },
        {
          "name": "A3",
          "midi": 57,
          "time": 32.69231749999998,
          "velocity": 0.5039370078740157,
          "duration": 0.7692309999999978
        },
        {
          "name": "C4",
          "midi": 60,
          "time": 33.46154849999998,
          "velocity": 0.5039370078740157,
          "duration": 0.7692309999999978
        },
        {
          "name": "A#3",
          "midi": 58,
          "time": 34.230779499999976,
          "velocity": 0.5039370078740157,
          "duration": 0.19230774999999767
        },
        {
          "name": "D4",
          "midi": 62,
          "time": 34.42308724999997,
          "velocity": 0.5039370078740157,
          "duration": 0.19230774999999767
        },
        {
          "name": "D#4",
          "midi": 63,
          "time": 34.61539499999997,
          "velocity": 0.5039370078740157,
          "duration": 0.19230774999999767
        },
        {
          "name": "D4",
          "midi": 62,
          "time": 34.80770274999997,
          "velocity": 0.5039370078740157,
          "duration": 0.19230774999999767
        },
        {
          "name": "B3",
          "midi": 59,
          "time": 35.000010499999966,
          "velocity": 0.5039370078740157,
          "duration": 0.7692309999999978
        },
        {
          "name": "E4",
          "midi": 64,
          "time": 35.769241499999964,
          "velocity": 0.5039370078740157,
          "duration": 1.1538465000000002
        },
        {
          "name": "A3",
          "midi": 57,
          "time": 39.230780999999965,
          "velocity": 0.5039370078740157,
          "duration": 0.38461550000000244
        },
        {
          "name": "B3",
          "midi": 59,
          "time": 39.61539649999997,
          "velocity": 0.5039370078740157,
          "duration": 0.38461550000000244
        },
        {
          "name": "C#4",
          "midi": 61,
          "time": 40.00001199999997,
          "velocity": 0.5039370078740157,
          "duration": 0.38461550000000244
        },
        {
          "name": "D4",
          "midi": 62,
          "time": 40.38462749999997,
          "velocity": 0.5039370078740157,
          "duration": 0.38461550000000244
        },
        {
          "name": "B3",
          "midi": 59,
          "time": 40.769242999999975,
          "velocity": 0.5039370078740157,
          "duration": 0.38461550000000244
        },
        {
          "name": "C4",
          "midi": 60,
          "time": 41.15385849999998,
          "velocity": 0.5039370078740157,
          "duration": 0.19230774999999767
        },
        {
          "name": "A3",
          "midi": 57,
          "time": 41.346166249999975,
          "velocity": 0.5039370078740157,
          "duration": 0.19230774999999767
        },
        {
          "name": "G#3",
          "midi": 56,
          "time": 41.53847399999997,
          "velocity": 0.5039370078740157,
          "duration": 0.19230774999999767
        },
        {
          "name": "A3",
          "midi": 57,
          "time": 41.73078174999997,
          "velocity": 0.5039370078740157,
          "duration": 0.19230774999999767
        },
        {
          "name": "F4",
          "midi": 65,
          "time": 41.92308949999997,
          "velocity": 0.5039370078740157,
          "duration": 0.38461550000000244
        },
        {
          "name": "D4",
          "midi": 62,
          "time": 42.69232049999997,
          "velocity": 0.5039370078740157,
          "duration": 0.7692309999999978
        },
        {
          "name": "E4",
          "midi": 64,
          "time": 43.46155149999997,
          "velocity": 0.5039370078740157,
          "duration": 0.38461550000000244
        },
        {
          "name": "F4",
          "midi": 65,
          "time": 43.84616699999997,
          "velocity": 0.5039370078740157,
          "duration": 0.38461550000000244
        },
        {
          "name": "B3",
          "midi": 59,
          "time": 44.230782499999975,
          "velocity": 0.5039370078740157,
          "duration": 1.5384620000000027
        },
        {
          "name": "A3",
          "midi": 57,
          "time": 45.76924449999998,
          "velocity": 0.5039370078740157,
          "duration": 0.7692309999999978
        },
        {
          "name": "D4",
          "midi": 62,
          "time": 55.384631999999975,
          "velocity": 0.5039370078740157,
          "duration": 0.38461550000000244
        },
        {
          "name": "C4",
          "midi": 60,
          "time": 55.76924749999998,
          "velocity": 0.5039370078740157,
          "duration": 0.38461550000000244
        },
        {
          "name": "A#3",
          "midi": 58,
          "time": 56.15386299999998,
          "velocity": 0.5039370078740157,
          "duration": 0.38461550000000244
        },
        {
          "name": "A3",
          "midi": 57,
          "time": 56.53847849999998,
          "velocity": 0.5039370078740157,
          "duration": 0.38461550000000244
        },
        {
          "name": "C4",
          "midi": 60,
          "time": 56.923093999999985,
          "velocity": 0.5039370078740157,
          "duration": 0.38461550000000244
        },
        {
          "name": "A#3",
          "midi": 58,
          "time": 57.30770949999999,
          "velocity": 0.5039370078740157,
          "duration": 0.7692309999999978
        },
        {
          "name": "D4",
          "midi": 62,
          "time": 58.076940499999985,
          "velocity": 0.5039370078740157,
          "duration": 1.5384620000000027
        },
        {
          "name": "G3",
          "midi": 55,
          "time": 59.61540249999999,
          "velocity": 0.5039370078740157,
          "duration": 0.7692309999999978
        },
        {
          "name": "D4",
          "midi": 62,
          "time": 62.30771099999998,
          "velocity": 0.5039370078740157,
          "duration": 0.38461550000000244
        },
        {
          "name": "E4",
          "midi": 64,
          "time": 62.692326499999986,
          "velocity": 0.5039370078740157,
          "duration": 0.38461550000000244
        },
        {
          "name": "F4",
          "midi": 65,
          "time": 63.07694199999999,
          "velocity": 0.5039370078740157,
          "duration": 0.38461550000000244
        },
        {
          "name": "G4",
          "midi": 67,
          "time": 63.46155749999999,
          "velocity": 0.5039370078740157,
          "duration": 0.38461550000000244
        },
        {
          "name": "E4",
          "midi": 64,
          "time": 63.84617299999999,
          "velocity": 0.5039370078740157,
          "duration": 0.38461549999999534
        },
        {
          "name": "F4",
          "midi": 65,
          "time": 64.23078849999999,
          "velocity": 0.5039370078740157,
          "duration": 0.19230774999999767
        },
        {
          "name": "D4",
          "midi": 62,
          "time": 64.42309624999999,
          "velocity": 0.5039370078740157,
          "duration": 0.19230774999999767
        },
        {
          "name": "C#4",
          "midi": 61,
          "time": 64.61540399999998,
          "velocity": 0.5039370078740157,
          "duration": 0.19230774999999767
        },
        {
          "name": "D4",
          "midi": 62,
          "time": 64.80771174999998,
          "velocity": 0.5039370078740157,
          "duration": 0.19230774999999767
        },
        {
          "name": "A#4",
          "midi": 70,
          "time": 65.00001949999998,
          "velocity": 0.5039370078740157,
          "duration": 0.7692310000000049
        },
        {
          "name": "G4",
          "midi": 67,
          "time": 65.76925049999998,
          "velocity": 0.5039370078740157,
          "duration": 0.7692310000000049
        },
        {
          "name": "A4",
          "midi": 69,
          "time": 66.53848149999999,
          "velocity": 0.5039370078740157,
          "duration": 0.7692310000000049
        },
        {
          "name": "F#3",
          "midi": 54,
          "time": 67.3077125,
          "velocity": 0.5039370078740157,
          "duration": 0.38461549999999534
        },
        {
          "name": "A3",
          "midi": 57,
          "time": 68.07694349999998,
          "velocity": 0.5039370078740157,
          "duration": 0.38461549999999534
        },
        {
          "name": "G3",
          "midi": 55,
          "time": 69.03848224999997,
          "velocity": 0.5039370078740157,
          "duration": 0.19230774999999767
        },
        {
          "name": "F#3",
          "midi": 54,
          "time": 69.23078999999997,
          "velocity": 0.5039370078740157,
          "duration": 0.19230774999999767
        },
        {
          "name": "G3",
          "midi": 55,
          "time": 69.42309774999997,
          "velocity": 0.5039370078740157,
          "duration": 0.19230774999999767
        },
        {
          "name": "E3",
          "midi": 52,
          "time": 69.61540549999997,
          "velocity": 0.5039370078740157,
          "duration": 0.38461549999999534
        },
        {
          "name": "G3",
          "midi": 55,
          "time": 70.38463649999996,
          "velocity": 0.5039370078740157,
          "duration": 0.38461549999999534
        },
        {
          "name": "F3",
          "midi": 53,
          "time": 71.34617524999994,
          "velocity": 0.5039370078740157,
          "duration": 0.19230774999999767
        },
        {
          "name": "E3",
          "midi": 52,
          "time": 71.53848299999994,
          "velocity": 0.5039370078740157,
          "duration": 0.19230774999999767
        },
        {
          "name": "F3",
          "midi": 53,
          "time": 71.73079074999994,
          "velocity": 0.5039370078740157,
          "duration": 0.19230774999999767
        },
        {
          "name": "D3",
          "midi": 50,
          "time": 71.92309849999994,
          "velocity": 0.5039370078740157,
          "duration": 0.38461549999999534
        },
        {
          "name": "F3",
          "midi": 53,
          "time": 72.69232949999993,
          "velocity": 0.5039370078740157,
          "duration": 0.38461549999999534
        },
        {
          "name": "F3",
          "midi": 53,
          "time": 73.84617599999993,
          "velocity": 0.5039370078740157,
          "duration": 0.38461549999999534
        },
        {
          "name": "G3",
          "midi": 55,
          "time": 74.23079149999992,
          "velocity": 0.5039370078740157,
          "duration": 0.38461549999999534
        },
        {
          "name": "A3",
          "midi": 57,
          "time": 74.61540699999992,
          "velocity": 0.5039370078740157,
          "duration": 0.38461549999999534
        },
        {
          "name": "A#3",
          "midi": 58,
          "time": 75.00002249999991,
          "velocity": 0.5039370078740157,
          "duration": 0.38461549999999534
        },
        {
          "name": "G3",
          "midi": 55,
          "time": 75.38463799999991,
          "velocity": 0.5039370078740157,
          "duration": 0.38461549999999534
        },
        {
          "name": "A3",
          "midi": 57,
          "time": 75.7692534999999,
          "velocity": 0.5039370078740157,
          "duration": 0.38461549999999534
        },
        {
          "name": "F3",
          "midi": 53,
          "time": 76.1538689999999,
          "velocity": 0.5039370078740157,
          "duration": 0.38461549999999534
        },
        {
          "name": "G3",
          "midi": 55,
          "time": 76.5384844999999,
          "velocity": 0.5039370078740157,
          "duration": 0.38461549999999534
        },
        {
          "name": "A3",
          "midi": 57,
          "time": 76.92309999999989,
          "velocity": 0.5039370078740157,
          "duration": 0.38461549999999534
        },
        {
          "name": "G3",
          "midi": 55,
          "time": 77.30771549999989,
          "velocity": 0.5039370078740157,
          "duration": 0.7692310000000049
        },
        {
          "name": "A3",
          "midi": 57,
          "time": 78.46156199999989,
          "velocity": 0.5039370078740157,
          "duration": 0.38461549999999534
        },
        {
          "name": "G3",
          "midi": 55,
          "time": 78.84617749999988,
          "velocity": 0.5039370078740157,
          "duration": 0.38461549999999534
        },
        {
          "name": "F#3",
          "midi": 54,
          "time": 79.23079299999988,
          "velocity": 0.5039370078740157,
          "duration": 0.38461549999999534
        },
        {
          "name": "E3",
          "midi": 52,
          "time": 79.61540849999987,
          "velocity": 0.5039370078740157,
          "duration": 0.38461549999999534
        },
        {
          "name": "G3",
          "midi": 55,
          "time": 80.00002399999987,
          "velocity": 0.5039370078740157,
          "duration": 0.38461549999999534
        },
        {
          "name": "F#3",
          "midi": 54,
          "time": 80.38463949999986,
          "velocity": 0.5039370078740157,
          "duration": 0.38461549999999534
        },
        {
          "name": "A#3",
          "midi": 58,
          "time": 80.76925499999986,
          "velocity": 0.5039370078740157,
          "duration": 0.38461549999999534
        },
        {
          "name": "A3",
          "midi": 57,
          "time": 81.15387049999985,
          "velocity": 0.5039370078740157,
          "duration": 0.38461549999999534
        },
        {
          "name": "G3",
          "midi": 55,
          "time": 81.53848599999985,
          "velocity": 0.5039370078740157,
          "duration": 0.38461549999999534
        },
        {
          "name": "F#3",
          "midi": 54,
          "time": 81.92310149999985,
          "velocity": 0.5039370078740157,
          "duration": 0.38461549999999534
        },
        {
          "name": "A3",
          "midi": 57,
          "time": 82.30771699999984,
          "velocity": 0.5039370078740157,
          "duration": 0.38461549999999534
        },
        {
          "name": "G3",
          "midi": 55,
          "time": 82.69233249999984,
          "velocity": 0.5039370078740157,
          "duration": 0.38461549999999534
        },
        {
          "name": "C4",
          "midi": 60,
          "time": 83.07694799999983,
          "velocity": 0.5039370078740157,
          "duration": 0.38461549999999534
        },
        {
          "name": "B3",
          "midi": 59,
          "time": 83.46156349999983,
          "velocity": 0.5039370078740157,
          "duration": 0.38461549999999534
        },
        {
          "name": "A3",
          "midi": 57,
          "time": 83.84617899999982,
          "velocity": 0.5039370078740157,
          "duration": 0.38461549999999534
        },
        {
          "name": "G#3",
          "midi": 56,
          "time": 84.23079449999982,
          "velocity": 0.5039370078740157,
          "duration": 0.38461549999999534
        },
        {
          "name": "B3",
          "midi": 59,
          "time": 84.61540999999981,
          "velocity": 0.5039370078740157,
          "duration": 0.38461549999999534
        },
        {
          "name": "A3",
          "midi": 57,
          "time": 85.00002549999981,
          "velocity": 0.5039370078740157,
          "duration": 0.38461549999999534
        },
        {
          "name": "F4",
          "midi": 65,
          "time": 85.3846409999998,
          "velocity": 0.5039370078740157,
          "duration": 0.38461549999999534
        },
        {
          "name": "E4",
          "midi": 64,
          "time": 85.7692564999998,
          "velocity": 0.5039370078740157,
          "duration": 0.38461549999999534
        },
        {
          "name": "D4",
          "midi": 62,
          "time": 86.1538719999998,
          "velocity": 0.5039370078740157,
          "duration": 0.38461549999999534
        },
        {
          "name": "C#4",
          "midi": 61,
          "time": 86.53848749999979,
          "velocity": 0.5039370078740157,
          "duration": 0.38461549999999534
        },
        {
          "name": "E4",
          "midi": 64,
          "time": 86.92310299999978,
          "velocity": 0.5039370078740157,
          "duration": 0.38461549999999534
        },
        {
          "name": "D4",
          "midi": 62,
          "time": 87.30771849999978,
          "velocity": 0.5039370078740157,
          "duration": 0.38461549999999534
        },
        {
          "name": "D4",
          "midi": 62,
          "time": 90.00002699999978,
          "velocity": 0.5039370078740157,
          "duration": 0.38461549999999534
        },
        {
          "name": "E4",
          "midi": 64,
          "time": 90.38464249999977,
          "velocity": 0.5039370078740157,
          "duration": 0.38461549999999534
        },
        {
          "name": "F#4",
          "midi": 66,
          "time": 90.76925799999977,
          "velocity": 0.5039370078740157,
          "duration": 0.38461549999999534
        },
        {
          "name": "G4",
          "midi": 67,
          "time": 91.15387349999976,
          "velocity": 0.5039370078740157,
          "duration": 0.38461549999999534
        },
        {
          "name": "E4",
          "midi": 64,
          "time": 91.53848899999976,
          "velocity": 0.5039370078740157,
          "duration": 0.38461549999999534
        },
        {
          "name": "F4",
          "midi": 65,
          "time": 91.92310449999975,
          "velocity": 0.5039370078740157,
          "duration": 0.19230774999999767
        },
        {
          "name": "D4",
          "midi": 62,
          "time": 92.11541224999975,
          "velocity": 0.5039370078740157,
          "duration": 0.19230774999999767
        },
        {
          "name": "C#4",
          "midi": 61,
          "time": 92.30771999999975,
          "velocity": 0.5039370078740157,
          "duration": 0.19230774999999767
        },
        {
          "name": "D4",
          "midi": 62,
          "time": 92.50002774999975,
          "velocity": 0.5039370078740157,
          "duration": 0.19230774999999767
        },
        {
          "name": "A#4",
          "midi": 70,
          "time": 92.69233549999974,
          "velocity": 0.5039370078740157,
          "duration": 0.7692310000000049
        },
        {
          "name": "G4",
          "midi": 67,
          "time": 93.46156649999975,
          "velocity": 0.5039370078740157,
          "duration": 0.7692310000000049
        },
        {
          "name": "A4",
          "midi": 69,
          "time": 94.23079749999975,
          "velocity": 0.5039370078740157,
          "duration": 0.38461549999999534
        },
        {
          "name": "A#4",
          "midi": 70,
          "time": 94.61541299999975,
          "velocity": 0.5039370078740157,
          "duration": 0.38461549999999534
        },
        {
          "name": "E4",
          "midi": 64,
          "time": 95.00002849999974,
          "velocity": 0.5039370078740157,
          "duration": 1.5384619999999956
        },
        {
          "name": "F#3",
          "midi": 54,
          "time": 96.92310599999973,
          "velocity": 0.5039370078740157,
          "duration": 0.38461549999999534
        },
        {
          "name": "D3",
          "midi": 50,
          "time": 96.92310599999973,
          "velocity": 0.5039370078740157,
          "duration": 0.38461549999999534
        },
        {
          "name": "G3",
          "midi": 55,
          "time": 97.30772149999973,
          "velocity": 0.5039370078740157,
          "duration": 0.38461549999999534
        },
        {
          "name": "E3",
          "midi": 52,
          "time": 97.30772149999973,
          "velocity": 0.5039370078740157,
          "duration": 0.38461549999999534
        },
        {
          "name": "A3",
          "midi": 57,
          "time": 97.69233699999972,
          "velocity": 0.5039370078740157,
          "duration": 0.38461549999999534
        },
        {
          "name": "F#3",
          "midi": 54,
          "time": 97.69233699999972,
          "velocity": 0.5039370078740157,
          "duration": 0.38461549999999534
        },
        {
          "name": "A#3",
          "midi": 58,
          "time": 98.07695249999972,
          "velocity": 0.5039370078740157,
          "duration": 0.38461549999999534
        },
        {
          "name": "G3",
          "midi": 55,
          "time": 98.07695249999972,
          "velocity": 0.5039370078740157,
          "duration": 0.38461549999999534
        },
        {
          "name": "G3",
          "midi": 55,
          "time": 98.46156799999972,
          "velocity": 0.5039370078740157,
          "duration": 0.38461549999999534
        },
        {
          "name": "E3",
          "midi": 52,
          "time": 98.46156799999972,
          "velocity": 0.5039370078740157,
          "duration": 0.38461549999999534
        },
        {
          "name": "A3",
          "midi": 57,
          "time": 98.84618349999971,
          "velocity": 0.5039370078740157,
          "duration": 2.3076930000000004
        },
        {
          "name": "F#3",
          "midi": 54,
          "time": 98.84618349999971,
          "velocity": 0.5039370078740157,
          "duration": 2.3076930000000004
        }
      ],
      "controlChanges": {},
      "id": 2,
      "channelNumber": 1,
      "isPercussion": false
    },
    {
      "startTime": 11.538465,
      "duration": 101.15387649999978,
      "length": 227,
      "notes": [
        {
          "name": "D3",
          "midi": 50,
          "time": 11.538465,
          "velocity": 0.5039370078740157,
          "duration": 0.38461550000000067
        },
        {
          "name": "E3",
          "midi": 52,
          "time": 11.923080500000001,
          "velocity": 0.5039370078740157,
          "duration": 0.38461550000000067
        },
        {
          "name": "F3",
          "midi": 53,
          "time": 12.307696000000002,
          "velocity": 0.5039370078740157,
          "duration": 0.38461550000000067
        },
        {
          "name": "G3",
          "midi": 55,
          "time": 12.692311500000002,
          "velocity": 0.5039370078740157,
          "duration": 0.38461550000000067
        },
        {
          "name": "E3",
          "midi": 52,
          "time": 13.076927000000003,
          "velocity": 0.5039370078740157,
          "duration": 0.38461550000000067
        },
        {
          "name": "F3",
          "midi": 53,
          "time": 13.461542500000004,
          "velocity": 0.5039370078740157,
          "duration": 0.19230774999999944
        },
        {
          "name": "D3",
          "midi": 50,
          "time": 13.653850250000003,
          "velocity": 0.5039370078740157,
          "duration": 0.19230774999999944
        },
        {
          "name": "C#3",
          "midi": 49,
          "time": 13.846158000000003,
          "velocity": 0.5039370078740157,
          "duration": 0.19230774999999944
        },
        {
          "name": "D3",
          "midi": 50,
          "time": 14.038465750000002,
          "velocity": 0.5039370078740157,
          "duration": 0.19230774999999944
        },
        {
          "name": "A#3",
          "midi": 58,
          "time": 14.230773500000002,
          "velocity": 0.5039370078740157,
          "duration": 0.38461550000000067
        },
        {
          "name": "G3",
          "midi": 55,
          "time": 15.000004500000003,
          "velocity": 0.5039370078740157,
          "duration": 0.7692309999999996
        },
        {
          "name": "A3",
          "midi": 57,
          "time": 15.769235500000002,
          "velocity": 0.5039370078740157,
          "duration": 0.9615387500000008
        },
        {
          "name": "G3",
          "midi": 55,
          "time": 16.730774250000003,
          "velocity": 0.5039370078740157,
          "duration": 0.19230775000000122
        },
        {
          "name": "F3",
          "midi": 53,
          "time": 16.923082000000004,
          "velocity": 0.5039370078740157,
          "duration": 0.19230775000000122
        },
        {
          "name": "E3",
          "midi": 52,
          "time": 17.115389750000006,
          "velocity": 0.5039370078740157,
          "duration": 0.19230775000000122
        },
        {
          "name": "G3",
          "midi": 55,
          "time": 17.307697500000007,
          "velocity": 0.5039370078740157,
          "duration": 0.19230775000000122
        },
        {
          "name": "F3",
          "midi": 53,
          "time": 17.500005250000008,
          "velocity": 0.5039370078740157,
          "duration": 0.19230775000000122
        },
        {
          "name": "E3",
          "midi": 52,
          "time": 17.69231300000001,
          "velocity": 0.5039370078740157,
          "duration": 0.19230775000000122
        },
        {
          "name": "D3",
          "midi": 50,
          "time": 17.88462075000001,
          "velocity": 0.5039370078740157,
          "duration": 0.19230775000000122
        },
        {
          "name": "G3",
          "midi": 55,
          "time": 18.07692850000001,
          "velocity": 0.5039370078740157,
          "duration": 0.3846154999999989
        },
        {
          "name": "A#3",
          "midi": 58,
          "time": 18.46154400000001,
          "velocity": 0.5039370078740157,
          "duration": 0.5769232500000001
        },
        {
          "name": "A3",
          "midi": 57,
          "time": 19.03846725000001,
          "velocity": 0.5039370078740157,
          "duration": 0.19230775000000122
        },
        {
          "name": "G3",
          "midi": 55,
          "time": 19.230775000000012,
          "velocity": 0.5039370078740157,
          "duration": 0.19230775000000122
        },
        {
          "name": "A3",
          "midi": 57,
          "time": 19.423082750000013,
          "velocity": 0.5039370078740157,
          "duration": 0.19230775000000122
        },
        {
          "name": "A3",
          "midi": 57,
          "time": 19.615390500000014,
          "velocity": 0.5039370078740157,
          "duration": 0.19230775000000122
        },
        {
          "name": "G3",
          "midi": 55,
          "time": 19.807698250000016,
          "velocity": 0.5039370078740157,
          "duration": 0.19230775000000122
        },
        {
          "name": "F3",
          "midi": 53,
          "time": 20.000006000000017,
          "velocity": 0.5039370078740157,
          "duration": 0.19230775000000122
        },
        {
          "name": "G3",
          "midi": 55,
          "time": 20.192313750000018,
          "velocity": 0.5039370078740157,
          "duration": 0.19230775000000122
        },
        {
          "name": "G3",
          "midi": 55,
          "time": 20.38462150000002,
          "velocity": 0.5039370078740157,
          "duration": 0.19230775000000122
        },
        {
          "name": "F3",
          "midi": 53,
          "time": 20.57692925000002,
          "velocity": 0.5039370078740157,
          "duration": 0.19230775000000122
        },
        {
          "name": "E3",
          "midi": 52,
          "time": 20.76923700000002,
          "velocity": 0.5039370078740157,
          "duration": 0.19230775000000122
        },
        {
          "name": "F3",
          "midi": 53,
          "time": 20.961544750000023,
          "velocity": 0.5039370078740157,
          "duration": 0.19230775000000122
        },
        {
          "name": "A3",
          "midi": 57,
          "time": 21.153852500000024,
          "velocity": 0.5039370078740157,
          "duration": 0.19230775000000122
        },
        {
          "name": "G3",
          "midi": 55,
          "time": 21.346160250000025,
          "velocity": 0.5039370078740157,
          "duration": 0.19230775000000122
        },
        {
          "name": "F3",
          "midi": 53,
          "time": 21.538468000000027,
          "velocity": 0.5039370078740157,
          "duration": 0.19230775000000122
        },
        {
          "name": "G3",
          "midi": 55,
          "time": 21.730775750000028,
          "velocity": 0.5039370078740157,
          "duration": 0.19230775000000122
        },
        {
          "name": "G3",
          "midi": 55,
          "time": 21.92308350000003,
          "velocity": 0.5039370078740157,
          "duration": 0.19230775000000122
        },
        {
          "name": "F3",
          "midi": 53,
          "time": 22.11539125000003,
          "velocity": 0.5039370078740157,
          "duration": 0.19230775000000122
        },
        {
          "name": "E3",
          "midi": 52,
          "time": 22.30769900000003,
          "velocity": 0.5039370078740157,
          "duration": 0.19230775000000122
        },
        {
          "name": "F3",
          "midi": 53,
          "time": 22.500006750000033,
          "velocity": 0.5039370078740157,
          "duration": 0.19230775000000122
        },
        {
          "name": "F3",
          "midi": 53,
          "time": 22.692314500000034,
          "velocity": 0.5039370078740157,
          "duration": 0.19230775000000122
        },
        {
          "name": "E3",
          "midi": 52,
          "time": 22.884622250000035,
          "velocity": 0.5039370078740157,
          "duration": 0.19230775000000122
        },
        {
          "name": "D3",
          "midi": 50,
          "time": 23.076930000000036,
          "velocity": 0.5039370078740157,
          "duration": 0.19230775000000122
        },
        {
          "name": "E3",
          "midi": 52,
          "time": 23.269237750000038,
          "velocity": 0.5039370078740157,
          "duration": 0.19230775000000122
        },
        {
          "name": "G3",
          "midi": 55,
          "time": 23.46154550000004,
          "velocity": 0.5039370078740157,
          "duration": 0.19230775000000122
        },
        {
          "name": "F3",
          "midi": 53,
          "time": 23.65385325000004,
          "velocity": 0.5039370078740157,
          "duration": 0.19230775000000122
        },
        {
          "name": "D#3",
          "midi": 51,
          "time": 23.84616100000004,
          "velocity": 0.5039370078740157,
          "duration": 0.19230775000000122
        },
        {
          "name": "F3",
          "midi": 53,
          "time": 24.038468750000042,
          "velocity": 0.5039370078740157,
          "duration": 0.19230775000000122
        },
        {
          "name": "F3",
          "midi": 53,
          "time": 24.230776500000044,
          "velocity": 0.5039370078740157,
          "duration": 0.19230775000000122
        },
        {
          "name": "D#3",
          "midi": 51,
          "time": 24.423084250000045,
          "velocity": 0.5039370078740157,
          "duration": 0.19230775000000122
        },
        {
          "name": "D3",
          "midi": 50,
          "time": 24.615392000000046,
          "velocity": 0.5039370078740157,
          "duration": 0.19230775000000122
        },
        {
          "name": "D#3",
          "midi": 51,
          "time": 24.807699750000047,
          "velocity": 0.5039370078740157,
          "duration": 0.19230775000000122
        },
        {
          "name": "D#3",
          "midi": 51,
          "time": 25.00000750000005,
          "velocity": 0.5039370078740157,
          "duration": 0.19230775000000122
        },
        {
          "name": "D3",
          "midi": 50,
          "time": 25.19231525000005,
          "velocity": 0.5039370078740157,
          "duration": 0.19230775000000122
        },
        {
          "name": "C#3",
          "midi": 49,
          "time": 25.38462300000005,
          "velocity": 0.5039370078740157,
          "duration": 0.19230775000000122
        },
        {
          "name": "D3",
          "midi": 50,
          "time": 25.576930750000052,
          "velocity": 0.5039370078740157,
          "duration": 0.19230775000000122
        },
        {
          "name": "A#3",
          "midi": 58,
          "time": 25.769238500000053,
          "velocity": 0.5039370078740157,
          "duration": 0.3846154999999989
        },
        {
          "name": "G3",
          "midi": 55,
          "time": 26.53846950000005,
          "velocity": 0.5039370078740157,
          "duration": 0.7692310000000013
        },
        {
          "name": "A3",
          "midi": 57,
          "time": 27.307700500000053,
          "velocity": 0.5039370078740157,
          "duration": 0.961538749999999
        },
        {
          "name": "G3",
          "midi": 55,
          "time": 28.26923925000005,
          "velocity": 0.5039370078740157,
          "duration": 0.19230775000000122
        },
        {
          "name": "F3",
          "midi": 53,
          "time": 28.461547000000053,
          "velocity": 0.5039370078740157,
          "duration": 0.19230775000000122
        },
        {
          "name": "E3",
          "midi": 52,
          "time": 28.653854750000054,
          "velocity": 0.5039370078740157,
          "duration": 0.19230775000000122
        },
        {
          "name": "G3",
          "midi": 55,
          "time": 28.846162500000055,
          "velocity": 0.5039370078740157,
          "duration": 0.19230775000000122
        },
        {
          "name": "F3",
          "midi": 53,
          "time": 29.038470250000056,
          "velocity": 0.5039370078740157,
          "duration": 0.19230775000000122
        },
        {
          "name": "E3",
          "midi": 52,
          "time": 29.230778000000058,
          "velocity": 0.5039370078740157,
          "duration": 0.19230775000000122
        },
        {
          "name": "D3",
          "midi": 50,
          "time": 29.42308575000006,
          "velocity": 0.5039370078740157,
          "duration": 0.19230775000000122
        },
        {
          "name": "E3",
          "midi": 52,
          "time": 29.61539350000006,
          "velocity": 0.5039370078740157,
          "duration": 0.3846154999999989
        },
        {
          "name": "C#3",
          "midi": 49,
          "time": 30.00000900000006,
          "velocity": 0.5039370078740157,
          "duration": 0.3846154999999989
        },
        {
          "name": "D3",
          "midi": 50,
          "time": 30.384624500000058,
          "velocity": 0.5039370078740157,
          "duration": 0.3846154999999989
        },
        {
          "name": "E3",
          "midi": 52,
          "time": 30.769240000000057,
          "velocity": 0.5039370078740157,
          "duration": 0.3846154999999989
        },
        {
          "name": "F3",
          "midi": 53,
          "time": 31.153855500000056,
          "velocity": 0.5039370078740157,
          "duration": 0.3846154999999989
        },
        {
          "name": "D3",
          "midi": 50,
          "time": 31.538471000000055,
          "velocity": 0.5039370078740157,
          "duration": 0.3846154999999989
        },
        {
          "name": "A3",
          "midi": 57,
          "time": 31.923086500000053,
          "velocity": 0.5039370078740157,
          "duration": 0.7692309999999978
        },
        {
          "name": "F#3",
          "midi": 54,
          "time": 32.69231750000005,
          "velocity": 0.5039370078740157,
          "duration": 0.38461550000000244
        },
        {
          "name": "E3",
          "midi": 52,
          "time": 33.076933000000054,
          "velocity": 0.5039370078740157,
          "duration": 0.38461550000000244
        },
        {
          "name": "D3",
          "midi": 50,
          "time": 33.461548500000056,
          "velocity": 0.5039370078740157,
          "duration": 0.38461550000000244
        },
        {
          "name": "F#3",
          "midi": 54,
          "time": 33.84616400000006,
          "velocity": 0.5039370078740157,
          "duration": 0.38461550000000244
        },
        {
          "name": "G3",
          "midi": 55,
          "time": 34.23077950000006,
          "velocity": 0.5039370078740157,
          "duration": 0.7692309999999978
        },
        {
          "name": "G#3",
          "midi": 56,
          "time": 35.00001050000006,
          "velocity": 0.5039370078740157,
          "duration": 0.38461550000000244
        },
        {
          "name": "F#3",
          "midi": 54,
          "time": 35.38462600000006,
          "velocity": 0.5039370078740157,
          "duration": 0.38461550000000244
        },
        {
          "name": "E3",
          "midi": 52,
          "time": 35.769241500000064,
          "velocity": 0.5039370078740157,
          "duration": 0.38461550000000244
        },
        {
          "name": "G#3",
          "midi": 56,
          "time": 36.153857000000066,
          "velocity": 0.5039370078740157,
          "duration": 0.38461550000000244
        },
        {
          "name": "A3",
          "midi": 57,
          "time": 36.53847250000007,
          "velocity": 0.5039370078740157,
          "duration": 0.38461550000000244
        },
        {
          "name": "A2",
          "midi": 45,
          "time": 36.92308800000007,
          "velocity": 0.5039370078740157,
          "duration": 0.38461550000000244
        },
        {
          "name": "B2",
          "midi": 47,
          "time": 37.30770350000007,
          "velocity": 0.5039370078740157,
          "duration": 0.38461550000000244
        },
        {
          "name": "C3",
          "midi": 48,
          "time": 37.692319000000076,
          "velocity": 0.5039370078740157,
          "duration": 0.38461550000000244
        },
        {
          "name": "D3",
          "midi": 50,
          "time": 38.07693450000008,
          "velocity": 0.5039370078740157,
          "duration": 0.38461550000000244
        },
        {
          "name": "B2",
          "midi": 47,
          "time": 38.46155000000008,
          "velocity": 0.5039370078740157,
          "duration": 0.38461550000000244
        },
        {
          "name": "C#3",
          "midi": 49,
          "time": 38.84616550000008,
          "velocity": 0.5039370078740157,
          "duration": 0.19230774999999767
        },
        {
          "name": "A2",
          "midi": 45,
          "time": 39.03847325000008,
          "velocity": 0.5039370078740157,
          "duration": 0.19230774999999767
        },
        {
          "name": "G#2",
          "midi": 44,
          "time": 39.23078100000008,
          "velocity": 0.5039370078740157,
          "duration": 0.19230774999999767
        },
        {
          "name": "A2",
          "midi": 45,
          "time": 39.423088750000076,
          "velocity": 0.5039370078740157,
          "duration": 0.19230774999999767
        },
        {
          "name": "F3",
          "midi": 53,
          "time": 39.615396500000074,
          "velocity": 0.5039370078740157,
          "duration": 0.7692309999999978
        },
        {
          "name": "D3",
          "midi": 50,
          "time": 40.38462750000007,
          "velocity": 0.5039370078740157,
          "duration": 0.7692309999999978
        },
        {
          "name": "E3",
          "midi": 52,
          "time": 41.15385850000007,
          "velocity": 0.5039370078740157,
          "duration": 0.38461550000000244
        },
        {
          "name": "F3",
          "midi": 53,
          "time": 41.53847400000007,
          "velocity": 0.5039370078740157,
          "duration": 0.38461550000000244
        },
        {
          "name": "E3",
          "midi": 52,
          "time": 41.923089500000074,
          "velocity": 0.5039370078740157,
          "duration": 0.19230774999999767
        },
        {
          "name": "D3",
          "midi": 50,
          "time": 42.11539725000007,
          "velocity": 0.5039370078740157,
          "duration": 0.19230774999999767
        },
        {
          "name": "C3",
          "midi": 48,
          "time": 42.30770500000007,
          "velocity": 0.5039370078740157,
          "duration": 0.19230774999999767
        },
        {
          "name": "D3",
          "midi": 50,
          "time": 42.50001275000007,
          "velocity": 0.5039370078740157,
          "duration": 0.19230774999999767
        },
        {
          "name": "D3",
          "midi": 50,
          "time": 42.692320500000065,
          "velocity": 0.5039370078740157,
          "duration": 0.19230774999999767
        },
        {
          "name": "C3",
          "midi": 48,
          "time": 42.88462825000006,
          "velocity": 0.5039370078740157,
          "duration": 0.19230774999999767
        },
        {
          "name": "B2",
          "midi": 47,
          "time": 43.07693600000006,
          "velocity": 0.5039370078740157,
          "duration": 0.19230774999999767
        },
        {
          "name": "C3",
          "midi": 48,
          "time": 43.26924375000006,
          "velocity": 0.5039370078740157,
          "duration": 0.19230774999999767
        },
        {
          "name": "C3",
          "midi": 48,
          "time": 43.461551500000056,
          "velocity": 0.5039370078740157,
          "duration": 0.38461550000000244
        },
        {
          "name": "D3",
          "midi": 50,
          "time": 43.84616700000006,
          "velocity": 0.5039370078740157,
          "duration": 0.38461550000000244
        },
        {
          "name": "E3",
          "midi": 52,
          "time": 44.23078250000006,
          "velocity": 0.5039370078740157,
          "duration": 0.38461550000000244
        },
        {
          "name": "D3",
          "midi": 50,
          "time": 44.61539800000006,
          "velocity": 0.5039370078740157,
          "duration": 0.38461550000000244
        },
        {
          "name": "E3",
          "midi": 52,
          "time": 45.000013500000065,
          "velocity": 0.5039370078740157,
          "duration": 0.7692309999999978
        },
        {
          "name": "A3",
          "midi": 57,
          "time": 45.76924450000006,
          "velocity": 0.5039370078740157,
          "duration": 0.38461550000000244
        },
        {
          "name": "A2",
          "midi": 45,
          "time": 46.153860000000066,
          "velocity": 0.5039370078740157,
          "duration": 0.38461550000000244
        },
        {
          "name": "B2",
          "midi": 47,
          "time": 46.53847550000007,
          "velocity": 0.5039370078740157,
          "duration": 0.38461550000000244
        },
        {
          "name": "C#3",
          "midi": 49,
          "time": 46.92309100000007,
          "velocity": 0.5039370078740157,
          "duration": 0.38461550000000244
        },
        {
          "name": "D3",
          "midi": 50,
          "time": 47.30770650000007,
          "velocity": 0.5039370078740157,
          "duration": 0.38461550000000244
        },
        {
          "name": "B2",
          "midi": 47,
          "time": 47.692322000000075,
          "velocity": 0.5039370078740157,
          "duration": 0.38461550000000244
        },
        {
          "name": "C#3",
          "midi": 49,
          "time": 48.07693750000008,
          "velocity": 0.5039370078740157,
          "duration": 0.19230774999999767
        },
        {
          "name": "A2",
          "midi": 45,
          "time": 48.269245250000075,
          "velocity": 0.5039370078740157,
          "duration": 0.19230774999999767
        },
        {
          "name": "G#2",
          "midi": 44,
          "time": 48.46155300000007,
          "velocity": 0.5039370078740157,
          "duration": 0.19230774999999767
        },
        {
          "name": "A2",
          "midi": 45,
          "time": 48.65386075000007,
          "velocity": 0.5039370078740157,
          "duration": 0.19230774999999767
        },
        {
          "name": "F3",
          "midi": 53,
          "time": 48.84616850000007,
          "velocity": 0.5039370078740157,
          "duration": 0.38461550000000244
        },
        {
          "name": "D3",
          "midi": 50,
          "time": 49.61539950000007,
          "velocity": 0.5039370078740157,
          "duration": 0.7692309999999978
        },
        {
          "name": "A3",
          "midi": 57,
          "time": 50.38463050000007,
          "velocity": 0.5039370078740157,
          "duration": 0.38461550000000244
        },
        {
          "name": "F3",
          "midi": 53,
          "time": 50.769246000000074,
          "velocity": 0.5039370078740157,
          "duration": 0.38461550000000244
        },
        {
          "name": "E3",
          "midi": 52,
          "time": 51.153861500000076,
          "velocity": 0.5039370078740157,
          "duration": 0.38461550000000244
        },
        {
          "name": "D3",
          "midi": 50,
          "time": 51.53847700000008,
          "velocity": 0.5039370078740157,
          "duration": 0.38461550000000244
        },
        {
          "name": "C#3",
          "midi": 49,
          "time": 51.92309250000008,
          "velocity": 0.5039370078740157,
          "duration": 0.38461550000000244
        },
        {
          "name": "E3",
          "midi": 52,
          "time": 52.30770800000008,
          "velocity": 0.5039370078740157,
          "duration": 0.38461550000000244
        },
        {
          "name": "D3",
          "midi": 50,
          "time": 52.692323500000086,
          "velocity": 0.5039370078740157,
          "duration": 0.19230774999999767
        },
        {
          "name": "F3",
          "midi": 53,
          "time": 52.88463125000008,
          "velocity": 0.5039370078740157,
          "duration": 0.19230774999999767
        },
        {
          "name": "G3",
          "midi": 55,
          "time": 53.07693900000008,
          "velocity": 0.5039370078740157,
          "duration": 0.19230774999999767
        },
        {
          "name": "F3",
          "midi": 53,
          "time": 53.26924675000008,
          "velocity": 0.5039370078740157,
          "duration": 0.19230774999999767
        },
        {
          "name": "A2",
          "midi": 45,
          "time": 53.46155450000008,
          "velocity": 0.5039370078740157,
          "duration": 0.38461550000000244
        },
        {
          "name": "C#3",
          "midi": 49,
          "time": 54.23078550000008,
          "velocity": 0.5039370078740157,
          "duration": 0.7692309999999978
        },
        {
          "name": "D3",
          "midi": 50,
          "time": 55.00001650000008,
          "velocity": 0.5039370078740157,
          "duration": 2.3076930000000004
        },
        {
          "name": "G3",
          "midi": 55,
          "time": 57.69232500000008,
          "velocity": 0.5039370078740157,
          "duration": 0.38461550000000244
        },
        {
          "name": "F#3",
          "midi": 54,
          "time": 58.076940500000084,
          "velocity": 0.5039370078740157,
          "duration": 0.38461550000000244
        },
        {
          "name": "E3",
          "midi": 52,
          "time": 58.46155600000009,
          "velocity": 0.5039370078740157,
          "duration": 0.38461550000000244
        },
        {
          "name": "D3",
          "midi": 50,
          "time": 58.84617150000009,
          "velocity": 0.5039370078740157,
          "duration": 0.38461550000000244
        },
        {
          "name": "F3",
          "midi": 53,
          "time": 59.23078700000009,
          "velocity": 0.5039370078740157,
          "duration": 0.38461550000000244
        },
        {
          "name": "E3",
          "midi": 52,
          "time": 59.615402500000094,
          "velocity": 0.5039370078740157,
          "duration": 0.9615387500000026
        },
        {
          "name": "D3",
          "midi": 50,
          "time": 60.5769412500001,
          "velocity": 0.5039370078740157,
          "duration": 0.19230774999999767
        },
        {
          "name": "C#3",
          "midi": 49,
          "time": 60.769249000000094,
          "velocity": 0.5039370078740157,
          "duration": 0.19230774999999767
        },
        {
          "name": "B2",
          "midi": 47,
          "time": 60.96155675000009,
          "velocity": 0.5039370078740157,
          "duration": 0.19230774999999767
        },
        {
          "name": "D3",
          "midi": 50,
          "time": 61.15386450000009,
          "velocity": 0.5039370078740157,
          "duration": 0.19230774999999767
        },
        {
          "name": "C#3",
          "midi": 49,
          "time": 61.34617225000009,
          "velocity": 0.5039370078740157,
          "duration": 0.19230774999999767
        },
        {
          "name": "B2",
          "midi": 47,
          "time": 61.538480000000085,
          "velocity": 0.5039370078740157,
          "duration": 0.19230774999999767
        },
        {
          "name": "A2",
          "midi": 45,
          "time": 61.73078775000008,
          "velocity": 0.5039370078740157,
          "duration": 0.19230774999999767
        },
        {
          "name": "D3",
          "midi": 50,
          "time": 61.92309550000008,
          "velocity": 0.5039370078740157,
          "duration": 0.7692309999999978
        },
        {
          "name": "A3",
          "midi": 57,
          "time": 64.61540400000008,
          "velocity": 0.5039370078740157,
          "duration": 0.38461549999999534
        },
        {
          "name": "G3",
          "midi": 55,
          "time": 65.00001950000008,
          "velocity": 0.5039370078740157,
          "duration": 0.38461549999999534
        },
        {
          "name": "F3",
          "midi": 53,
          "time": 65.38463500000007,
          "velocity": 0.5039370078740157,
          "duration": 0.38461549999999534
        },
        {
          "name": "E3",
          "midi": 52,
          "time": 65.76925050000007,
          "velocity": 0.5039370078740157,
          "duration": 0.38461549999999534
        },
        {
          "name": "G3",
          "midi": 55,
          "time": 66.15386600000006,
          "velocity": 0.5039370078740157,
          "duration": 0.38461549999999534
        },
        {
          "name": "F#3",
          "midi": 54,
          "time": 66.53848150000006,
          "velocity": 0.5039370078740157,
          "duration": 0.19230774999999767
        },
        {
          "name": "A3",
          "midi": 57,
          "time": 66.73078925000006,
          "velocity": 0.5039370078740157,
          "duration": 0.19230774999999767
        },
        {
          "name": "A#3",
          "midi": 58,
          "time": 66.92309700000006,
          "velocity": 0.5039370078740157,
          "duration": 0.19230774999999767
        },
        {
          "name": "A3",
          "midi": 57,
          "time": 67.11540475000005,
          "velocity": 0.5039370078740157,
          "duration": 0.19230774999999767
        },
        {
          "name": "D3",
          "midi": 50,
          "time": 67.30771250000005,
          "velocity": 0.5039370078740157,
          "duration": 0.38461549999999534
        },
        {
          "name": "F#3",
          "midi": 54,
          "time": 68.07694350000004,
          "velocity": 0.5039370078740157,
          "duration": 0.38461549999999534
        },
        {
          "name": "G2",
          "midi": 43,
          "time": 68.84617450000003,
          "velocity": 0.5039370078740157,
          "duration": 0.7692310000000049
        },
        {
          "name": "C3",
          "midi": 48,
          "time": 69.61540550000004,
          "velocity": 0.5039370078740157,
          "duration": 0.38461549999999534
        },
        {
          "name": "E3",
          "midi": 52,
          "time": 70.38463650000003,
          "velocity": 0.5039370078740157,
          "duration": 0.38461549999999534
        },
        {
          "name": "F2",
          "midi": 41,
          "time": 71.15386750000002,
          "velocity": 0.5039370078740157,
          "duration": 0.7692310000000049
        },
        {
          "name": "A#2",
          "midi": 46,
          "time": 71.92309850000002,
          "velocity": 0.5039370078740157,
          "duration": 0.38461549999999534
        },
        {
          "name": "D3",
          "midi": 50,
          "time": 72.69232950000001,
          "velocity": 0.5039370078740157,
          "duration": 0.38461549999999534
        },
        {
          "name": "E3",
          "midi": 52,
          "time": 73.4615605,
          "velocity": 0.5039370078740157,
          "duration": 2.3076930000000004
        },
        {
          "name": "F3",
          "midi": 53,
          "time": 75.7692535,
          "velocity": 0.5039370078740157,
          "duration": 0.38461549999999534
        },
        {
          "name": "D3",
          "midi": 50,
          "time": 76.153869,
          "velocity": 0.5039370078740157,
          "duration": 0.38461549999999534
        },
        {
          "name": "E3",
          "midi": 52,
          "time": 76.5384845,
          "velocity": 0.5039370078740157,
          "duration": 0.38461549999999534
        },
        {
          "name": "F#3",
          "midi": 54,
          "time": 76.92309999999999,
          "velocity": 0.5039370078740157,
          "duration": 0.38461549999999534
        },
        {
          "name": "G3",
          "midi": 55,
          "time": 77.30771549999999,
          "velocity": 0.5039370078740157,
          "duration": 0.38461549999999534
        },
        {
          "name": "E3",
          "midi": 52,
          "time": 77.69233099999998,
          "velocity": 0.5039370078740157,
          "duration": 0.38461549999999534
        },
        {
          "name": "F#3",
          "midi": 54,
          "time": 78.07694649999998,
          "velocity": 0.5039370078740157,
          "duration": 0.19230774999999767
        },
        {
          "name": "D3",
          "midi": 50,
          "time": 78.26925424999997,
          "velocity": 0.5039370078740157,
          "duration": 0.19230774999999767
        },
        {
          "name": "C#3",
          "midi": 49,
          "time": 78.46156199999997,
          "velocity": 0.5039370078740157,
          "duration": 0.19230774999999767
        },
        {
          "name": "D3",
          "midi": 50,
          "time": 78.65386974999997,
          "velocity": 0.5039370078740157,
          "duration": 0.19230774999999767
        },
        {
          "name": "A#3",
          "midi": 58,
          "time": 78.84617749999997,
          "velocity": 0.5039370078740157,
          "duration": 0.38461549999999534
        },
        {
          "name": "A3",
          "midi": 57,
          "time": 79.23079299999996,
          "velocity": 0.5039370078740157,
          "duration": 0.38461549999999534
        },
        {
          "name": "G3",
          "midi": 55,
          "time": 79.61540849999996,
          "velocity": 0.5039370078740157,
          "duration": 0.38461549999999534
        },
        {
          "name": "A#3",
          "midi": 58,
          "time": 80.00002399999995,
          "velocity": 0.5039370078740157,
          "duration": 0.38461549999999534
        },
        {
          "name": "A3",
          "midi": 57,
          "time": 80.38463949999995,
          "velocity": 0.5039370078740157,
          "duration": 0.38461549999999534
        },
        {
          "name": "G3",
          "midi": 55,
          "time": 80.76925499999994,
          "velocity": 0.5039370078740157,
          "duration": 0.38461549999999534
        },
        {
          "name": "F#3",
          "midi": 54,
          "time": 81.15387049999994,
          "velocity": 0.5039370078740157,
          "duration": 0.38461549999999534
        },
        {
          "name": "E3",
          "midi": 52,
          "time": 81.53848599999993,
          "velocity": 0.5039370078740157,
          "duration": 0.38461549999999534
        },
        {
          "name": "D3",
          "midi": 50,
          "time": 81.92310149999993,
          "velocity": 0.5039370078740157,
          "duration": 0.38461549999999534
        },
        {
          "name": "F#3",
          "midi": 54,
          "time": 82.30771699999993,
          "velocity": 0.5039370078740157,
          "duration": 0.38461549999999534
        },
        {
          "name": "G2",
          "midi": 43,
          "time": 82.69233249999992,
          "velocity": 0.5039370078740157,
          "duration": 0.38461549999999534
        },
        {
          "name": "A3",
          "midi": 57,
          "time": 83.07694799999992,
          "velocity": 0.5039370078740157,
          "duration": 0.38461549999999534
        },
        {
          "name": "G#3",
          "midi": 56,
          "time": 83.46156349999991,
          "velocity": 0.5039370078740157,
          "duration": 0.38461549999999534
        },
        {
          "name": "F#3",
          "midi": 54,
          "time": 83.8461789999999,
          "velocity": 0.5039370078740157,
          "duration": 0.38461549999999534
        },
        {
          "name": "E3",
          "midi": 52,
          "time": 84.2307944999999,
          "velocity": 0.5039370078740157,
          "duration": 0.38461549999999534
        },
        {
          "name": "G#3",
          "midi": 56,
          "time": 84.6154099999999,
          "velocity": 0.5039370078740157,
          "duration": 0.38461549999999534
        },
        {
          "name": "A2",
          "midi": 45,
          "time": 85.0000254999999,
          "velocity": 0.5039370078740157,
          "duration": 0.38461549999999534
        },
        {
          "name": "D4",
          "midi": 62,
          "time": 85.38464099999989,
          "velocity": 0.5039370078740157,
          "duration": 0.38461549999999534
        },
        {
          "name": "C#4",
          "midi": 61,
          "time": 85.76925649999988,
          "velocity": 0.5039370078740157,
          "duration": 0.38461549999999534
        },
        {
          "name": "B3",
          "midi": 59,
          "time": 86.15387199999988,
          "velocity": 0.5039370078740157,
          "duration": 0.38461549999999534
        },
        {
          "name": "A3",
          "midi": 57,
          "time": 86.53848749999987,
          "velocity": 0.5039370078740157,
          "duration": 0.38461549999999534
        },
        {
          "name": "C#4",
          "midi": 61,
          "time": 86.92310299999987,
          "velocity": 0.5039370078740157,
          "duration": 0.38461549999999534
        },
        {
          "name": "D4",
          "midi": 62,
          "time": 87.30771849999987,
          "velocity": 0.5039370078740157,
          "duration": 0.38461549999999534
        },
        {
          "name": "D3",
          "midi": 50,
          "time": 87.69233399999986,
          "velocity": 0.5039370078740157,
          "duration": 0.38461549999999534
        },
        {
          "name": "E3",
          "midi": 52,
          "time": 88.07694949999986,
          "velocity": 0.5039370078740157,
          "duration": 0.38461549999999534
        },
        {
          "name": "F3",
          "midi": 53,
          "time": 88.46156499999985,
          "velocity": 0.5039370078740157,
          "duration": 0.38461549999999534
        },
        {
          "name": "G3",
          "midi": 55,
          "time": 88.84618049999985,
          "velocity": 0.5039370078740157,
          "duration": 0.38461549999999534
        },
        {
          "name": "E3",
          "midi": 52,
          "time": 89.23079599999984,
          "velocity": 0.5039370078740157,
          "duration": 0.38461549999999534
        },
        {
          "name": "F#3",
          "midi": 54,
          "time": 89.61541149999984,
          "velocity": 0.5039370078740157,
          "duration": 0.19230774999999767
        },
        {
          "name": "D3",
          "midi": 50,
          "time": 89.80771924999983,
          "velocity": 0.5039370078740157,
          "duration": 0.19230774999999767
        },
        {
          "name": "C#3",
          "midi": 49,
          "time": 90.00002699999983,
          "velocity": 0.5039370078740157,
          "duration": 0.19230774999999767
        },
        {
          "name": "D3",
          "midi": 50,
          "time": 90.19233474999983,
          "velocity": 0.5039370078740157,
          "duration": 0.19230774999999767
        },
        {
          "name": "A#3",
          "midi": 58,
          "time": 90.38464249999983,
          "velocity": 0.5039370078740157,
          "duration": 0.38461549999999534
        },
        {
          "name": "G3",
          "midi": 55,
          "time": 91.15387349999982,
          "velocity": 0.5039370078740157,
          "duration": 0.7692310000000049
        },
        {
          "name": "A3",
          "midi": 57,
          "time": 91.92310449999982,
          "velocity": 0.5039370078740157,
          "duration": 0.38461549999999534
        },
        {
          "name": "A#3",
          "midi": 58,
          "time": 92.30771999999982,
          "velocity": 0.5039370078740157,
          "duration": 0.38461549999999534
        },
        {
          "name": "A3",
          "midi": 57,
          "time": 92.69233549999981,
          "velocity": 0.5039370078740157,
          "duration": 0.19230774999999767
        },
        {
          "name": "G3",
          "midi": 55,
          "time": 92.88464324999981,
          "velocity": 0.5039370078740157,
          "duration": 0.19230774999999767
        },
        {
          "name": "F3",
          "midi": 53,
          "time": 93.07695099999981,
          "velocity": 0.5039370078740157,
          "duration": 0.19230774999999767
        },
        {
          "name": "G3",
          "midi": 55,
          "time": 93.2692587499998,
          "velocity": 0.5039370078740157,
          "duration": 0.19230774999999767
        },
        {
          "name": "G3",
          "midi": 55,
          "time": 93.4615664999998,
          "velocity": 0.5039370078740157,
          "duration": 0.19230774999999767
        },
        {
          "name": "F3",
          "midi": 53,
          "time": 93.6538742499998,
          "velocity": 0.5039370078740157,
          "duration": 0.19230774999999767
        },
        {
          "name": "E3",
          "midi": 52,
          "time": 93.8461819999998,
          "velocity": 0.5039370078740157,
          "duration": 0.19230774999999767
        },
        {
          "name": "F3",
          "midi": 53,
          "time": 94.0384897499998,
          "velocity": 0.5039370078740157,
          "duration": 0.19230774999999767
        },
        {
          "name": "F3",
          "midi": 53,
          "time": 94.2307974999998,
          "velocity": 0.5039370078740157,
          "duration": 0.38461549999999534
        },
        {
          "name": "G3",
          "midi": 55,
          "time": 94.61541299999979,
          "velocity": 0.5039370078740157,
          "duration": 0.38461549999999534
        },
        {
          "name": "A3",
          "midi": 57,
          "time": 95.00002849999979,
          "velocity": 0.5039370078740157,
          "duration": 0.38461549999999534
        },
        {
          "name": "G3",
          "midi": 55,
          "time": 95.38464399999978,
          "velocity": 0.5039370078740157,
          "duration": 0.38461549999999534
        },
        {
          "name": "A3",
          "midi": 57,
          "time": 95.76925949999978,
          "velocity": 0.5039370078740157,
          "duration": 0.7692310000000049
        },
        {
          "name": "D3",
          "midi": 50,
          "time": 96.53849049999978,
          "velocity": 0.5039370078740157,
          "duration": 2.3076930000000004
        },
        {
          "name": "D3",
          "midi": 50,
          "time": 98.84618349999978,
          "velocity": 0.5039370078740157,
          "duration": 2.3076930000000004
        }
      ],
      "controlChanges": {},
      "id": 3,
      "channelNumber": 0,
      "isPercussion": false
    }
  ]
}