{
  "header": {
            "PPQ": 120,
            "bpm": 61.99999586666694,
            "timeSignature": [
              4,
              4
            ],
            "name": ""
          },
  "startTime": 0,
  "duration": 104.03226499999982,
  "tracks": [
    {
      "startTime": 0,
      "duration": 0,
      "length": 0,
      "notes": [],
      "controlChanges": {},
      "id": 0
    },
    {
      "startTime": 5.806452,
      "duration": 104.0322649999997,
      "length": 219,
      "notes": [
        {
          "name": "G4",
          "midi": 67,
          "time": 5.806452,
          "velocity": 0.5039370078740157,
          "duration": 0.4838709999999997
        },
        {
          "name": "A4",
          "midi": 69,
          "time": 6.290323,
          "velocity": 0.5039370078740157,
          "duration": 0.4838709999999997
        },
        {
          "name": "B4",
          "midi": 71,
          "time": 6.774194,
          "velocity": 0.5039370078740157,
          "duration": 0.4838709999999997
        },
        {
          "name": "C5",
          "midi": 72,
          "time": 7.258064999999999,
          "velocity": 0.5039370078740157,
          "duration": 0.7258065
        },
        {
          "name": "D5",
          "midi": 74,
          "time": 7.983871499999999,
          "velocity": 0.5039370078740157,
          "duration": 0.12096775000000015
        },
        {
          "name": "C5",
          "midi": 72,
          "time": 8.10483925,
          "velocity": 0.5039370078740157,
          "duration": 0.12096775000000015
        },
        {
          "name": "B4",
          "midi": 71,
          "time": 8.225807,
          "velocity": 0.5039370078740157,
          "duration": 0.4838710000000006
        },
        {
          "name": "E5",
          "midi": 76,
          "time": 8.709678,
          "velocity": 0.5039370078740157,
          "duration": 0.4838710000000006
        },
        {
          "name": "A4",
          "midi": 69,
          "time": 9.193549,
          "velocity": 0.5039370078740157,
          "duration": 0.4838710000000006
        },
        {
          "name": "D5",
          "midi": 74,
          "time": 9.677420000000001,
          "velocity": 0.5039370078740157,
          "duration": 0.7258065000000009
        },
        {
          "name": "E5",
          "midi": 76,
          "time": 10.403226500000002,
          "velocity": 0.5039370078740157,
          "duration": 0.2419355000000003
        },
        {
          "name": "D5",
          "midi": 74,
          "time": 10.645162000000003,
          "velocity": 0.5039370078740157,
          "duration": 0.2419355000000003
        },
        {
          "name": "C5",
          "midi": 72,
          "time": 10.887097500000003,
          "velocity": 0.5039370078740157,
          "duration": 0.2419355000000003
        },
        {
          "name": "B4",
          "midi": 71,
          "time": 11.129033000000003,
          "velocity": 0.5039370078740157,
          "duration": 0.2419355000000003
        },
        {
          "name": "G4",
          "midi": 67,
          "time": 11.370968500000004,
          "velocity": 0.5039370078740157,
          "duration": 0.2419355000000003
        },
        {
          "name": "A4",
          "midi": 69,
          "time": 11.612904000000004,
          "velocity": 0.5039370078740157,
          "duration": 0.2419355000000003
        },
        {
          "name": "B4",
          "midi": 71,
          "time": 11.854839500000004,
          "velocity": 0.5039370078740157,
          "duration": 0.2419355000000003
        },
        {
          "name": "C5",
          "midi": 72,
          "time": 12.096775000000004,
          "velocity": 0.5039370078740157,
          "duration": 0.2419355000000003
        },
        {
          "name": "B4",
          "midi": 71,
          "time": 12.338710500000005,
          "velocity": 0.5039370078740157,
          "duration": 0.2419355000000003
        },
        {
          "name": "C5",
          "midi": 72,
          "time": 12.580646000000005,
          "velocity": 0.5039370078740157,
          "duration": 0.2419355000000003
        },
        {
          "name": "D5",
          "midi": 74,
          "time": 12.822581500000005,
          "velocity": 0.5039370078740157,
          "duration": 0.2419355000000003
        },
        {
          "name": "E5",
          "midi": 76,
          "time": 13.064517000000006,
          "velocity": 0.5039370078740157,
          "duration": 0.2419355000000003
        },
        {
          "name": "D5",
          "midi": 74,
          "time": 13.306452500000006,
          "velocity": 0.5039370078740157,
          "duration": 0.2419355000000003
        },
        {
          "name": "E5",
          "midi": 76,
          "time": 13.548388000000006,
          "velocity": 0.5039370078740157,
          "duration": 0.2419355000000003
        },
        {
          "name": "F#5",
          "midi": 78,
          "time": 13.790323500000007,
          "velocity": 0.5039370078740157,
          "duration": 0.2419355000000003
        },
        {
          "name": "G5",
          "midi": 79,
          "time": 14.032259000000007,
          "velocity": 0.5039370078740157,
          "duration": 0.4838710000000006
        },
        {
          "name": "B4",
          "midi": 71,
          "time": 14.516130000000008,
          "velocity": 0.5039370078740157,
          "duration": 0.4838710000000006
        },
        {
          "name": "C5",
          "midi": 72,
          "time": 15.000001000000008,
          "velocity": 0.5039370078740157,
          "duration": 0.4838710000000006
        },
        {
          "name": "A4",
          "midi": 69,
          "time": 15.483872000000009,
          "velocity": 0.5039370078740157,
          "duration": 0.4838710000000006
        },
        {
          "name": "D5",
          "midi": 74,
          "time": 15.96774300000001,
          "velocity": 0.5039370078740157,
          "duration": 0.2419355000000003
        },
        {
          "name": "C5",
          "midi": 72,
          "time": 16.20967850000001,
          "velocity": 0.5039370078740157,
          "duration": 0.2419355000000003
        },
        {
          "name": "B4",
          "midi": 71,
          "time": 16.45161400000001,
          "velocity": 0.5039370078740157,
          "duration": 0.2419355000000003
        },
        {
          "name": "A4",
          "midi": 69,
          "time": 16.69354950000001,
          "velocity": 0.5039370078740157,
          "duration": 0.2419355000000003
        },
        {
          "name": "G4",
          "midi": 67,
          "time": 16.93548500000001,
          "velocity": 0.5039370078740157,
          "duration": 0.7258065000000009
        },
        {
          "name": "G4",
          "midi": 67,
          "time": 17.66129150000001,
          "velocity": 0.5039370078740157,
          "duration": 0.2419355000000003
        },
        {
          "name": "F4",
          "midi": 65,
          "time": 17.90322700000001,
          "velocity": 0.5039370078740157,
          "duration": 0.2419355000000003
        },
        {
          "name": "E4",
          "midi": 64,
          "time": 18.145162500000012,
          "velocity": 0.5039370078740157,
          "duration": 0.2419355000000003
        },
        {
          "name": "F4",
          "midi": 65,
          "time": 18.387098000000012,
          "velocity": 0.5039370078740157,
          "duration": 0.2419355000000003
        },
        {
          "name": "G4",
          "midi": 67,
          "time": 18.629033500000013,
          "velocity": 0.5039370078740157,
          "duration": 0.2419355000000003
        },
        {
          "name": "A4",
          "midi": 69,
          "time": 18.870969000000013,
          "velocity": 0.5039370078740157,
          "duration": 0.2419355000000003
        },
        {
          "name": "G4",
          "midi": 67,
          "time": 19.112904500000013,
          "velocity": 0.5039370078740157,
          "duration": 0.2419355000000003
        },
        {
          "name": "A4",
          "midi": 69,
          "time": 19.354840000000014,
          "velocity": 0.5039370078740157,
          "duration": 0.2419355000000003
        },
        {
          "name": "B4",
          "midi": 71,
          "time": 19.596775500000014,
          "velocity": 0.5039370078740157,
          "duration": 0.2419355000000003
        },
        {
          "name": "C5",
          "midi": 72,
          "time": 19.838711000000014,
          "velocity": 0.5039370078740157,
          "duration": 1.9354839999999989
        },
        {
          "name": "B4",
          "midi": 71,
          "time": 21.774195000000013,
          "velocity": 0.5039370078740157,
          "duration": 0.9677420000000012
        },
        {
          "name": "C5",
          "midi": 72,
          "time": 23.225808000000015,
          "velocity": 0.5039370078740157,
          "duration": 0.4838710000000006
        },
        {
          "name": "D5",
          "midi": 74,
          "time": 23.709679000000015,
          "velocity": 0.5039370078740157,
          "duration": 0.4838710000000006
        },
        {
          "name": "E5",
          "midi": 76,
          "time": 24.193550000000016,
          "velocity": 0.5039370078740157,
          "duration": 0.4838710000000006
        },
        {
          "name": "F5",
          "midi": 77,
          "time": 24.677421000000017,
          "velocity": 0.5039370078740157,
          "duration": 0.7258065000000009
        },
        {
          "name": "G5",
          "midi": 79,
          "time": 25.403227500000018,
          "velocity": 0.5039370078740157,
          "duration": 0.12096774999999838
        },
        {
          "name": "F5",
          "midi": 77,
          "time": 25.524195250000016,
          "velocity": 0.5039370078740157,
          "duration": 0.12096774999999838
        },
        {
          "name": "E5",
          "midi": 76,
          "time": 25.645163000000014,
          "velocity": 0.5039370078740157,
          "duration": 0.4838710000000006
        },
        {
          "name": "A5",
          "midi": 81,
          "time": 26.129034000000015,
          "velocity": 0.5039370078740157,
          "duration": 0.4838710000000006
        },
        {
          "name": "D5",
          "midi": 74,
          "time": 26.612905000000016,
          "velocity": 0.5039370078740157,
          "duration": 0.4838710000000006
        },
        {
          "name": "G5",
          "midi": 79,
          "time": 27.096776000000016,
          "velocity": 0.5039370078740157,
          "duration": 0.7258065000000009
        },
        {
          "name": "A5",
          "midi": 81,
          "time": 27.822582500000017,
          "velocity": 0.5039370078740157,
          "duration": 0.2419355000000003
        },
        {
          "name": "G5",
          "midi": 79,
          "time": 28.064518000000017,
          "velocity": 0.5039370078740157,
          "duration": 0.2419355000000003
        },
        {
          "name": "F5",
          "midi": 77,
          "time": 28.306453500000018,
          "velocity": 0.5039370078740157,
          "duration": 0.2419355000000003
        },
        {
          "name": "E5",
          "midi": 76,
          "time": 28.548389000000018,
          "velocity": 0.5039370078740157,
          "duration": 0.4838710000000006
        },
        {
          "name": "A5",
          "midi": 81,
          "time": 29.03226000000002,
          "velocity": 0.5039370078740157,
          "duration": 0.7258065000000009
        },
        {
          "name": "B5",
          "midi": 83,
          "time": 29.75806650000002,
          "velocity": 0.5039370078740157,
          "duration": 0.2419355000000003
        },
        {
          "name": "A5",
          "midi": 81,
          "time": 30.00000200000002,
          "velocity": 0.5039370078740157,
          "duration": 0.2419355000000003
        },
        {
          "name": "G5",
          "midi": 79,
          "time": 30.24193750000002,
          "velocity": 0.5039370078740157,
          "duration": 0.2419355000000003
        },
        {
          "name": "F5",
          "midi": 77,
          "time": 30.48387300000002,
          "velocity": 0.5039370078740157,
          "duration": 1.9354839999999989
        },
        {
          "name": "E5",
          "midi": 76,
          "time": 32.41935700000002,
          "velocity": 0.5039370078740157,
          "duration": 0.4838710000000006
        },
        {
          "name": "E5",
          "midi": 76,
          "time": 32.41935700000002,
          "velocity": 0.5039370078740157,
          "duration": 0.7258064999999974
        },
        {
          "name": "F#5",
          "midi": 78,
          "time": 32.90322800000002,
          "velocity": 0.5039370078740157,
          "duration": 0.4838709999999935
        },
        {
          "name": "F#5",
          "midi": 78,
          "time": 33.14516350000002,
          "velocity": 0.5039370078740157,
          "duration": 0.24193549999999675
        },
        {
          "name": "G5",
          "midi": 79,
          "time": 33.38709900000001,
          "velocity": 0.5039370078740157,
          "duration": 1.9354840000000024
        },
        {
          "name": "F#5",
          "midi": 78,
          "time": 35.322583000000016,
          "velocity": 0.5039370078740157,
          "duration": 0.9677420000000012
        },
        {
          "name": "G5",
          "midi": 79,
          "time": 36.29032500000002,
          "velocity": 0.5039370078740157,
          "duration": 0.24193549999999675
        },
        {
          "name": "F5",
          "midi": 77,
          "time": 36.532260500000014,
          "velocity": 0.5039370078740157,
          "duration": 0.24193549999999675
        },
        {
          "name": "E5",
          "midi": 76,
          "time": 36.77419600000001,
          "velocity": 0.5039370078740157,
          "duration": 0.24193549999999675
        },
        {
          "name": "D5",
          "midi": 74,
          "time": 37.01613150000001,
          "velocity": 0.5039370078740157,
          "duration": 0.24193549999999675
        },
        {
          "name": "C5",
          "midi": 72,
          "time": 37.258067000000004,
          "velocity": 0.5039370078740157,
          "duration": 0.24193549999999675
        },
        {
          "name": "D5",
          "midi": 74,
          "time": 37.5000025,
          "velocity": 0.5039370078740157,
          "duration": 0.24193549999999675
        },
        {
          "name": "C5",
          "midi": 72,
          "time": 37.741938,
          "velocity": 0.5039370078740157,
          "duration": 0.24193549999999675
        },
        {
          "name": "B4",
          "midi": 71,
          "time": 37.983873499999994,
          "velocity": 0.5039370078740157,
          "duration": 0.24193549999999675
        },
        {
          "name": "A4",
          "midi": 69,
          "time": 38.22580899999999,
          "velocity": 0.5039370078740157,
          "duration": 0.24193549999999675
        },
        {
          "name": "C5",
          "midi": 72,
          "time": 38.46774449999999,
          "velocity": 0.5039370078740157,
          "duration": 0.24193549999999675
        },
        {
          "name": "B4",
          "midi": 71,
          "time": 38.709679999999985,
          "velocity": 0.5039370078740157,
          "duration": 0.24193549999999675
        },
        {
          "name": "A4",
          "midi": 69,
          "time": 38.95161549999998,
          "velocity": 0.5039370078740157,
          "duration": 0.24193549999999675
        },
        {
          "name": "G4",
          "midi": 67,
          "time": 39.19355099999998,
          "velocity": 0.5039370078740157,
          "duration": 0.4838710000000006
        },
        {
          "name": "C5",
          "midi": 72,
          "time": 40.403228499999976,
          "velocity": 0.5039370078740157,
          "duration": 0.24193549999999675
        },
        {
          "name": "B4",
          "midi": 71,
          "time": 40.64516399999997,
          "velocity": 0.5039370078740157,
          "duration": 0.24193549999999675
        },
        {
          "name": "A4",
          "midi": 69,
          "time": 40.88709949999997,
          "velocity": 0.5039370078740157,
          "duration": 0.24193549999999675
        },
        {
          "name": "G#4",
          "midi": 68,
          "time": 41.129034999999966,
          "velocity": 0.5039370078740157,
          "duration": 0.4838710000000006
        },
        {
          "name": "E5",
          "midi": 76,
          "time": 41.61290599999997,
          "velocity": 0.5039370078740157,
          "duration": 0.4838710000000006
        },
        {
          "name": "D5",
          "midi": 74,
          "time": 42.09677699999997,
          "velocity": 0.5039370078740157,
          "duration": 0.4838710000000006
        },
        {
          "name": "C5",
          "midi": 72,
          "time": 42.58064799999997,
          "velocity": 0.5039370078740157,
          "duration": 0.24193549999999675
        },
        {
          "name": "B4",
          "midi": 71,
          "time": 42.822583499999965,
          "velocity": 0.5039370078740157,
          "duration": 0.24193549999999675
        },
        {
          "name": "A4",
          "midi": 69,
          "time": 43.06451899999996,
          "velocity": 0.5039370078740157,
          "duration": 0.24193549999999675
        },
        {
          "name": "G#4",
          "midi": 68,
          "time": 43.30645449999996,
          "velocity": 0.5039370078740157,
          "duration": 0.24193549999999675
        },
        {
          "name": "A4",
          "midi": 69,
          "time": 43.548389999999955,
          "velocity": 0.5039370078740157,
          "duration": 0.24193549999999675
        },
        {
          "name": "B4",
          "midi": 71,
          "time": 43.79032549999995,
          "velocity": 0.5039370078740157,
          "duration": 0.24193549999999675
        },
        {
          "name": "C5",
          "midi": 72,
          "time": 44.03226099999995,
          "velocity": 0.5039370078740157,
          "duration": 0.24193549999999675
        },
        {
          "name": "F#4",
          "midi": 66,
          "time": 44.274196499999945,
          "velocity": 0.5039370078740157,
          "duration": 0.24193549999999675
        },
        {
          "name": "G#4",
          "midi": 68,
          "time": 44.51613199999994,
          "velocity": 0.5039370078740157,
          "duration": 0.24193549999999675
        },
        {
          "name": "A4",
          "midi": 69,
          "time": 44.51613199999994,
          "velocity": 0.5039370078740157,
          "duration": 0.24193549999999675
        },
        {
          "name": "A4",
          "midi": 69,
          "time": 44.75806749999994,
          "velocity": 0.5039370078740157,
          "duration": 0.24193549999999675
        },
        {
          "name": "G#4",
          "midi": 68,
          "time": 44.75806749999994,
          "velocity": 0.5039370078740157,
          "duration": 0.24193549999999675
        },
        {
          "name": "B4",
          "midi": 71,
          "time": 45.000002999999936,
          "velocity": 0.5039370078740157,
          "duration": 0.4838710000000006
        },
        {
          "name": "A4",
          "midi": 69,
          "time": 45.483873999999936,
          "velocity": 0.5039370078740157,
          "duration": 0.24193549999999675
        },
        {
          "name": "B4",
          "midi": 71,
          "time": 45.72580949999993,
          "velocity": 0.5039370078740157,
          "duration": 0.24193549999999675
        },
        {
          "name": "C5",
          "midi": 72,
          "time": 45.96774499999993,
          "velocity": 0.5039370078740157,
          "duration": 0.4838710000000006
        },
        {
          "name": "F5",
          "midi": 77,
          "time": 46.45161599999993,
          "velocity": 0.5039370078740157,
          "duration": 0.4838710000000006
        },
        {
          "name": "E5",
          "midi": 76,
          "time": 46.93548699999993,
          "velocity": 0.5039370078740157,
          "duration": 0.4838710000000006
        },
        {
          "name": "D5",
          "midi": 74,
          "time": 47.41935799999993,
          "velocity": 0.5039370078740157,
          "duration": 0.9677420000000012
        },
        {
          "name": "C5",
          "midi": 72,
          "time": 48.38709999999993,
          "velocity": 0.5039370078740157,
          "duration": 0.24193549999999675
        },
        {
          "name": "B4",
          "midi": 71,
          "time": 48.62903549999993,
          "velocity": 0.5039370078740157,
          "duration": 0.24193549999999675
        },
        {
          "name": "B4",
          "midi": 71,
          "time": 48.870970999999926,
          "velocity": 0.5039370078740157,
          "duration": 0.7258064999999974
        },
        {
          "name": "A4",
          "midi": 69,
          "time": 49.596777499999924,
          "velocity": 0.5039370078740157,
          "duration": 0.24193549999999675
        },
        {
          "name": "A4",
          "midi": 69,
          "time": 49.83871299999992,
          "velocity": 0.5039370078740157,
          "duration": 0.9677420000000012
        },
        {
          "name": "G4",
          "midi": 67,
          "time": 56.12903599999992,
          "velocity": 0.5039370078740157,
          "duration": 0.4838710000000006
        },
        {
          "name": "A4",
          "midi": 69,
          "time": 56.61290699999992,
          "velocity": 0.5039370078740157,
          "duration": 0.4838710000000006
        },
        {
          "name": "B4",
          "midi": 71,
          "time": 57.09677799999992,
          "velocity": 0.5039370078740157,
          "duration": 0.4838710000000006
        },
        {
          "name": "C5",
          "midi": 72,
          "time": 57.58064899999992,
          "velocity": 0.5039370078740157,
          "duration": 0.7258064999999974
        },
        {
          "name": "D5",
          "midi": 74,
          "time": 58.30645549999992,
          "velocity": 0.5039370078740157,
          "duration": 0.12096774999999838
        },
        {
          "name": "C5",
          "midi": 72,
          "time": 58.42742324999992,
          "velocity": 0.5039370078740157,
          "duration": 0.12096774999999838
        },
        {
          "name": "B4",
          "midi": 71,
          "time": 58.54839099999992,
          "velocity": 0.5039370078740157,
          "duration": 0.4838710000000006
        },
        {
          "name": "C5",
          "midi": 72,
          "time": 59.03226199999992,
          "velocity": 0.5039370078740157,
          "duration": 0.4838710000000006
        },
        {
          "name": "D5",
          "midi": 74,
          "time": 59.51613299999992,
          "velocity": 0.5039370078740157,
          "duration": 0.4838710000000006
        },
        {
          "name": "E5",
          "midi": 76,
          "time": 60.00000399999992,
          "velocity": 0.5039370078740157,
          "duration": 0.4838710000000006
        },
        {
          "name": "F5",
          "midi": 77,
          "time": 60.48387499999992,
          "velocity": 0.5039370078740157,
          "duration": 0.7258064999999974
        },
        {
          "name": "G5",
          "midi": 79,
          "time": 61.20968149999992,
          "velocity": 0.5039370078740157,
          "duration": 0.12096774999999838
        },
        {
          "name": "F5",
          "midi": 77,
          "time": 61.330649249999915,
          "velocity": 0.5039370078740157,
          "duration": 0.12096774999999838
        },
        {
          "name": "E5",
          "midi": 76,
          "time": 61.451616999999914,
          "velocity": 0.5039370078740157,
          "duration": 0.4838710000000006
        },
        {
          "name": "A5",
          "midi": 81,
          "time": 61.935487999999914,
          "velocity": 0.5039370078740157,
          "duration": 0.4838710000000006
        },
        {
          "name": "D5",
          "midi": 74,
          "time": 62.419358999999915,
          "velocity": 0.5039370078740157,
          "duration": 0.4838710000000006
        },
        {
          "name": "G5",
          "midi": 79,
          "time": 62.903229999999915,
          "velocity": 0.5039370078740157,
          "duration": 0.7258064999999974
        },
        {
          "name": "A5",
          "midi": 81,
          "time": 63.62903649999991,
          "velocity": 0.5039370078740157,
          "duration": 0.24193549999999675
        },
        {
          "name": "G5",
          "midi": 79,
          "time": 63.87097199999991,
          "velocity": 0.5039370078740157,
          "duration": 0.24193549999999675
        },
        {
          "name": "F5",
          "midi": 77,
          "time": 64.1129074999999,
          "velocity": 0.5039370078740157,
          "duration": 0.24193549999999675
        },
        {
          "name": "E5",
          "midi": 76,
          "time": 64.3548429999999,
          "velocity": 0.5039370078740157,
          "duration": 0.4838709999999935
        },
        {
          "name": "A5",
          "midi": 81,
          "time": 64.8387139999999,
          "velocity": 0.5039370078740157,
          "duration": 0.4838709999999935
        },
        {
          "name": "D5",
          "midi": 74,
          "time": 65.32258499999989,
          "velocity": 0.5039370078740157,
          "duration": 0.4838709999999935
        },
        {
          "name": "A#5",
          "midi": 82,
          "time": 65.80645599999988,
          "velocity": 0.5039370078740157,
          "duration": 0.4838709999999935
        },
        {
          "name": "A5",
          "midi": 81,
          "time": 66.29032699999988,
          "velocity": 0.5039370078740157,
          "duration": 0.4838709999999935
        },
        {
          "name": "G5",
          "midi": 79,
          "time": 66.77419799999987,
          "velocity": 0.5039370078740157,
          "duration": 0.24193549999999675
        },
        {
          "name": "F5",
          "midi": 77,
          "time": 67.01613349999987,
          "velocity": 0.5039370078740157,
          "duration": 0.24193549999999675
        },
        {
          "name": "G5",
          "midi": 79,
          "time": 67.25806899999986,
          "velocity": 0.5039370078740157,
          "duration": 0.24193549999999675
        },
        {
          "name": "F5",
          "midi": 77,
          "time": 67.50000449999986,
          "velocity": 0.5039370078740157,
          "duration": 0.24193549999999675
        },
        {
          "name": "G5",
          "midi": 79,
          "time": 67.74193999999986,
          "velocity": 0.5039370078740157,
          "duration": 0.24193549999999675
        },
        {
          "name": "E5",
          "midi": 76,
          "time": 67.98387549999985,
          "velocity": 0.5039370078740157,
          "duration": 0.24193549999999675
        },
        {
          "name": "F5",
          "midi": 77,
          "time": 68.22581099999985,
          "velocity": 0.5039370078740157,
          "duration": 0.24193549999999675
        },
        {
          "name": "G5",
          "midi": 79,
          "time": 68.46774649999985,
          "velocity": 0.5039370078740157,
          "duration": 0.24193549999999675
        },
        {
          "name": "G5",
          "midi": 79,
          "time": 68.70968199999984,
          "velocity": 0.5039370078740157,
          "duration": 0.24193549999999675
        },
        {
          "name": "F5",
          "midi": 77,
          "time": 68.95161749999984,
          "velocity": 0.5039370078740157,
          "duration": 0.12096775000000548
        },
        {
          "name": "G5",
          "midi": 79,
          "time": 69.07258524999985,
          "velocity": 0.5039370078740157,
          "duration": 0.12096775000000548
        },
        {
          "name": "A5",
          "midi": 81,
          "time": 69.19355299999985,
          "velocity": 0.5039370078740157,
          "duration": 0.24193549999999675
        },
        {
          "name": "C#5",
          "midi": 73,
          "time": 69.43548849999985,
          "velocity": 0.5039370078740157,
          "duration": 0.24193549999999675
        },
        {
          "name": "D5",
          "midi": 74,
          "time": 69.67742399999985,
          "velocity": 0.5039370078740157,
          "duration": 0.24193549999999675
        },
        {
          "name": "G5",
          "midi": 79,
          "time": 69.91935949999984,
          "velocity": 0.5039370078740157,
          "duration": 0.24193549999999675
        },
        {
          "name": "E5",
          "midi": 76,
          "time": 70.16129499999984,
          "velocity": 0.5039370078740157,
          "duration": 0.7258065000000045
        },
        {
          "name": "D5",
          "midi": 74,
          "time": 70.88710149999984,
          "velocity": 0.5039370078740157,
          "duration": 0.24193549999999675
        },
        {
          "name": "D5",
          "midi": 74,
          "time": 71.12903699999984,
          "velocity": 0.5039370078740157,
          "duration": 0.4838709999999935
        },
        {
          "name": "G4",
          "midi": 67,
          "time": 76.45161799999984,
          "velocity": 0.5039370078740157,
          "duration": 0.4838709999999935
        },
        {
          "name": "A4",
          "midi": 69,
          "time": 76.93548899999983,
          "velocity": 0.5039370078740157,
          "duration": 0.4838709999999935
        },
        {
          "name": "B4",
          "midi": 71,
          "time": 77.41935999999983,
          "velocity": 0.5039370078740157,
          "duration": 0.4838709999999935
        },
        {
          "name": "C5",
          "midi": 72,
          "time": 77.90323099999982,
          "velocity": 0.5039370078740157,
          "duration": 0.7258065000000045
        },
        {
          "name": "D5",
          "midi": 74,
          "time": 78.62903749999982,
          "velocity": 0.5039370078740157,
          "duration": 0.12096775000000548
        },
        {
          "name": "C5",
          "midi": 72,
          "time": 78.75000524999983,
          "velocity": 0.5039370078740157,
          "duration": 0.12096775000000548
        },
        {
          "name": "B4",
          "midi": 71,
          "time": 78.87097299999984,
          "velocity": 0.5039370078740157,
          "duration": 0.4838709999999935
        },
        {
          "name": "E5",
          "midi": 76,
          "time": 79.35484399999983,
          "velocity": 0.5039370078740157,
          "duration": 0.4838709999999935
        },
        {
          "name": "A4",
          "midi": 69,
          "time": 79.83871499999982,
          "velocity": 0.5039370078740157,
          "duration": 0.4838709999999935
        },
        {
          "name": "D5",
          "midi": 74,
          "time": 80.32258599999982,
          "velocity": 0.5039370078740157,
          "duration": 0.7258065000000045
        },
        {
          "name": "E5",
          "midi": 76,
          "time": 81.04839249999982,
          "velocity": 0.5039370078740157,
          "duration": 0.24193549999999675
        },
        {
          "name": "D5",
          "midi": 74,
          "time": 81.29032799999982,
          "velocity": 0.5039370078740157,
          "duration": 0.24193549999999675
        },
        {
          "name": "C5",
          "midi": 72,
          "time": 81.53226349999981,
          "velocity": 0.5039370078740157,
          "duration": 0.24193549999999675
        },
        {
          "name": "B4",
          "midi": 71,
          "time": 81.77419899999981,
          "velocity": 0.5039370078740157,
          "duration": 0.24193549999999675
        },
        {
          "name": "C5",
          "midi": 72,
          "time": 82.01613449999981,
          "velocity": 0.5039370078740157,
          "duration": 0.24193549999999675
        },
        {
          "name": "D5",
          "midi": 74,
          "time": 82.2580699999998,
          "velocity": 0.5039370078740157,
          "duration": 0.24193549999999675
        },
        {
          "name": "E5",
          "midi": 76,
          "time": 82.5000054999998,
          "velocity": 0.5039370078740157,
          "duration": 0.24193549999999675
        },
        {
          "name": "F5",
          "midi": 77,
          "time": 82.7419409999998,
          "velocity": 0.5039370078740157,
          "duration": 0.24193549999999675
        },
        {
          "name": "G5",
          "midi": 79,
          "time": 82.9838764999998,
          "velocity": 0.5039370078740157,
          "duration": 0.24193549999999675
        },
        {
          "name": "A5",
          "midi": 81,
          "time": 83.22581199999979,
          "velocity": 0.5039370078740157,
          "duration": 0.24193549999999675
        },
        {
          "name": "G5",
          "midi": 79,
          "time": 83.46774749999979,
          "velocity": 0.5039370078740157,
          "duration": 0.24193549999999675
        },
        {
          "name": "F5",
          "midi": 77,
          "time": 83.70968299999979,
          "velocity": 0.5039370078740157,
          "duration": 0.24193549999999675
        },
        {
          "name": "E5",
          "midi": 76,
          "time": 83.95161849999978,
          "velocity": 0.5039370078740157,
          "duration": 0.24193549999999675
        },
        {
          "name": "D5",
          "midi": 74,
          "time": 84.19355399999978,
          "velocity": 0.5039370078740157,
          "duration": 0.24193549999999675
        },
        {
          "name": "C5",
          "midi": 72,
          "time": 84.43548949999978,
          "velocity": 0.5039370078740157,
          "duration": 0.24193549999999675
        },
        {
          "name": "B4",
          "midi": 71,
          "time": 84.67742499999977,
          "velocity": 0.5039370078740157,
          "duration": 0.9677420000000012
        },
        {
          "name": "C5",
          "midi": 72,
          "time": 85.64516699999977,
          "velocity": 0.5039370078740157,
          "duration": 0.4838709999999935
        },
        {
          "name": "D5",
          "midi": 74,
          "time": 86.12903799999977,
          "velocity": 0.5039370078740157,
          "duration": 0.4838709999999935
        },
        {
          "name": "G4",
          "midi": 67,
          "time": 86.61290899999976,
          "velocity": 0.5039370078740157,
          "duration": 0.4838709999999935
        },
        {
          "name": "C5",
          "midi": 72,
          "time": 87.09677999999975,
          "velocity": 0.5039370078740157,
          "duration": 0.9677420000000012
        },
        {
          "name": "B4",
          "midi": 71,
          "time": 88.06452199999976,
          "velocity": 0.5039370078740157,
          "duration": 0.4838709999999935
        },
        {
          "name": "C5",
          "midi": 72,
          "time": 88.54839299999975,
          "velocity": 0.5039370078740157,
          "duration": 0.9677420000000012
        },
        {
          "name": "B4",
          "midi": 71,
          "time": 89.51613499999975,
          "velocity": 0.5039370078740157,
          "duration": 0.4838709999999935
        },
        {
          "name": "A#4",
          "midi": 70,
          "time": 90.00000599999974,
          "velocity": 0.5039370078740157,
          "duration": 0.4838709999999935
        },
        {
          "name": "A4",
          "midi": 69,
          "time": 90.48387699999974,
          "velocity": 0.5039370078740157,
          "duration": 0.4838709999999935
        },
        {
          "name": "D5",
          "midi": 74,
          "time": 90.96774799999973,
          "velocity": 0.5039370078740157,
          "duration": 0.9677420000000012
        },
        {
          "name": "C5",
          "midi": 72,
          "time": 91.93548999999973,
          "velocity": 0.5039370078740157,
          "duration": 0.4838709999999935
        },
        {
          "name": "D5",
          "midi": 74,
          "time": 92.41936099999972,
          "velocity": 0.5039370078740157,
          "duration": 0.4838709999999935
        },
        {
          "name": "E5",
          "midi": 76,
          "time": 92.90323199999972,
          "velocity": 0.5039370078740157,
          "duration": 0.4838709999999935
        },
        {
          "name": "F5",
          "midi": 77,
          "time": 93.38710299999971,
          "velocity": 0.5039370078740157,
          "duration": 1.209677499999998
        },
        {
          "name": "A5",
          "midi": 81,
          "time": 94.59678049999971,
          "velocity": 0.5039370078740157,
          "duration": 0.24193549999999675
        },
        {
          "name": "G5",
          "midi": 79,
          "time": 94.8387159999997,
          "velocity": 0.5039370078740157,
          "duration": 0.24193549999999675
        },
        {
          "name": "F5",
          "midi": 77,
          "time": 95.0806514999997,
          "velocity": 0.5039370078740157,
          "duration": 0.24193549999999675
        },
        {
          "name": "E5",
          "midi": 76,
          "time": 95.3225869999997,
          "velocity": 0.5039370078740157,
          "duration": 0.24193549999999675
        },
        {
          "name": "F5",
          "midi": 77,
          "time": 95.5645224999997,
          "velocity": 0.5039370078740157,
          "duration": 0.24193549999999675
        },
        {
          "name": "E5",
          "midi": 76,
          "time": 95.8064579999997,
          "velocity": 0.5039370078740157,
          "duration": 0.24193549999999675
        },
        {
          "name": "D5",
          "midi": 74,
          "time": 96.04839349999969,
          "velocity": 0.5039370078740157,
          "duration": 0.24193549999999675
        },
        {
          "name": "C5",
          "midi": 72,
          "time": 96.29032899999969,
          "velocity": 0.5039370078740157,
          "duration": 1.9354840000000024
        },
        {
          "name": "G4",
          "midi": 67,
          "time": 98.46774849999969,
          "velocity": 0.5039370078740157,
          "duration": 0.12096775000000548
        },
        {
          "name": "A4",
          "midi": 69,
          "time": 98.58871624999969,
          "velocity": 0.5039370078740157,
          "duration": 0.12096775000000548
        },
        {
          "name": "B4",
          "midi": 71,
          "time": 98.7096839999997,
          "velocity": 0.5039370078740157,
          "duration": 0.24193549999999675
        },
        {
          "name": "C5",
          "midi": 72,
          "time": 98.9516194999997,
          "velocity": 0.5039370078740157,
          "duration": 0.24193549999999675
        },
        {
          "name": "D5",
          "midi": 74,
          "time": 99.19355499999969,
          "velocity": 0.5039370078740157,
          "duration": 0.24193549999999675
        },
        {
          "name": "E5",
          "midi": 76,
          "time": 99.43549049999969,
          "velocity": 0.5039370078740157,
          "duration": 0.24193549999999675
        },
        {
          "name": "F5",
          "midi": 77,
          "time": 99.67742599999968,
          "velocity": 0.5039370078740157,
          "duration": 0.604838749999999
        },
        {
          "name": "C5",
          "midi": 72,
          "time": 100.28226474999968,
          "velocity": 0.5039370078740157,
          "duration": 0.12096775000000548
        },
        {
          "name": "D5",
          "midi": 74,
          "time": 100.40323249999969,
          "velocity": 0.5039370078740157,
          "duration": 0.12096775000000548
        },
        {
          "name": "E5",
          "midi": 76,
          "time": 100.5242002499997,
          "velocity": 0.5039370078740157,
          "duration": 0.12096775000000548
        },
        {
          "name": "F5",
          "midi": 77,
          "time": 100.6451679999997,
          "velocity": 0.5039370078740157,
          "duration": 0.24193549999999675
        },
        {
          "name": "G5",
          "midi": 79,
          "time": 100.8871034999997,
          "velocity": 0.5039370078740157,
          "duration": 0.24193549999999675
        },
        {
          "name": "A5",
          "midi": 81,
          "time": 101.1290389999997,
          "velocity": 0.5039370078740157,
          "duration": 0.7258065000000045
        },
        {
          "name": "B5",
          "midi": 83,
          "time": 101.8548454999997,
          "velocity": 0.5039370078740157,
          "duration": 0.24193549999999675
        },
        {
          "name": "C6",
          "midi": 84,
          "time": 102.0967809999997,
          "velocity": 0.5039370078740157,
          "duration": 1.9354840000000024
        }],
      "controlChanges": {},
      "id": 1,
      "channelNumber": 0,
      "isPercussion": false
    },
    {
      "startTime": 0,
      "duration": 104.03226499999971,
      "length": 202,
      "notes": [
        {
          "name": "C4",
          "midi": 60,
          "time": 0,
          "velocity": 0.5039370078740157,
          "duration": 0.483871
        },
        {
          "name": "D4",
          "midi": 62,
          "time": 0.483871,
          "velocity": 0.5039370078740157,
          "duration": 0.483871
        },
        {
          "name": "E4",
          "midi": 64,
          "time": 0.967742,
          "velocity": 0.5039370078740157,
          "duration": 0.48387100000000005
        },
        {
          "name": "F4",
          "midi": 65,
          "time": 1.451613,
          "velocity": 0.5039370078740157,
          "duration": 0.7258065
        },
        {
          "name": "G4",
          "midi": 67,
          "time": 2.1774195,
          "velocity": 0.5039370078740157,
          "duration": 0.12096775000000015
        },
        {
          "name": "F4",
          "midi": 65,
          "time": 2.29838725,
          "velocity": 0.5039370078740157,
          "duration": 0.12096775000000015
        },
        {
          "name": "E4",
          "midi": 64,
          "time": 2.4193550000000004,
          "velocity": 0.5039370078740157,
          "duration": 0.48387100000000016
        },
        {
          "name": "A4",
          "midi": 69,
          "time": 2.9032260000000005,
          "velocity": 0.5039370078740157,
          "duration": 0.48387100000000016
        },
        {
          "name": "D4",
          "midi": 62,
          "time": 3.3870970000000007,
          "velocity": 0.5039370078740157,
          "duration": 0.48387100000000016
        },
        {
          "name": "G4",
          "midi": 67,
          "time": 3.870968000000001,
          "velocity": 0.5039370078740157,
          "duration": 0.7258064999999996
        },
        {
          "name": "A4",
          "midi": 69,
          "time": 4.5967745,
          "velocity": 0.5039370078740157,
          "duration": 0.2419355000000003
        },
        {
          "name": "G4",
          "midi": 67,
          "time": 4.838710000000001,
          "velocity": 0.5039370078740157,
          "duration": 0.2419355000000003
        },
        {
          "name": "F4",
          "midi": 65,
          "time": 5.080645500000001,
          "velocity": 0.5039370078740157,
          "duration": 0.2419355000000003
        },
        {
          "name": "E4",
          "midi": 64,
          "time": 5.322581000000001,
          "velocity": 0.5039370078740157,
          "duration": 0.2419355000000003
        },
        {
          "name": "F4",
          "midi": 65,
          "time": 5.564516500000002,
          "velocity": 0.5039370078740157,
          "duration": 0.2419355000000003
        },
        {
          "name": "E4",
          "midi": 64,
          "time": 5.806452000000002,
          "velocity": 0.5039370078740157,
          "duration": 0.2419355000000003
        },
        {
          "name": "D4",
          "midi": 62,
          "time": 6.048387500000002,
          "velocity": 0.5039370078740157,
          "duration": 0.2419355000000003
        },
        {
          "name": "C4",
          "midi": 60,
          "time": 6.2903230000000026,
          "velocity": 0.5039370078740157,
          "duration": 0.2419355000000003
        },
        {
          "name": "D4",
          "midi": 62,
          "time": 6.532258500000003,
          "velocity": 0.5039370078740157,
          "duration": 0.2419355000000003
        },
        {
          "name": "C4",
          "midi": 60,
          "time": 6.774194000000003,
          "velocity": 0.5039370078740157,
          "duration": 0.2419355000000003
        },
        {
          "name": "B3",
          "midi": 59,
          "time": 7.0161295000000035,
          "velocity": 0.5039370078740157,
          "duration": 0.2419355000000003
        },
        {
          "name": "A3",
          "midi": 57,
          "time": 7.258065000000004,
          "velocity": 0.5039370078740157,
          "duration": 0.4838709999999997
        },
        {
          "name": "F#4",
          "midi": 66,
          "time": 7.7419360000000035,
          "velocity": 0.5039370078740157,
          "duration": 0.4838709999999997
        },
        {
          "name": "G4",
          "midi": 67,
          "time": 8.225807000000003,
          "velocity": 0.5039370078740157,
          "duration": 1.451613
        },
        {
          "name": "F#4",
          "midi": 66,
          "time": 9.677420000000003,
          "velocity": 0.5039370078740157,
          "duration": 0.2419355000000003
        },
        {
          "name": "E4",
          "midi": 64,
          "time": 9.919355500000004,
          "velocity": 0.5039370078740157,
          "duration": 0.2419355000000003
        },
        {
          "name": "F#4",
          "midi": 66,
          "time": 10.161291000000004,
          "velocity": 0.5039370078740157,
          "duration": 0.4838710000000006
        },
        {
          "name": "D4",
          "midi": 62,
          "time": 10.645162000000004,
          "velocity": 0.5039370078740157,
          "duration": 0.4838710000000006
        },
        {
          "name": "G4",
          "midi": 67,
          "time": 11.129033000000005,
          "velocity": 0.5039370078740157,
          "duration": 0.4838710000000006
        },
        {
          "name": "F4",
          "midi": 65,
          "time": 11.612904000000006,
          "velocity": 0.5039370078740157,
          "duration": 0.4838710000000006
        },
        {
          "name": "E4",
          "midi": 64,
          "time": 12.096775000000006,
          "velocity": 0.5039370078740157,
          "duration": 0.4838710000000006
        },
        {
          "name": "D4",
          "midi": 62,
          "time": 12.580646000000007,
          "velocity": 0.5039370078740157,
          "duration": 0.4838710000000006
        },
        {
          "name": "C4",
          "midi": 60,
          "time": 13.064517000000007,
          "velocity": 0.5039370078740157,
          "duration": 0.4838710000000006
        },
        {
          "name": "A4",
          "midi": 69,
          "time": 13.548388000000008,
          "velocity": 0.5039370078740157,
          "duration": 0.4838710000000006
        },
        {
          "name": "D4",
          "midi": 62,
          "time": 14.032259000000009,
          "velocity": 0.5039370078740157,
          "duration": 0.4838710000000006
        },
        {
          "name": "G4",
          "midi": 67,
          "time": 14.51613000000001,
          "velocity": 0.5039370078740157,
          "duration": 0.9677419999999994
        },
        {
          "name": "F4",
          "midi": 65,
          "time": 15.483872000000009,
          "velocity": 0.5039370078740157,
          "duration": 0.2419355000000003
        },
        {
          "name": "E4",
          "midi": 64,
          "time": 15.725807500000009,
          "velocity": 0.5039370078740157,
          "duration": 0.2419355000000003
        },
        {
          "name": "F4",
          "midi": 65,
          "time": 15.96774300000001,
          "velocity": 0.5039370078740157,
          "duration": 1.2096775000000015
        },
        {
          "name": "F4",
          "midi": 65,
          "time": 17.17742050000001,
          "velocity": 0.5039370078740157,
          "duration": 0.2419355000000003
        },
        {
          "name": "E4",
          "midi": 64,
          "time": 17.41935600000001,
          "velocity": 0.5039370078740157,
          "duration": 0.4838710000000006
        },
        {
          "name": "D4",
          "midi": 62,
          "time": 17.90322700000001,
          "velocity": 0.5039370078740157,
          "duration": 0.9677420000000012
        },
        {
          "name": "C4",
          "midi": 60,
          "time": 18.870969000000013,
          "velocity": 0.5039370078740157,
          "duration": 0.4838710000000006
        },
        {
          "name": "F4",
          "midi": 65,
          "time": 19.354840000000014,
          "velocity": 0.5039370078740157,
          "duration": 0.4838710000000006
        },
        {
          "name": "G4",
          "midi": 67,
          "time": 20.080646500000014,
          "velocity": 0.5039370078740157,
          "duration": 0.2419355000000003
        },
        {
          "name": "F4",
          "midi": 65,
          "time": 20.322582000000015,
          "velocity": 0.5039370078740157,
          "duration": 0.2419355000000003
        },
        {
          "name": "E4",
          "midi": 64,
          "time": 20.564517500000015,
          "velocity": 0.5039370078740157,
          "duration": 0.2419355000000003
        },
        {
          "name": "F4",
          "midi": 65,
          "time": 20.806453000000015,
          "velocity": 0.5039370078740157,
          "duration": 0.4838710000000006
        },
        {
          "name": "D4",
          "midi": 62,
          "time": 21.290324000000016,
          "velocity": 0.5039370078740157,
          "duration": 0.4838710000000006
        },
        {
          "name": "G4",
          "midi": 67,
          "time": 21.774195000000017,
          "velocity": 0.5039370078740157,
          "duration": 1.9354839999999989
        },
        {
          "name": "G4",
          "midi": 67,
          "time": 30.967744000000017,
          "velocity": 0.5039370078740157,
          "duration": 0.4838710000000006
        },
        {
          "name": "A4",
          "midi": 69,
          "time": 31.451615000000018,
          "velocity": 0.5039370078740157,
          "duration": 0.4838710000000006
        },
        {
          "name": "B4",
          "midi": 71,
          "time": 31.93548600000002,
          "velocity": 0.5039370078740157,
          "duration": 0.4838710000000006
        },
        {
          "name": "C5",
          "midi": 72,
          "time": 32.41935700000002,
          "velocity": 0.5039370078740157,
          "duration": 0.7258064999999974
        },
        {
          "name": "D5",
          "midi": 74,
          "time": 33.14516350000002,
          "velocity": 0.5039370078740157,
          "duration": 0.12096774999999838
        },
        {
          "name": "C5",
          "midi": 72,
          "time": 33.266131250000015,
          "velocity": 0.5039370078740157,
          "duration": 0.12096774999999838
        },
        {
          "name": "B4",
          "midi": 71,
          "time": 33.38709900000001,
          "velocity": 0.5039370078740157,
          "duration": 0.4838710000000006
        },
        {
          "name": "E5",
          "midi": 76,
          "time": 33.870970000000014,
          "velocity": 0.5039370078740157,
          "duration": 0.4838710000000006
        },
        {
          "name": "A4",
          "midi": 69,
          "time": 34.354841000000015,
          "velocity": 0.5039370078740157,
          "duration": 0.4838710000000006
        },
        {
          "name": "D5",
          "midi": 74,
          "time": 34.838712000000015,
          "velocity": 0.5039370078740157,
          "duration": 0.7258064999999974
        },
        {
          "name": "E5",
          "midi": 76,
          "time": 35.56451850000001,
          "velocity": 0.5039370078740157,
          "duration": 0.24193549999999675
        },
        {
          "name": "D5",
          "midi": 74,
          "time": 35.80645400000001,
          "velocity": 0.5039370078740157,
          "duration": 0.24193549999999675
        },
        {
          "name": "C5",
          "midi": 72,
          "time": 36.048389500000006,
          "velocity": 0.5039370078740157,
          "duration": 0.24193549999999675
        },
        {
          "name": "B4",
          "midi": 71,
          "time": 36.290325,
          "velocity": 0.5039370078740157,
          "duration": 0.4838710000000006
        },
        {
          "name": "D4",
          "midi": 62,
          "time": 37.741938000000005,
          "velocity": 0.5039370078740157,
          "duration": 0.4838710000000006
        },
        {
          "name": "E4",
          "midi": 64,
          "time": 38.225809000000005,
          "velocity": 0.5039370078740157,
          "duration": 0.4838710000000006
        },
        {
          "name": "F#4",
          "midi": 66,
          "time": 38.709680000000006,
          "velocity": 0.5039370078740157,
          "duration": 0.4838710000000006
        },
        {
          "name": "G4",
          "midi": 67,
          "time": 39.19355100000001,
          "velocity": 0.5039370078740157,
          "duration": 0.7258064999999974
        },
        {
          "name": "A4",
          "midi": 69,
          "time": 39.919357500000004,
          "velocity": 0.5039370078740157,
          "duration": 0.12096774999999838
        },
        {
          "name": "G4",
          "midi": 67,
          "time": 40.04032525,
          "velocity": 0.5039370078740157,
          "duration": 0.12096774999999838
        },
        {
          "name": "F#4",
          "midi": 66,
          "time": 40.161293,
          "velocity": 0.5039370078740157,
          "duration": 0.4838710000000006
        },
        {
          "name": "B4",
          "midi": 71,
          "time": 40.645164,
          "velocity": 0.5039370078740157,
          "duration": 0.4838710000000006
        },
        {
          "name": "E4",
          "midi": 64,
          "time": 41.129035,
          "velocity": 0.5039370078740157,
          "duration": 0.4838710000000006
        },
        {
          "name": "A4",
          "midi": 69,
          "time": 41.612906,
          "velocity": 0.5039370078740157,
          "duration": 0.7258064999999974
        },
        {
          "name": "B4",
          "midi": 71,
          "time": 42.3387125,
          "velocity": 0.5039370078740157,
          "duration": 0.24193549999999675
        },
        {
          "name": "A4",
          "midi": 69,
          "time": 42.580648,
          "velocity": 0.5039370078740157,
          "duration": 0.24193549999999675
        },
        {
          "name": "G#4",
          "midi": 68,
          "time": 42.82258349999999,
          "velocity": 0.5039370078740157,
          "duration": 0.24193549999999675
        },
        {
          "name": "F#4",
          "midi": 66,
          "time": 43.06451899999999,
          "velocity": 0.5039370078740157,
          "duration": 0.4838710000000006
        },
        {
          "name": "F4",
          "midi": 65,
          "time": 43.54838999999999,
          "velocity": 0.5039370078740157,
          "duration": 0.4838710000000006
        },
        {
          "name": "E4",
          "midi": 64,
          "time": 44.03226099999999,
          "velocity": 0.5039370078740157,
          "duration": 0.4838710000000006
        },
        {
          "name": "D4",
          "midi": 62,
          "time": 44.51613199999999,
          "velocity": 0.5039370078740157,
          "duration": 0.7258064999999974
        },
        {
          "name": "E4",
          "midi": 64,
          "time": 45.24193849999999,
          "velocity": 0.5039370078740157,
          "duration": 0.24193549999999675
        },
        {
          "name": "F#4",
          "midi": 66,
          "time": 45.483873999999986,
          "velocity": 0.5039370078740157,
          "duration": 0.24193549999999675
        },
        {
          "name": "G#4",
          "midi": 68,
          "time": 45.72580949999998,
          "velocity": 0.5039370078740157,
          "duration": 0.24193549999999675
        },
        {
          "name": "A4",
          "midi": 69,
          "time": 45.96774499999998,
          "velocity": 0.5039370078740157,
          "duration": 0.24193549999999675
        },
        {
          "name": "G#4",
          "midi": 68,
          "time": 46.209680499999976,
          "velocity": 0.5039370078740157,
          "duration": 0.24193549999999675
        },
        {
          "name": "A4",
          "midi": 69,
          "time": 46.45161599999997,
          "velocity": 0.5039370078740157,
          "duration": 0.24193549999999675
        },
        {
          "name": "B4",
          "midi": 71,
          "time": 46.69355149999997,
          "velocity": 0.5039370078740157,
          "duration": 0.24193549999999675
        },
        {
          "name": "G#4",
          "midi": 68,
          "time": 46.935486999999966,
          "velocity": 0.5039370078740157,
          "duration": 0.24193549999999675
        },
        {
          "name": "F#4",
          "midi": 66,
          "time": 47.17742249999996,
          "velocity": 0.5039370078740157,
          "duration": 0.24193549999999675
        },
        {
          "name": "G#4",
          "midi": 68,
          "time": 47.41935799999996,
          "velocity": 0.5039370078740157,
          "duration": 0.24193549999999675
        },
        {
          "name": "A4",
          "midi": 69,
          "time": 47.66129349999996,
          "velocity": 0.5039370078740157,
          "duration": 0.24193549999999675
        },
        {
          "name": "B4",
          "midi": 71,
          "time": 47.90322899999995,
          "velocity": 0.5039370078740157,
          "duration": 0.4838710000000006
        },
        {
          "name": "C4",
          "midi": 60,
          "time": 50.32258399999996,
          "velocity": 0.5039370078740157,
          "duration": 0.4838710000000006
        },
        {
          "name": "D4",
          "midi": 62,
          "time": 50.80645499999996,
          "velocity": 0.5039370078740157,
          "duration": 0.4838710000000006
        },
        {
          "name": "E4",
          "midi": 64,
          "time": 51.29032599999996,
          "velocity": 0.5039370078740157,
          "duration": 0.4838710000000006
        },
        {
          "name": "F4",
          "midi": 65,
          "time": 51.77419699999996,
          "velocity": 0.5039370078740157,
          "duration": 0.7258064999999974
        },
        {
          "name": "G4",
          "midi": 67,
          "time": 52.500003499999956,
          "velocity": 0.5039370078740157,
          "duration": 0.12096774999999838
        },
        {
          "name": "F4",
          "midi": 65,
          "time": 52.620971249999954,
          "velocity": 0.5039370078740157,
          "duration": 0.12096774999999838
        },
        {
          "name": "E4",
          "midi": 64,
          "time": 52.74193899999995,
          "velocity": 0.5039370078740157,
          "duration": 0.4838710000000006
        },
        {
          "name": "A4",
          "midi": 69,
          "time": 53.22580999999995,
          "velocity": 0.5039370078740157,
          "duration": 0.4838710000000006
        },
        {
          "name": "D4",
          "midi": 62,
          "time": 53.709680999999954,
          "velocity": 0.5039370078740157,
          "duration": 0.4838710000000006
        },
        {
          "name": "G4",
          "midi": 67,
          "time": 54.193551999999954,
          "velocity": 0.5039370078740157,
          "duration": 0.7258064999999974
        },
        {
          "name": "A4",
          "midi": 69,
          "time": 54.91935849999995,
          "velocity": 0.5039370078740157,
          "duration": 0.24193549999999675
        },
        {
          "name": "G4",
          "midi": 67,
          "time": 55.16129399999995,
          "velocity": 0.5039370078740157,
          "duration": 0.24193549999999675
        },
        {
          "name": "F4",
          "midi": 65,
          "time": 55.403229499999945,
          "velocity": 0.5039370078740157,
          "duration": 0.24193549999999675
        },
        {
          "name": "E4",
          "midi": 64,
          "time": 55.64516499999994,
          "velocity": 0.5039370078740157,
          "duration": 0.4838710000000006
        },
        {
          "name": "E4",
          "midi": 64,
          "time": 56.12903599999994,
          "velocity": 0.5039370078740157,
          "duration": 0.4838710000000006
        },
        {
          "name": "F#4",
          "midi": 66,
          "time": 56.61290699999994,
          "velocity": 0.5039370078740157,
          "duration": 0.4838710000000006
        },
        {
          "name": "G4",
          "midi": 67,
          "time": 57.096777999999944,
          "velocity": 0.5039370078740157,
          "duration": 0.9677420000000012
        },
        {
          "name": "F#4",
          "midi": 66,
          "time": 58.064519999999945,
          "velocity": 0.5039370078740157,
          "duration": 0.4838710000000006
        },
        {
          "name": "G#4",
          "midi": 68,
          "time": 58.548390999999945,
          "velocity": 0.5039370078740157,
          "duration": 0.4838710000000006
        },
        {
          "name": "A4",
          "midi": 69,
          "time": 59.032261999999946,
          "velocity": 0.5039370078740157,
          "duration": 0.9677420000000012
        },
        {
          "name": "G4",
          "midi": 67,
          "time": 60.00000399999995,
          "velocity": 0.5039370078740157,
          "duration": 0.4838710000000006
        },
        {
          "name": "A4",
          "midi": 69,
          "time": 60.48387499999995,
          "velocity": 0.5039370078740157,
          "duration": 0.4838710000000006
        },
        {
          "name": "B4",
          "midi": 71,
          "time": 60.96774599999995,
          "velocity": 0.5039370078740157,
          "duration": 0.4838710000000006
        },
        {
          "name": "C5",
          "midi": 72,
          "time": 61.45161699999995,
          "velocity": 0.5039370078740157,
          "duration": 0.7258064999999974
        },
        {
          "name": "D5",
          "midi": 74,
          "time": 62.177423499999946,
          "velocity": 0.5039370078740157,
          "duration": 0.12096774999999838
        },
        {
          "name": "C5",
          "midi": 72,
          "time": 62.298391249999945,
          "velocity": 0.5039370078740157,
          "duration": 0.12096774999999838
        },
        {
          "name": "B4",
          "midi": 71,
          "time": 62.41935899999994,
          "velocity": 0.5039370078740157,
          "duration": 0.4838710000000006
        },
        {
          "name": "E5",
          "midi": 76,
          "time": 62.903229999999944,
          "velocity": 0.5039370078740157,
          "duration": 0.4838710000000006
        },
        {
          "name": "A4",
          "midi": 69,
          "time": 63.387100999999944,
          "velocity": 0.5039370078740157,
          "duration": 0.4838710000000006
        },
        {
          "name": "D5",
          "midi": 74,
          "time": 63.870971999999945,
          "velocity": 0.5039370078740157,
          "duration": 0.7258064999999974
        },
        {
          "name": "E5",
          "midi": 76,
          "time": 64.59677849999994,
          "velocity": 0.5039370078740157,
          "duration": 0.24193549999999675
        },
        {
          "name": "D5",
          "midi": 74,
          "time": 64.83871399999994,
          "velocity": 0.5039370078740157,
          "duration": 0.24193549999999675
        },
        {
          "name": "C5",
          "midi": 72,
          "time": 65.08064949999994,
          "velocity": 0.5039370078740157,
          "duration": 0.24193549999999675
        },
        {
          "name": "B4",
          "midi": 71,
          "time": 65.32258499999993,
          "velocity": 0.5039370078740157,
          "duration": 0.4838709999999935
        },
        {
          "name": "G5",
          "midi": 79,
          "time": 65.80645599999993,
          "velocity": 0.5039370078740157,
          "duration": 0.4838709999999935
        },
        {
          "name": "C#5",
          "midi": 73,
          "time": 66.29032699999992,
          "velocity": 0.5039370078740157,
          "duration": 0.4838709999999935
        },
        {
          "name": "D5",
          "midi": 74,
          "time": 66.77419799999991,
          "velocity": 0.5039370078740157,
          "duration": 0.4838709999999935
        },
        {
          "name": "E5",
          "midi": 76,
          "time": 67.2580689999999,
          "velocity": 0.5039370078740157,
          "duration": 0.4838709999999935
        },
        {
          "name": "C#5",
          "midi": 73,
          "time": 67.7419399999999,
          "velocity": 0.5039370078740157,
          "duration": 0.4838709999999935
        },
        {
          "name": "D5",
          "midi": 74,
          "time": 68.2258109999999,
          "velocity": 0.5039370078740157,
          "duration": 0.4838709999999935
        },
        {
          "name": "E5",
          "midi": 76,
          "time": 68.70968199999989,
          "velocity": 0.5039370078740157,
          "duration": 0.4838709999999935
        },
        {
          "name": "A4",
          "midi": 69,
          "time": 69.19355299999988,
          "velocity": 0.5039370078740157,
          "duration": 0.4838709999999935
        },
        {
          "name": "E4",
          "midi": 64,
          "time": 70.64516599999988,
          "velocity": 0.5039370078740157,
          "duration": 0.4838709999999935
        },
        {
          "name": "F#4",
          "midi": 66,
          "time": 71.12903699999987,
          "velocity": 0.5039370078740157,
          "duration": 0.4838709999999935
        },
        {
          "name": "G4",
          "midi": 67,
          "time": 71.61290799999986,
          "velocity": 0.5039370078740157,
          "duration": 0.4838709999999935
        },
        {
          "name": "A4",
          "midi": 69,
          "time": 72.09677899999986,
          "velocity": 0.5039370078740157,
          "duration": 0.7258065000000045
        },
        {
          "name": "B4",
          "midi": 71,
          "time": 72.82258549999986,
          "velocity": 0.5039370078740157,
          "duration": 0.12096775000000548
        },
        {
          "name": "A4",
          "midi": 69,
          "time": 72.94355324999987,
          "velocity": 0.5039370078740157,
          "duration": 0.12096775000000548
        },
        {
          "name": "G4",
          "midi": 67,
          "time": 73.06452099999987,
          "velocity": 0.5039370078740157,
          "duration": 0.4838709999999935
        },
        {
          "name": "C5",
          "midi": 72,
          "time": 73.54839199999986,
          "velocity": 0.5039370078740157,
          "duration": 0.4838709999999935
        },
        {
          "name": "F#4",
          "midi": 66,
          "time": 74.03226299999986,
          "velocity": 0.5039370078740157,
          "duration": 0.4838709999999935
        },
        {
          "name": "B4",
          "midi": 71,
          "time": 74.51613399999985,
          "velocity": 0.5039370078740157,
          "duration": 0.7258065000000045
        },
        {
          "name": "C5",
          "midi": 72,
          "time": 75.24194049999986,
          "velocity": 0.5039370078740157,
          "duration": 0.24193549999999675
        },
        {
          "name": "B4",
          "midi": 71,
          "time": 75.48387599999985,
          "velocity": 0.5039370078740157,
          "duration": 0.24193549999999675
        },
        {
          "name": "A4",
          "midi": 69,
          "time": 75.72581149999985,
          "velocity": 0.5039370078740157,
          "duration": 0.24193549999999675
        },
        {
          "name": "G4",
          "midi": 67,
          "time": 75.96774699999985,
          "velocity": 0.5039370078740157,
          "duration": 0.24193549999999675
        },
        {
          "name": "F#4",
          "midi": 66,
          "time": 76.20968249999984,
          "velocity": 0.5039370078740157,
          "duration": 0.24193549999999675
        },
        {
          "name": "E4",
          "midi": 64,
          "time": 76.45161799999984,
          "velocity": 0.5039370078740157,
          "duration": 0.24193549999999675
        },
        {
          "name": "D4",
          "midi": 62,
          "time": 76.69355349999984,
          "velocity": 0.5039370078740157,
          "duration": 0.24193549999999675
        },
        {
          "name": "E4",
          "midi": 64,
          "time": 76.93548899999983,
          "velocity": 0.5039370078740157,
          "duration": 0.9677420000000012
        },
        {
          "name": "D4",
          "midi": 62,
          "time": 77.90323099999983,
          "velocity": 0.5039370078740157,
          "duration": 1.209677499999998
        },
        {
          "name": "A4",
          "midi": 69,
          "time": 79.11290849999983,
          "velocity": 0.5039370078740157,
          "duration": 0.24193549999999675
        },
        {
          "name": "G4",
          "midi": 67,
          "time": 79.35484399999983,
          "velocity": 0.5039370078740157,
          "duration": 0.24193549999999675
        },
        {
          "name": "F4",
          "midi": 65,
          "time": 79.59677949999983,
          "velocity": 0.5039370078740157,
          "duration": 0.24193549999999675
        },
        {
          "name": "E4",
          "midi": 64,
          "time": 79.83871499999982,
          "velocity": 0.5039370078740157,
          "duration": 0.24193549999999675
        },
        {
          "name": "G4",
          "midi": 67,
          "time": 80.08065049999982,
          "velocity": 0.5039370078740157,
          "duration": 0.24193549999999675
        },
        {
          "name": "F4",
          "midi": 65,
          "time": 80.32258599999982,
          "velocity": 0.5039370078740157,
          "duration": 0.24193549999999675
        },
        {
          "name": "A4",
          "midi": 69,
          "time": 80.56452149999981,
          "velocity": 0.5039370078740157,
          "duration": 0.24193549999999675
        },
        {
          "name": "G4",
          "midi": 67,
          "time": 80.80645699999981,
          "velocity": 0.5039370078740157,
          "duration": 1.209677499999998
        },
        {
          "name": "A4",
          "midi": 69,
          "time": 82.01613449999981,
          "velocity": 0.5039370078740157,
          "duration": 0.24193549999999675
        },
        {
          "name": "A#4",
          "midi": 70,
          "time": 82.2580699999998,
          "velocity": 0.5039370078740157,
          "duration": 0.4838709999999935
        },
        {
          "name": "C5",
          "midi": 72,
          "time": 82.7419409999998,
          "velocity": 0.5039370078740157,
          "duration": 0.9677420000000012
        },
        {
          "name": "D5",
          "midi": 74,
          "time": 83.7096829999998,
          "velocity": 0.5039370078740157,
          "duration": 0.4838709999999935
        },
        {
          "name": "G4",
          "midi": 67,
          "time": 84.19355399999979,
          "velocity": 0.5039370078740157,
          "duration": 0.4838709999999935
        },
        {
          "name": "G4",
          "midi": 67,
          "time": 84.67742499999979,
          "velocity": 0.5039370078740157,
          "duration": 1.4516129999999947
        },
        {
          "name": "F4",
          "midi": 65,
          "time": 86.12903799999978,
          "velocity": 0.5039370078740157,
          "duration": 0.9677420000000012
        },
        {
          "name": "E4",
          "midi": 64,
          "time": 87.09677999999978,
          "velocity": 0.5039370078740157,
          "duration": 0.4838709999999935
        },
        {
          "name": "D4",
          "midi": 62,
          "time": 87.58065099999978,
          "velocity": 0.5039370078740157,
          "duration": 0.9677420000000012
        },
        {
          "name": "E4",
          "midi": 64,
          "time": 88.54839299999978,
          "velocity": 0.5039370078740157,
          "duration": 0.4838709999999935
        },
        {
          "name": "A4",
          "midi": 69,
          "time": 89.03226399999977,
          "velocity": 0.5039370078740157,
          "duration": 0.9677420000000012
        },
        {
          "name": "G4",
          "midi": 67,
          "time": 90.00000599999977,
          "velocity": 0.5039370078740157,
          "duration": 0.9677420000000012
        },
        {
          "name": "F4",
          "midi": 65,
          "time": 90.96774799999977,
          "velocity": 0.5039370078740157,
          "duration": 0.4838709999999935
        },
        {
          "name": "G4",
          "midi": 67,
          "time": 91.45161899999977,
          "velocity": 0.5039370078740157,
          "duration": 0.4838709999999935
        },
        {
          "name": "A4",
          "midi": 69,
          "time": 91.93548999999976,
          "velocity": 0.5039370078740157,
          "duration": 0.4838709999999935
        },
        {
          "name": "A#4",
          "midi": 70,
          "time": 92.41936099999975,
          "velocity": 0.5039370078740157,
          "duration": 0.7258065000000045
        },
        {
          "name": "C5",
          "midi": 72,
          "time": 93.14516749999976,
          "velocity": 0.5039370078740157,
          "duration": 0.12096775000000548
        },
        {
          "name": "A#4",
          "midi": 70,
          "time": 93.26613524999976,
          "velocity": 0.5039370078740157,
          "duration": 0.12096775000000548
        },
        {
          "name": "A4",
          "midi": 69,
          "time": 93.38710299999977,
          "velocity": 0.5039370078740157,
          "duration": 0.4838709999999935
        },
        {
          "name": "D5",
          "midi": 74,
          "time": 93.87097399999976,
          "velocity": 0.5039370078740157,
          "duration": 0.4838709999999935
        },
        {
          "name": "G4",
          "midi": 67,
          "time": 94.35484499999976,
          "velocity": 0.5039370078740157,
          "duration": 0.4838709999999935
        },
        {
          "name": "C5",
          "midi": 72,
          "time": 94.83871599999975,
          "velocity": 0.5039370078740157,
          "duration": 0.7258065000000045
        },
        {
          "name": "D5",
          "midi": 74,
          "time": 95.56452249999975,
          "velocity": 0.5039370078740157,
          "duration": 0.24193549999999675
        },
        {
          "name": "C5",
          "midi": 72,
          "time": 95.80645799999975,
          "velocity": 0.5039370078740157,
          "duration": 0.24193549999999675
        },
        {
          "name": "A#4",
          "midi": 70,
          "time": 96.04839349999975,
          "velocity": 0.5039370078740157,
          "duration": 0.24193549999999675
        },
        {
          "name": "A4",
          "midi": 69,
          "time": 96.29032899999974,
          "velocity": 0.5039370078740157,
          "duration": 0.24193549999999675
        },
        {
          "name": "A#4",
          "midi": 70,
          "time": 96.53226449999974,
          "velocity": 0.5039370078740157,
          "duration": 0.24193549999999675
        },
        {
          "name": "A4",
          "midi": 69,
          "time": 96.77419999999974,
          "velocity": 0.5039370078740157,
          "duration": 0.24193549999999675
        },
        {
          "name": "G4",
          "midi": 67,
          "time": 97.01613549999973,
          "velocity": 0.5039370078740157,
          "duration": 0.24193549999999675
        },
        {
          "name": "F4",
          "midi": 65,
          "time": 97.25807099999973,
          "velocity": 0.5039370078740157,
          "duration": 0.24193549999999675
        },
        {
          "name": "G4",
          "midi": 67,
          "time": 97.50000649999973,
          "velocity": 0.5039370078740157,
          "duration": 0.24193549999999675
        },
        {
          "name": "F4",
          "midi": 65,
          "time": 97.74194199999972,
          "velocity": 0.5039370078740157,
          "duration": 0.24193549999999675
        },
        {
          "name": "E4",
          "midi": 64,
          "time": 97.98387749999972,
          "velocity": 0.5039370078740157,
          "duration": 0.24193549999999675
        },
        {
          "name": "D4",
          "midi": 62,
          "time": 98.22581299999972,
          "velocity": 0.5039370078740157,
          "duration": 1.6935485000000057
        },
        {
          "name": "G4",
          "midi": 67,
          "time": 99.91936149999972,
          "velocity": 0.5039370078740157,
          "duration": 0.24193549999999675
        },
        {
          "name": "A4",
          "midi": 69,
          "time": 100.16129699999972,
          "velocity": 0.5039370078740157,
          "duration": 0.9677420000000012
        },
        {
          "name": "F5",
          "midi": 77,
          "time": 101.37097449999972,
          "velocity": 0.5039370078740157,
          "duration": 0.24193549999999675
        },
        {
          "name": "D5",
          "midi": 74,
          "time": 101.61290999999972,
          "velocity": 0.5039370078740157,
          "duration": 0.4838709999999935
        },
        {
          "name": "G5",
          "midi": 79,
          "time": 102.09678099999971,
          "velocity": 0.5039370078740157,
          "duration": 1.9354840000000024
        },
        {
          "name": "E5",
          "midi": 76,
          "time": 102.09678099999971,
          "velocity": 0.5039370078740157,
          "duration": 1.9354840000000024
        }],
      "controlChanges": {},
      "id": 2,
      "channelNumber": 1,
      "isPercussion": false
    },
    {
      "startTime": 11.612904,
      "duration": 104.03226499999977,
      "length": 176,
      "notes": [
        {
          "name": "G3",
          "midi": 55,
          "time": 11.612904,
          "velocity": 0.5039370078740157,
          "duration": 0.4838710000000006
        },
        {
          "name": "A3",
          "midi": 57,
          "time": 12.096775000000001,
          "velocity": 0.5039370078740157,
          "duration": 0.4838710000000006
        },
        {
          "name": "B3",
          "midi": 59,
          "time": 12.580646000000002,
          "velocity": 0.5039370078740157,
          "duration": 0.4838710000000006
        },
        {
          "name": "C4",
          "midi": 60,
          "time": 13.064517000000002,
          "velocity": 0.5039370078740157,
          "duration": 0.7258065000000009
        },
        {
          "name": "D4",
          "midi": 62,
          "time": 13.790323500000003,
          "velocity": 0.5039370078740157,
          "duration": 0.12096775000000015
        },
        {
          "name": "C4",
          "midi": 60,
          "time": 13.911291250000003,
          "velocity": 0.5039370078740157,
          "duration": 0.12096775000000015
        },
        {
          "name": "B3",
          "midi": 59,
          "time": 14.032259000000003,
          "velocity": 0.5039370078740157,
          "duration": 0.4838710000000006
        },
        {
          "name": "E4",
          "midi": 64,
          "time": 14.516130000000004,
          "velocity": 0.5039370078740157,
          "duration": 0.4838710000000006
        },
        {
          "name": "A3",
          "midi": 57,
          "time": 15.000001000000005,
          "velocity": 0.5039370078740157,
          "duration": 0.4838710000000006
        },
        {
          "name": "D4",
          "midi": 62,
          "time": 15.483872000000005,
          "velocity": 0.5039370078740157,
          "duration": 0.7258065000000009
        },
        {
          "name": "E4",
          "midi": 64,
          "time": 16.209678500000006,
          "velocity": 0.5039370078740157,
          "duration": 0.2419355000000003
        },
        {
          "name": "D4",
          "midi": 62,
          "time": 16.451614000000006,
          "velocity": 0.5039370078740157,
          "duration": 0.2419355000000003
        },
        {
          "name": "C4",
          "midi": 60,
          "time": 16.693549500000007,
          "velocity": 0.5039370078740157,
          "duration": 0.2419355000000003
        },
        {
          "name": "B3",
          "midi": 59,
          "time": 16.935485000000007,
          "velocity": 0.5039370078740157,
          "duration": 0.4838710000000006
        },
        {
          "name": "C4",
          "midi": 60,
          "time": 17.419356000000008,
          "velocity": 0.5039370078740157,
          "duration": 0.9677420000000012
        },
        {
          "name": "A#3",
          "midi": 58,
          "time": 18.38709800000001,
          "velocity": 0.5039370078740157,
          "duration": 0.4838710000000006
        },
        {
          "name": "A3",
          "midi": 57,
          "time": 18.87096900000001,
          "velocity": 0.5039370078740157,
          "duration": 0.4838710000000006
        },
        {
          "name": "D4",
          "midi": 62,
          "time": 19.35484000000001,
          "velocity": 0.5039370078740157,
          "duration": 0.4838710000000006
        },
        {
          "name": "G3",
          "midi": 55,
          "time": 19.83871100000001,
          "velocity": 0.5039370078740157,
          "duration": 0.4838710000000006
        },
        {
          "name": "C4",
          "midi": 60,
          "time": 20.32258200000001,
          "velocity": 0.5039370078740157,
          "duration": 0.4838710000000006
        },
        {
          "name": "A3",
          "midi": 57,
          "time": 21.048388500000012,
          "velocity": 0.5039370078740157,
          "duration": 0.2419355000000003
        },
        {
          "name": "B3",
          "midi": 59,
          "time": 21.290324000000012,
          "velocity": 0.5039370078740157,
          "duration": 0.2419355000000003
        },
        {
          "name": "C4",
          "midi": 60,
          "time": 21.532259500000013,
          "velocity": 0.5039370078740157,
          "duration": 0.2419355000000003
        },
        {
          "name": "D4",
          "midi": 62,
          "time": 21.774195000000013,
          "velocity": 0.5039370078740157,
          "duration": 0.9677420000000012
        },
        {
          "name": "G3",
          "midi": 55,
          "time": 22.741937000000014,
          "velocity": 0.5039370078740157,
          "duration": 0.9677420000000012
        },
        {
          "name": "G3",
          "midi": 55,
          "time": 24.193550000000016,
          "velocity": 0.5039370078740157,
          "duration": 0.4838710000000006
        },
        {
          "name": "A3",
          "midi": 57,
          "time": 24.677421000000017,
          "velocity": 0.5039370078740157,
          "duration": 0.4838710000000006
        },
        {
          "name": "B3",
          "midi": 59,
          "time": 25.161292000000017,
          "velocity": 0.5039370078740157,
          "duration": 0.4838710000000006
        },
        {
          "name": "C4",
          "midi": 60,
          "time": 25.645163000000018,
          "velocity": 0.5039370078740157,
          "duration": 0.7258065000000009
        },
        {
          "name": "D4",
          "midi": 62,
          "time": 26.37096950000002,
          "velocity": 0.5039370078740157,
          "duration": 0.12096774999999838
        },
        {
          "name": "C4",
          "midi": 60,
          "time": 26.491937250000017,
          "velocity": 0.5039370078740157,
          "duration": 0.12096774999999838
        },
        {
          "name": "B3",
          "midi": 59,
          "time": 26.612905000000016,
          "velocity": 0.5039370078740157,
          "duration": 0.4838710000000006
        },
        {
          "name": "E4",
          "midi": 64,
          "time": 27.096776000000016,
          "velocity": 0.5039370078740157,
          "duration": 0.4838710000000006
        },
        {
          "name": "A3",
          "midi": 57,
          "time": 27.580647000000017,
          "velocity": 0.5039370078740157,
          "duration": 0.4838710000000006
        },
        {
          "name": "D4",
          "midi": 62,
          "time": 28.064518000000017,
          "velocity": 0.5039370078740157,
          "duration": 0.7258065000000009
        },
        {
          "name": "E4",
          "midi": 64,
          "time": 28.79032450000002,
          "velocity": 0.5039370078740157,
          "duration": 0.2419355000000003
        },
        {
          "name": "D4",
          "midi": 62,
          "time": 29.03226000000002,
          "velocity": 0.5039370078740157,
          "duration": 0.2419355000000003
        },
        {
          "name": "C4",
          "midi": 60,
          "time": 29.27419550000002,
          "velocity": 0.5039370078740157,
          "duration": 0.2419355000000003
        },
        {
          "name": "B3",
          "midi": 59,
          "time": 29.51613100000002,
          "velocity": 0.5039370078740157,
          "duration": 0.4838710000000006
        },
        {
          "name": "E4",
          "midi": 64,
          "time": 30.00000200000002,
          "velocity": 0.5039370078740157,
          "duration": 1.4516129999999983
        },
        {
          "name": "D4",
          "midi": 62,
          "time": 31.451615000000018,
          "velocity": 0.5039370078740157,
          "duration": 0.9677420000000012
        },
        {
          "name": "C4",
          "midi": 60,
          "time": 32.41935700000002,
          "velocity": 0.5039370078740157,
          "duration": 0.24193549999999675
        },
        {
          "name": "B3",
          "midi": 59,
          "time": 32.661292500000016,
          "velocity": 0.5039370078740157,
          "duration": 0.24193549999999675
        },
        {
          "name": "C4",
          "midi": 60,
          "time": 32.90322800000001,
          "velocity": 0.5039370078740157,
          "duration": 0.24193549999999675
        },
        {
          "name": "A3",
          "midi": 57,
          "time": 33.14516350000001,
          "velocity": 0.5039370078740157,
          "duration": 0.24193549999999675
        },
        {
          "name": "E4",
          "midi": 64,
          "time": 33.387099000000006,
          "velocity": 0.5039370078740157,
          "duration": 0.24193549999999675
        },
        {
          "name": "D4",
          "midi": 62,
          "time": 33.6290345,
          "velocity": 0.5039370078740157,
          "duration": 0.24193549999999675
        },
        {
          "name": "C4",
          "midi": 60,
          "time": 33.87097,
          "velocity": 0.5039370078740157,
          "duration": 0.24193549999999675
        },
        {
          "name": "B3",
          "midi": 59,
          "time": 34.1129055,
          "velocity": 0.5039370078740157,
          "duration": 0.24193549999999675
        },
        {
          "name": "C4",
          "midi": 60,
          "time": 34.35484099999999,
          "velocity": 0.5039370078740157,
          "duration": 0.24193549999999675
        },
        {
          "name": "A3",
          "midi": 57,
          "time": 34.59677649999999,
          "velocity": 0.5039370078740157,
          "duration": 0.24193549999999675
        },
        {
          "name": "B3",
          "midi": 59,
          "time": 34.83871199999999,
          "velocity": 0.5039370078740157,
          "duration": 0.24193549999999675
        },
        {
          "name": "C4",
          "midi": 60,
          "time": 35.08064749999998,
          "velocity": 0.5039370078740157,
          "duration": 0.24193549999999675
        },
        {
          "name": "D4",
          "midi": 62,
          "time": 35.32258299999998,
          "velocity": 0.5039370078740157,
          "duration": 0.24193549999999675
        },
        {
          "name": "C4",
          "midi": 60,
          "time": 35.56451849999998,
          "velocity": 0.5039370078740157,
          "duration": 0.24193549999999675
        },
        {
          "name": "B3",
          "midi": 59,
          "time": 35.806453999999974,
          "velocity": 0.5039370078740157,
          "duration": 0.24193549999999675
        },
        {
          "name": "A3",
          "midi": 57,
          "time": 36.04838949999997,
          "velocity": 0.5039370078740157,
          "duration": 0.24193549999999675
        },
        {
          "name": "G3",
          "midi": 55,
          "time": 36.29032499999997,
          "velocity": 0.5039370078740157,
          "duration": 0.9677420000000012
        },
        {
          "name": "E3",
          "midi": 52,
          "time": 42.58064799999997,
          "velocity": 0.5039370078740157,
          "duration": 0.4838710000000006
        },
        {
          "name": "F#3",
          "midi": 54,
          "time": 43.06451899999997,
          "velocity": 0.5039370078740157,
          "duration": 0.4838710000000006
        },
        {
          "name": "G#3",
          "midi": 56,
          "time": 43.54838999999997,
          "velocity": 0.5039370078740157,
          "duration": 0.4838710000000006
        },
        {
          "name": "A3",
          "midi": 57,
          "time": 44.03226099999997,
          "velocity": 0.5039370078740157,
          "duration": 0.7258064999999974
        },
        {
          "name": "B3",
          "midi": 59,
          "time": 44.75806749999997,
          "velocity": 0.5039370078740157,
          "duration": 0.12096774999999838
        },
        {
          "name": "A3",
          "midi": 57,
          "time": 44.879035249999966,
          "velocity": 0.5039370078740157,
          "duration": 0.12096774999999838
        },
        {
          "name": "G#3",
          "midi": 56,
          "time": 45.000002999999964,
          "velocity": 0.5039370078740157,
          "duration": 0.4838710000000006
        },
        {
          "name": "C4",
          "midi": 60,
          "time": 45.483873999999965,
          "velocity": 0.5039370078740157,
          "duration": 0.4838710000000006
        },
        {
          "name": "F#3",
          "midi": 54,
          "time": 45.967744999999965,
          "velocity": 0.5039370078740157,
          "duration": 0.4838710000000006
        },
        {
          "name": "B3",
          "midi": 59,
          "time": 46.451615999999966,
          "velocity": 0.5039370078740157,
          "duration": 0.7258064999999974
        },
        {
          "name": "C4",
          "midi": 60,
          "time": 47.17742249999996,
          "velocity": 0.5039370078740157,
          "duration": 0.24193549999999675
        },
        {
          "name": "B3",
          "midi": 59,
          "time": 47.41935799999996,
          "velocity": 0.5039370078740157,
          "duration": 0.24193549999999675
        },
        {
          "name": "A3",
          "midi": 57,
          "time": 47.66129349999996,
          "velocity": 0.5039370078740157,
          "duration": 0.24193549999999675
        },
        {
          "name": "G#3",
          "midi": 56,
          "time": 47.90322899999995,
          "velocity": 0.5039370078740157,
          "duration": 0.4838710000000006
        },
        {
          "name": "A3",
          "midi": 57,
          "time": 48.387099999999954,
          "velocity": 0.5039370078740157,
          "duration": 0.9677420000000012
        },
        {
          "name": "G#3",
          "midi": 56,
          "time": 49.354841999999955,
          "velocity": 0.5039370078740157,
          "duration": 0.4838710000000006
        },
        {
          "name": "A3",
          "midi": 57,
          "time": 49.838712999999956,
          "velocity": 0.5039370078740157,
          "duration": 0.9677420000000012
        },
        {
          "name": "G3",
          "midi": 55,
          "time": 51.29032599999996,
          "velocity": 0.5039370078740157,
          "duration": 0.4838710000000006
        },
        {
          "name": "A3",
          "midi": 57,
          "time": 51.77419699999996,
          "velocity": 0.5039370078740157,
          "duration": 0.4838710000000006
        },
        {
          "name": "B3",
          "midi": 59,
          "time": 52.25806799999996,
          "velocity": 0.5039370078740157,
          "duration": 0.4838710000000006
        },
        {
          "name": "C4",
          "midi": 60,
          "time": 52.74193899999996,
          "velocity": 0.5039370078740157,
          "duration": 0.7258064999999974
        },
        {
          "name": "D4",
          "midi": 62,
          "time": 53.46774549999996,
          "velocity": 0.5039370078740157,
          "duration": 0.12096774999999838
        },
        {
          "name": "C4",
          "midi": 60,
          "time": 53.588713249999955,
          "velocity": 0.5039370078740157,
          "duration": 0.12096774999999838
        },
        {
          "name": "B3",
          "midi": 59,
          "time": 53.709680999999954,
          "velocity": 0.5039370078740157,
          "duration": 0.4838710000000006
        },
        {
          "name": "E4",
          "midi": 64,
          "time": 54.193551999999954,
          "velocity": 0.5039370078740157,
          "duration": 0.4838710000000006
        },
        {
          "name": "A3",
          "midi": 57,
          "time": 54.677422999999955,
          "velocity": 0.5039370078740157,
          "duration": 0.4838710000000006
        },
        {
          "name": "D4",
          "midi": 62,
          "time": 55.161293999999955,
          "velocity": 0.5039370078740157,
          "duration": 0.9677420000000012
        },
        {
          "name": "G3",
          "midi": 55,
          "time": 56.12903599999996,
          "velocity": 0.5039370078740157,
          "duration": 0.4838710000000006
        },
        {
          "name": "D4",
          "midi": 62,
          "time": 56.61290699999996,
          "velocity": 0.5039370078740157,
          "duration": 0.9677420000000012
        },
        {
          "name": "C4",
          "midi": 60,
          "time": 57.58064899999996,
          "velocity": 0.5039370078740157,
          "duration": 0.4838710000000006
        },
        {
          "name": "A3",
          "midi": 57,
          "time": 58.06451999999996,
          "velocity": 0.5039370078740157,
          "duration": 0.4838710000000006
        },
        {
          "name": "E4",
          "midi": 64,
          "time": 58.54839099999996,
          "velocity": 0.5039370078740157,
          "duration": 0.9677420000000012
        },
        {
          "name": "D4",
          "midi": 62,
          "time": 59.51613299999996,
          "velocity": 0.5039370078740157,
          "duration": 0.4838710000000006
        },
        {
          "name": "A3",
          "midi": 57,
          "time": 61.935487999999964,
          "velocity": 0.5039370078740157,
          "duration": 0.4838710000000006
        },
        {
          "name": "B3",
          "midi": 59,
          "time": 62.419358999999965,
          "velocity": 0.5039370078740157,
          "duration": 0.4838710000000006
        },
        {
          "name": "C#4",
          "midi": 61,
          "time": 62.903229999999965,
          "velocity": 0.5039370078740157,
          "duration": 0.4838710000000006
        },
        {
          "name": "D4",
          "midi": 62,
          "time": 63.387100999999966,
          "velocity": 0.5039370078740157,
          "duration": 0.7258064999999974
        },
        {
          "name": "E4",
          "midi": 64,
          "time": 64.11290749999996,
          "velocity": 0.5039370078740157,
          "duration": 0.12096775000000548
        },
        {
          "name": "D4",
          "midi": 62,
          "time": 64.23387524999997,
          "velocity": 0.5039370078740157,
          "duration": 0.12096775000000548
        },
        {
          "name": "C4",
          "midi": 60,
          "time": 64.35484299999997,
          "velocity": 0.5039370078740157,
          "duration": 0.4838709999999935
        },
        {
          "name": "F4",
          "midi": 65,
          "time": 64.83871399999997,
          "velocity": 0.5039370078740157,
          "duration": 0.4838709999999935
        },
        {
          "name": "B3",
          "midi": 59,
          "time": 65.32258499999996,
          "velocity": 0.5039370078740157,
          "duration": 0.4838709999999935
        },
        {
          "name": "E4",
          "midi": 64,
          "time": 65.80645599999995,
          "velocity": 0.5039370078740157,
          "duration": 0.7258065000000045
        },
        {
          "name": "F4",
          "midi": 65,
          "time": 66.53226249999996,
          "velocity": 0.5039370078740157,
          "duration": 0.24193549999999675
        },
        {
          "name": "E4",
          "midi": 64,
          "time": 66.77419799999996,
          "velocity": 0.5039370078740157,
          "duration": 0.24193549999999675
        },
        {
          "name": "D4",
          "midi": 62,
          "time": 67.01613349999995,
          "velocity": 0.5039370078740157,
          "duration": 0.24193549999999675
        },
        {
          "name": "C#4",
          "midi": 61,
          "time": 67.25806899999995,
          "velocity": 0.5039370078740157,
          "duration": 0.4838709999999935
        },
        {
          "name": "A3",
          "midi": 57,
          "time": 69.67742399999995,
          "velocity": 0.5039370078740157,
          "duration": 0.4838709999999935
        },
        {
          "name": "B3",
          "midi": 59,
          "time": 70.16129499999994,
          "velocity": 0.5039370078740157,
          "duration": 0.4838709999999935
        },
        {
          "name": "C#4",
          "midi": 61,
          "time": 70.64516599999993,
          "velocity": 0.5039370078740157,
          "duration": 0.4838709999999935
        },
        {
          "name": "D4",
          "midi": 62,
          "time": 71.12903699999993,
          "velocity": 0.5039370078740157,
          "duration": 0.7258065000000045
        },
        {
          "name": "E4",
          "midi": 64,
          "time": 71.85484349999993,
          "velocity": 0.5039370078740157,
          "duration": 0.12096775000000548
        },
        {
          "name": "D4",
          "midi": 62,
          "time": 71.97581124999994,
          "velocity": 0.5039370078740157,
          "duration": 0.12096775000000548
        },
        {
          "name": "C4",
          "midi": 60,
          "time": 72.09677899999994,
          "velocity": 0.5039370078740157,
          "duration": 0.4838709999999935
        },
        {
          "name": "F#4",
          "midi": 66,
          "time": 72.58064999999993,
          "velocity": 0.5039370078740157,
          "duration": 0.4838709999999935
        },
        {
          "name": "B3",
          "midi": 59,
          "time": 73.06452099999993,
          "velocity": 0.5039370078740157,
          "duration": 0.4838709999999935
        },
        {
          "name": "E4",
          "midi": 64,
          "time": 73.54839199999992,
          "velocity": 0.5039370078740157,
          "duration": 0.7258065000000045
        },
        {
          "name": "F#4",
          "midi": 66,
          "time": 74.27419849999993,
          "velocity": 0.5039370078740157,
          "duration": 0.24193549999999675
        },
        {
          "name": "E4",
          "midi": 64,
          "time": 74.51613399999992,
          "velocity": 0.5039370078740157,
          "duration": 0.24193549999999675
        },
        {
          "name": "D4",
          "midi": 62,
          "time": 74.75806949999992,
          "velocity": 0.5039370078740157,
          "duration": 0.24193549999999675
        },
        {
          "name": "C4",
          "midi": 60,
          "time": 75.00000499999992,
          "velocity": 0.5039370078740157,
          "duration": 2.177419499999999
        },
        {
          "name": "D4",
          "midi": 62,
          "time": 77.17742449999992,
          "velocity": 0.5039370078740157,
          "duration": 0.24193549999999675
        },
        {
          "name": "C4",
          "midi": 60,
          "time": 77.41935999999991,
          "velocity": 0.5039370078740157,
          "duration": 0.24193549999999675
        },
        {
          "name": "B3",
          "midi": 59,
          "time": 77.66129549999991,
          "velocity": 0.5039370078740157,
          "duration": 0.24193549999999675
        },
        {
          "name": "A3",
          "midi": 57,
          "time": 77.9032309999999,
          "velocity": 0.5039370078740157,
          "duration": 0.24193549999999675
        },
        {
          "name": "G3",
          "midi": 55,
          "time": 78.1451664999999,
          "velocity": 0.5039370078740157,
          "duration": 0.24193549999999675
        },
        {
          "name": "A3",
          "midi": 57,
          "time": 78.3871019999999,
          "velocity": 0.5039370078740157,
          "duration": 0.24193549999999675
        },
        {
          "name": "F#3",
          "midi": 54,
          "time": 78.6290374999999,
          "velocity": 0.5039370078740157,
          "duration": 0.24193549999999675
        },
        {
          "name": "G3",
          "midi": 55,
          "time": 78.87097299999989,
          "velocity": 0.5039370078740157,
          "duration": 0.4838709999999935
        },
        {
          "name": "B3",
          "midi": 59,
          "time": 79.35484399999989,
          "velocity": 0.5039370078740157,
          "duration": 0.4838709999999935
        },
        {
          "name": "C4",
          "midi": 60,
          "time": 79.83871499999988,
          "velocity": 0.5039370078740157,
          "duration": 0.4838709999999935
        },
        {
          "name": "D4",
          "midi": 62,
          "time": 80.32258599999987,
          "velocity": 0.5039370078740157,
          "duration": 0.4838709999999935
        },
        {
          "name": "E4",
          "midi": 64,
          "time": 80.80645699999987,
          "velocity": 0.5039370078740157,
          "duration": 0.7258065000000045
        },
        {
          "name": "F4",
          "midi": 65,
          "time": 81.53226349999987,
          "velocity": 0.5039370078740157,
          "duration": 0.12096775000000548
        },
        {
          "name": "E4",
          "midi": 64,
          "time": 81.65323124999988,
          "velocity": 0.5039370078740157,
          "duration": 0.12096775000000548
        },
        {
          "name": "D4",
          "midi": 62,
          "time": 81.77419899999988,
          "velocity": 0.5039370078740157,
          "duration": 0.4838709999999935
        },
        {
          "name": "G4",
          "midi": 67,
          "time": 82.25806999999988,
          "velocity": 0.5039370078740157,
          "duration": 0.4838709999999935
        },
        {
          "name": "C4",
          "midi": 60,
          "time": 82.74194099999987,
          "velocity": 0.5039370078740157,
          "duration": 0.4838709999999935
        },
        {
          "name": "F4",
          "midi": 65,
          "time": 83.22581199999986,
          "velocity": 0.5039370078740157,
          "duration": 0.7258065000000045
        },
        {
          "name": "G4",
          "midi": 67,
          "time": 83.95161849999987,
          "velocity": 0.5039370078740157,
          "duration": 0.24193549999999675
        },
        {
          "name": "F4",
          "midi": 65,
          "time": 84.19355399999986,
          "velocity": 0.5039370078740157,
          "duration": 0.24193549999999675
        },
        {
          "name": "E4",
          "midi": 64,
          "time": 84.43548949999986,
          "velocity": 0.5039370078740157,
          "duration": 0.24193549999999675
        },
        {
          "name": "D4",
          "midi": 62,
          "time": 84.67742499999986,
          "velocity": 0.5039370078740157,
          "duration": 0.9677420000000012
        },
        {
          "name": "E4",
          "midi": 64,
          "time": 85.64516699999986,
          "velocity": 0.5039370078740157,
          "duration": 0.4838709999999935
        },
        {
          "name": "D4",
          "midi": 62,
          "time": 86.12903799999985,
          "velocity": 0.5039370078740157,
          "duration": 0.9677420000000012
        },
        {
          "name": "G3",
          "midi": 55,
          "time": 87.09677999999985,
          "velocity": 0.5039370078740157,
          "duration": 0.4838709999999935
        },
        {
          "name": "G3",
          "midi": 55,
          "time": 87.58065099999985,
          "velocity": 0.5039370078740157,
          "duration": 1.4516129999999947
        },
        {
          "name": "C3",
          "midi": 48,
          "time": 89.03226399999984,
          "velocity": 0.5039370078740157,
          "duration": 0.4838709999999935
        },
        {
          "name": "D3",
          "midi": 50,
          "time": 89.51613499999984,
          "velocity": 0.5039370078740157,
          "duration": 0.4838709999999935
        },
        {
          "name": "E3",
          "midi": 52,
          "time": 90.00000599999983,
          "velocity": 0.5039370078740157,
          "duration": 0.4838709999999935
        },
        {
          "name": "F3",
          "midi": 53,
          "time": 90.48387699999982,
          "velocity": 0.5039370078740157,
          "duration": 0.7258065000000045
        },
        {
          "name": "G3",
          "midi": 55,
          "time": 91.20968349999983,
          "velocity": 0.5039370078740157,
          "duration": 0.12096775000000548
        },
        {
          "name": "F3",
          "midi": 53,
          "time": 91.33065124999983,
          "velocity": 0.5039370078740157,
          "duration": 0.12096775000000548
        },
        {
          "name": "E3",
          "midi": 52,
          "time": 91.45161899999984,
          "velocity": 0.5039370078740157,
          "duration": 0.4838709999999935
        },
        {
          "name": "A3",
          "midi": 57,
          "time": 91.93548999999983,
          "velocity": 0.5039370078740157,
          "duration": 0.4838709999999935
        },
        {
          "name": "D3",
          "midi": 50,
          "time": 92.41936099999982,
          "velocity": 0.5039370078740157,
          "duration": 0.4838709999999935
        },
        {
          "name": "G3",
          "midi": 55,
          "time": 92.90323199999982,
          "velocity": 0.5039370078740157,
          "duration": 0.7258065000000045
        },
        {
          "name": "A3",
          "midi": 57,
          "time": 93.62903849999982,
          "velocity": 0.5039370078740157,
          "duration": 0.24193549999999675
        },
        {
          "name": "G3",
          "midi": 55,
          "time": 93.87097399999982,
          "velocity": 0.5039370078740157,
          "duration": 0.24193549999999675
        },
        {
          "name": "F3",
          "midi": 53,
          "time": 94.11290949999982,
          "velocity": 0.5039370078740157,
          "duration": 0.24193549999999675
        },
        {
          "name": "E3",
          "midi": 52,
          "time": 94.35484499999981,
          "velocity": 0.5039370078740157,
          "duration": 0.24193549999999675
        },
        {
          "name": "D3",
          "midi": 50,
          "time": 94.59678049999981,
          "velocity": 0.5039370078740157,
          "duration": 0.24193549999999675
        },
        {
          "name": "E3",
          "midi": 52,
          "time": 94.8387159999998,
          "velocity": 0.5039370078740157,
          "duration": 0.24193549999999675
        },
        {
          "name": "F3",
          "midi": 53,
          "time": 95.0806514999998,
          "velocity": 0.5039370078740157,
          "duration": 0.24193549999999675
        },
        {
          "name": "G3",
          "midi": 55,
          "time": 95.3225869999998,
          "velocity": 0.5039370078740157,
          "duration": 0.24193549999999675
        },
        {
          "name": "A3",
          "midi": 57,
          "time": 95.5645224999998,
          "velocity": 0.5039370078740157,
          "duration": 0.24193549999999675
        },
        {
          "name": "A#3",
          "midi": 58,
          "time": 95.8064579999998,
          "velocity": 0.5039370078740157,
          "duration": 0.24193549999999675
        },
        {
          "name": "G3",
          "midi": 55,
          "time": 96.04839349999979,
          "velocity": 0.5039370078740157,
          "duration": 0.24193549999999675
        },
        {
          "name": "A3",
          "midi": 57,
          "time": 96.29032899999979,
          "velocity": 0.5039370078740157,
          "duration": 0.24193549999999675
        },
        {
          "name": "E3",
          "midi": 52,
          "time": 96.53226449999978,
          "velocity": 0.5039370078740157,
          "duration": 0.24193549999999675
        },
        {
          "name": "F3",
          "midi": 53,
          "time": 96.77419999999978,
          "velocity": 0.5039370078740157,
          "duration": 0.24193549999999675
        },
        {
          "name": "G3",
          "midi": 55,
          "time": 97.01613549999978,
          "velocity": 0.5039370078740157,
          "duration": 0.24193549999999675
        },
        {
          "name": "A3",
          "midi": 57,
          "time": 97.25807099999977,
          "velocity": 0.5039370078740157,
          "duration": 0.24193549999999675
        },
        {
          "name": "B3",
          "midi": 59,
          "time": 97.50000649999977,
          "velocity": 0.5039370078740157,
          "duration": 0.24193549999999675
        },
        {
          "name": "C4",
          "midi": 60,
          "time": 97.74194199999977,
          "velocity": 0.5039370078740157,
          "duration": 0.24193549999999675
        },
        {
          "name": "A3",
          "midi": 57,
          "time": 97.98387749999976,
          "velocity": 0.5039370078740157,
          "duration": 0.24193549999999675
        },
        {
          "name": "B3",
          "midi": 59,
          "time": 98.22581299999976,
          "velocity": 0.5039370078740157,
          "duration": 1.9354840000000024
        },
        {
          "name": "C4",
          "midi": 60,
          "time": 100.16129699999976,
          "velocity": 0.5039370078740157,
          "duration": 3.870968000000005
        }],
      "controlChanges": {},
      "id": 3,
      "channelNumber": 2,
      "isPercussion": false
    },
    {
      "startTime": 17.419356,
      "duration": 104.03226499999982,
      "length": 143,
      "notes": [
        {
          "name": "C3",
          "midi": 48,
          "time": 17.419356,
          "velocity": 0.5039370078740157,
          "duration": 0.4838710000000006
        },
        {
          "name": "D3",
          "midi": 50,
          "time": 17.903227,
          "velocity": 0.5039370078740157,
          "duration": 0.4838710000000006
        },
        {
          "name": "E3",
          "midi": 52,
          "time": 18.387098,
          "velocity": 0.5039370078740157,
          "duration": 0.4838710000000006
        },
        {
          "name": "F3",
          "midi": 53,
          "time": 18.870969000000002,
          "velocity": 0.5039370078740157,
          "duration": 0.7258065000000009
        },
        {
          "name": "G3",
          "midi": 55,
          "time": 19.596775500000003,
          "velocity": 0.5039370078740157,
          "duration": 0.12096774999999838
        },
        {
          "name": "F3",
          "midi": 53,
          "time": 19.71774325,
          "velocity": 0.5039370078740157,
          "duration": 0.12096774999999838
        },
        {
          "name": "E3",
          "midi": 52,
          "time": 19.838711,
          "velocity": 0.5039370078740157,
          "duration": 0.4838710000000006
        },
        {
          "name": "A3",
          "midi": 57,
          "time": 20.322582,
          "velocity": 0.5039370078740157,
          "duration": 0.4838710000000006
        },
        {
          "name": "D3",
          "midi": 50,
          "time": 20.806453,
          "velocity": 0.5039370078740157,
          "duration": 0.4838710000000006
        },
        {
          "name": "G3",
          "midi": 55,
          "time": 21.290324000000002,
          "velocity": 0.5039370078740157,
          "duration": 0.7258065000000009
        },
        {
          "name": "A3",
          "midi": 57,
          "time": 22.016130500000003,
          "velocity": 0.5039370078740157,
          "duration": 0.2419355000000003
        },
        {
          "name": "G3",
          "midi": 55,
          "time": 22.258066000000003,
          "velocity": 0.5039370078740157,
          "duration": 0.2419355000000003
        },
        {
          "name": "F3",
          "midi": 53,
          "time": 22.500001500000003,
          "velocity": 0.5039370078740157,
          "duration": 0.2419355000000003
        },
        {
          "name": "E3",
          "midi": 52,
          "time": 22.741937000000004,
          "velocity": 0.5039370078740157,
          "duration": 0.2419355000000003
        },
        {
          "name": "F3",
          "midi": 53,
          "time": 22.983872500000004,
          "velocity": 0.5039370078740157,
          "duration": 0.2419355000000003
        },
        {
          "name": "E3",
          "midi": 52,
          "time": 23.225808000000004,
          "velocity": 0.5039370078740157,
          "duration": 0.2419355000000003
        },
        {
          "name": "D3",
          "midi": 50,
          "time": 23.467743500000005,
          "velocity": 0.5039370078740157,
          "duration": 0.2419355000000003
        },
        {
          "name": "C3",
          "midi": 48,
          "time": 23.709679000000005,
          "velocity": 0.5039370078740157,
          "duration": 0.2419355000000003
        },
        {
          "name": "D3",
          "midi": 50,
          "time": 23.951614500000005,
          "velocity": 0.5039370078740157,
          "duration": 0.2419355000000003
        },
        {
          "name": "C3",
          "midi": 48,
          "time": 24.193550000000005,
          "velocity": 0.5039370078740157,
          "duration": 0.2419355000000003
        },
        {
          "name": "B2",
          "midi": 47,
          "time": 24.435485500000006,
          "velocity": 0.5039370078740157,
          "duration": 0.2419355000000003
        },
        {
          "name": "A2",
          "midi": 45,
          "time": 24.677421000000006,
          "velocity": 0.5039370078740157,
          "duration": 0.4838710000000006
        },
        {
          "name": "D3",
          "midi": 50,
          "time": 25.161292000000007,
          "velocity": 0.5039370078740157,
          "duration": 0.4838710000000006
        },
        {
          "name": "A3",
          "midi": 57,
          "time": 25.645163000000007,
          "velocity": 0.5039370078740157,
          "duration": 0.4838710000000006
        },
        {
          "name": "F#3",
          "midi": 54,
          "time": 26.129034000000008,
          "velocity": 0.5039370078740157,
          "duration": 0.4838710000000006
        },
        {
          "name": "G3",
          "midi": 55,
          "time": 26.61290500000001,
          "velocity": 0.5039370078740157,
          "duration": 0.2419355000000003
        },
        {
          "name": "A3",
          "midi": 57,
          "time": 26.85484050000001,
          "velocity": 0.5039370078740157,
          "duration": 0.2419355000000003
        },
        {
          "name": "A#3",
          "midi": 58,
          "time": 27.09677600000001,
          "velocity": 0.5039370078740157,
          "duration": 0.2419355000000003
        },
        {
          "name": "G3",
          "midi": 55,
          "time": 27.33871150000001,
          "velocity": 0.5039370078740157,
          "duration": 0.2419355000000003
        },
        {
          "name": "C#3",
          "midi": 49,
          "time": 27.58064700000001,
          "velocity": 0.5039370078740157,
          "duration": 0.4838710000000006
        },
        {
          "name": "D3",
          "midi": 50,
          "time": 28.06451800000001,
          "velocity": 0.5039370078740157,
          "duration": 0.4838710000000006
        },
        {
          "name": "A3",
          "midi": 57,
          "time": 28.54838900000001,
          "velocity": 0.5039370078740157,
          "duration": 0.9677420000000012
        },
        {
          "name": "E3",
          "midi": 52,
          "time": 29.516131000000012,
          "velocity": 0.5039370078740157,
          "duration": 0.9677420000000012
        },
        {
          "name": "A3",
          "midi": 57,
          "time": 30.483873000000013,
          "velocity": 0.5039370078740157,
          "duration": 0.2419355000000003
        },
        {
          "name": "B3",
          "midi": 59,
          "time": 30.725808500000014,
          "velocity": 0.5039370078740157,
          "duration": 0.2419355000000003
        },
        {
          "name": "C4",
          "midi": 60,
          "time": 30.967744000000014,
          "velocity": 0.5039370078740157,
          "duration": 0.2419355000000003
        },
        {
          "name": "D4",
          "midi": 62,
          "time": 31.209679500000014,
          "velocity": 0.5039370078740157,
          "duration": 0.2419355000000003
        },
        {
          "name": "C4",
          "midi": 60,
          "time": 31.451615000000015,
          "velocity": 0.5039370078740157,
          "duration": 0.2419355000000003
        },
        {
          "name": "B3",
          "midi": 59,
          "time": 31.693550500000015,
          "velocity": 0.5039370078740157,
          "duration": 0.2419355000000003
        },
        {
          "name": "A3",
          "midi": 57,
          "time": 31.935486000000015,
          "velocity": 0.5039370078740157,
          "duration": 0.2419355000000003
        },
        {
          "name": "G3",
          "midi": 55,
          "time": 32.177421500000015,
          "velocity": 0.5039370078740157,
          "duration": 0.24193549999999675
        },
        {
          "name": "C4",
          "midi": 60,
          "time": 32.41935700000001,
          "velocity": 0.5039370078740157,
          "duration": 0.4838710000000006
        },
        {
          "name": "G2",
          "midi": 43,
          "time": 36.77419600000001,
          "velocity": 0.5039370078740157,
          "duration": 0.4838710000000006
        },
        {
          "name": "A2",
          "midi": 45,
          "time": 37.25806700000001,
          "velocity": 0.5039370078740157,
          "duration": 0.4838710000000006
        },
        {
          "name": "B2",
          "midi": 47,
          "time": 37.74193800000001,
          "velocity": 0.5039370078740157,
          "duration": 0.4838710000000006
        },
        {
          "name": "C3",
          "midi": 48,
          "time": 38.22580900000001,
          "velocity": 0.5039370078740157,
          "duration": 0.7258064999999974
        },
        {
          "name": "D3",
          "midi": 50,
          "time": 38.95161550000001,
          "velocity": 0.5039370078740157,
          "duration": 0.12096774999999838
        },
        {
          "name": "C3",
          "midi": 48,
          "time": 39.07258325000001,
          "velocity": 0.5039370078740157,
          "duration": 0.12096774999999838
        },
        {
          "name": "B2",
          "midi": 47,
          "time": 39.19355100000001,
          "velocity": 0.5039370078740157,
          "duration": 0.4838710000000006
        },
        {
          "name": "E3",
          "midi": 52,
          "time": 39.67742200000001,
          "velocity": 0.5039370078740157,
          "duration": 0.4838710000000006
        },
        {
          "name": "A2",
          "midi": 45,
          "time": 40.16129300000001,
          "velocity": 0.5039370078740157,
          "duration": 0.4838710000000006
        },
        {
          "name": "D3",
          "midi": 50,
          "time": 40.64516400000001,
          "velocity": 0.5039370078740157,
          "duration": 0.7258064999999974
        },
        {
          "name": "E3",
          "midi": 52,
          "time": 41.370970500000006,
          "velocity": 0.5039370078740157,
          "duration": 0.24193549999999675
        },
        {
          "name": "D3",
          "midi": 50,
          "time": 41.612906,
          "velocity": 0.5039370078740157,
          "duration": 0.24193549999999675
        },
        {
          "name": "C3",
          "midi": 48,
          "time": 41.8548415,
          "velocity": 0.5039370078740157,
          "duration": 0.24193549999999675
        },
        {
          "name": "B2",
          "midi": 47,
          "time": 42.096776999999996,
          "velocity": 0.5039370078740157,
          "duration": 0.4838710000000006
        },
        {
          "name": "E3",
          "midi": 52,
          "time": 42.580648,
          "velocity": 0.5039370078740157,
          "duration": 0.9677420000000012
        },
        {
          "name": "D3",
          "midi": 50,
          "time": 43.54839,
          "velocity": 0.5039370078740157,
          "duration": 0.4838710000000006
        },
        {
          "name": "C3",
          "midi": 48,
          "time": 44.032261,
          "velocity": 0.5039370078740157,
          "duration": 0.4838710000000006
        },
        {
          "name": "F3",
          "midi": 53,
          "time": 44.516132,
          "velocity": 0.5039370078740157,
          "duration": 0.9677420000000012
        },
        {
          "name": "E3",
          "midi": 52,
          "time": 45.483874,
          "velocity": 0.5039370078740157,
          "duration": 0.9677420000000012
        },
        {
          "name": "D3",
          "midi": 50,
          "time": 46.451616,
          "velocity": 0.5039370078740157,
          "duration": 0.9677420000000012
        },
        {
          "name": "E3",
          "midi": 52,
          "time": 47.419358,
          "velocity": 0.5039370078740157,
          "duration": 0.4838710000000006
        },
        {
          "name": "F3",
          "midi": 53,
          "time": 47.903229,
          "velocity": 0.5039370078740157,
          "duration": 0.4838710000000006
        },
        {
          "name": "E3",
          "midi": 52,
          "time": 48.387100000000004,
          "velocity": 0.5039370078740157,
          "duration": 0.24193549999999675
        },
        {
          "name": "D3",
          "midi": 50,
          "time": 48.6290355,
          "velocity": 0.5039370078740157,
          "duration": 0.24193549999999675
        },
        {
          "name": "E3",
          "midi": 52,
          "time": 48.870971,
          "velocity": 0.5039370078740157,
          "duration": 0.9677420000000012
        },
        {
          "name": "A2",
          "midi": 45,
          "time": 49.838713,
          "velocity": 0.5039370078740157,
          "duration": 0.9677420000000012
        },
        {
          "name": "G2",
          "midi": 43,
          "time": 54.193552,
          "velocity": 0.5039370078740157,
          "duration": 0.4838710000000006
        },
        {
          "name": "A2",
          "midi": 45,
          "time": 54.677423,
          "velocity": 0.5039370078740157,
          "duration": 0.4838710000000006
        },
        {
          "name": "B2",
          "midi": 47,
          "time": 55.161294,
          "velocity": 0.5039370078740157,
          "duration": 0.4838710000000006
        },
        {
          "name": "C3",
          "midi": 48,
          "time": 55.645165,
          "velocity": 0.5039370078740157,
          "duration": 0.7258064999999974
        },
        {
          "name": "D3",
          "midi": 50,
          "time": 56.370971499999996,
          "velocity": 0.5039370078740157,
          "duration": 0.12096774999999838
        },
        {
          "name": "C3",
          "midi": 48,
          "time": 56.491939249999994,
          "velocity": 0.5039370078740157,
          "duration": 0.12096774999999838
        },
        {
          "name": "B2",
          "midi": 47,
          "time": 56.61290699999999,
          "velocity": 0.5039370078740157,
          "duration": 0.4838710000000006
        },
        {
          "name": "E3",
          "midi": 52,
          "time": 57.09677799999999,
          "velocity": 0.5039370078740157,
          "duration": 0.4838710000000006
        },
        {
          "name": "A2",
          "midi": 45,
          "time": 57.580648999999994,
          "velocity": 0.5039370078740157,
          "duration": 0.4838710000000006
        },
        {
          "name": "D3",
          "midi": 50,
          "time": 58.064519999999995,
          "velocity": 0.5039370078740157,
          "duration": 0.7258064999999974
        },
        {
          "name": "E3",
          "midi": 52,
          "time": 58.79032649999999,
          "velocity": 0.5039370078740157,
          "duration": 0.24193549999999675
        },
        {
          "name": "D3",
          "midi": 50,
          "time": 59.03226199999999,
          "velocity": 0.5039370078740157,
          "duration": 0.24193549999999675
        },
        {
          "name": "C3",
          "midi": 48,
          "time": 59.274197499999985,
          "velocity": 0.5039370078740157,
          "duration": 0.24193549999999675
        },
        {
          "name": "B2",
          "midi": 47,
          "time": 59.51613299999998,
          "velocity": 0.5039370078740157,
          "duration": 0.4838710000000006
        },
        {
          "name": "A#2",
          "midi": 46,
          "time": 60.00000399999998,
          "velocity": 0.5039370078740157,
          "duration": 0.4838710000000006
        },
        {
          "name": "A2",
          "midi": 45,
          "time": 60.48387499999998,
          "velocity": 0.5039370078740157,
          "duration": 0.4838710000000006
        },
        {
          "name": "G2",
          "midi": 43,
          "time": 60.967745999999984,
          "velocity": 0.5039370078740157,
          "duration": 0.4838710000000006
        },
        {
          "name": "A2",
          "midi": 45,
          "time": 61.451616999999985,
          "velocity": 0.5039370078740157,
          "duration": 0.4838710000000006
        },
        {
          "name": "F#3",
          "midi": 54,
          "time": 61.935487999999985,
          "velocity": 0.5039370078740157,
          "duration": 0.4838710000000006
        },
        {
          "name": "G3",
          "midi": 55,
          "time": 62.419358999999986,
          "velocity": 0.5039370078740157,
          "duration": 0.4838710000000006
        },
        {
          "name": "E3",
          "midi": 52,
          "time": 62.903229999999986,
          "velocity": 0.5039370078740157,
          "duration": 0.4838710000000006
        },
        {
          "name": "D3",
          "midi": 50,
          "time": 63.38710099999999,
          "velocity": 0.5039370078740157,
          "duration": 0.9677420000000012
        },
        {
          "name": "E3",
          "midi": 52,
          "time": 64.35484299999999,
          "velocity": 0.5039370078740157,
          "duration": 0.4838709999999935
        },
        {
          "name": "F3",
          "midi": 53,
          "time": 64.83871399999998,
          "velocity": 0.5039370078740157,
          "duration": 0.4838709999999935
        },
        {
          "name": "G3",
          "midi": 55,
          "time": 65.32258499999998,
          "velocity": 0.5039370078740157,
          "duration": 0.7258065000000045
        },
        {
          "name": "A3",
          "midi": 57,
          "time": 66.04839149999998,
          "velocity": 0.5039370078740157,
          "duration": 0.12096775000000548
        },
        {
          "name": "G3",
          "midi": 55,
          "time": 66.16935924999999,
          "velocity": 0.5039370078740157,
          "duration": 0.12096775000000548
        },
        {
          "name": "F3",
          "midi": 53,
          "time": 66.29032699999999,
          "velocity": 0.5039370078740157,
          "duration": 0.4838709999999935
        },
        {
          "name": "A#3",
          "midi": 58,
          "time": 66.77419799999998,
          "velocity": 0.5039370078740157,
          "duration": 0.4838709999999935
        },
        {
          "name": "E3",
          "midi": 52,
          "time": 67.25806899999998,
          "velocity": 0.5039370078740157,
          "duration": 0.4838709999999935
        },
        {
          "name": "A3",
          "midi": 57,
          "time": 67.74193999999997,
          "velocity": 0.5039370078740157,
          "duration": 0.7258065000000045
        },
        {
          "name": "A#3",
          "midi": 58,
          "time": 68.46774649999998,
          "velocity": 0.5039370078740157,
          "duration": 0.24193549999999675
        },
        {
          "name": "A3",
          "midi": 57,
          "time": 68.70968199999997,
          "velocity": 0.5039370078740157,
          "duration": 0.24193549999999675
        },
        {
          "name": "G3",
          "midi": 55,
          "time": 68.95161749999997,
          "velocity": 0.5039370078740157,
          "duration": 0.24193549999999675
        },
        {
          "name": "F3",
          "midi": 53,
          "time": 69.19355299999997,
          "velocity": 0.5039370078740157,
          "duration": 0.24193549999999675
        },
        {
          "name": "E3",
          "midi": 52,
          "time": 69.43548849999996,
          "velocity": 0.5039370078740157,
          "duration": 0.24193549999999675
        },
        {
          "name": "F3",
          "midi": 53,
          "time": 69.67742399999996,
          "velocity": 0.5039370078740157,
          "duration": 0.24193549999999675
        },
        {
          "name": "D3",
          "midi": 50,
          "time": 69.91935949999996,
          "velocity": 0.5039370078740157,
          "duration": 0.24193549999999675
        },
        {
          "name": "G3",
          "midi": 55,
          "time": 70.16129499999995,
          "velocity": 0.5039370078740157,
          "duration": 0.4838709999999935
        },
        {
          "name": "A3",
          "midi": 57,
          "time": 70.64516599999995,
          "velocity": 0.5039370078740157,
          "duration": 0.4838709999999935
        },
        {
          "name": "D3",
          "midi": 50,
          "time": 71.12903699999994,
          "velocity": 0.5039370078740157,
          "duration": 2.177419499999999
        },
        {
          "name": "E3",
          "midi": 52,
          "time": 73.30645649999994,
          "velocity": 0.5039370078740157,
          "duration": 0.24193549999999675
        },
        {
          "name": "D3",
          "midi": 50,
          "time": 73.54839199999994,
          "velocity": 0.5039370078740157,
          "duration": 0.24193549999999675
        },
        {
          "name": "C3",
          "midi": 48,
          "time": 73.79032749999993,
          "velocity": 0.5039370078740157,
          "duration": 0.24193549999999675
        },
        {
          "name": "B2",
          "midi": 47,
          "time": 74.03226299999993,
          "velocity": 0.5039370078740157,
          "duration": 0.24193549999999675
        },
        {
          "name": "A2",
          "midi": 45,
          "time": 74.27419849999993,
          "velocity": 0.5039370078740157,
          "duration": 0.24193549999999675
        },
        {
          "name": "G2",
          "midi": 43,
          "time": 74.51613399999992,
          "velocity": 0.5039370078740157,
          "duration": 0.24193549999999675
        },
        {
          "name": "F#2",
          "midi": 42,
          "time": 74.75806949999992,
          "velocity": 0.5039370078740157,
          "duration": 0.24193549999999675
        },
        {
          "name": "E2",
          "midi": 40,
          "time": 75.00000499999992,
          "velocity": 0.5039370078740157,
          "duration": 0.4838709999999935
        },
        {
          "name": "E3",
          "midi": 52,
          "time": 75.48387599999991,
          "velocity": 0.5039370078740157,
          "duration": 0.4838709999999935
        },
        {
          "name": "F#3",
          "midi": 54,
          "time": 75.9677469999999,
          "velocity": 0.5039370078740157,
          "duration": 0.4838709999999935
        },
        {
          "name": "G3",
          "midi": 55,
          "time": 76.4516179999999,
          "velocity": 0.5039370078740157,
          "duration": 0.9677420000000012
        },
        {
          "name": "A3",
          "midi": 57,
          "time": 77.4193599999999,
          "velocity": 0.5039370078740157,
          "duration": 0.24193549999999675
        },
        {
          "name": "G3",
          "midi": 55,
          "time": 77.6612954999999,
          "velocity": 0.5039370078740157,
          "duration": 0.24193549999999675
        },
        {
          "name": "F#3",
          "midi": 54,
          "time": 77.90323099999989,
          "velocity": 0.5039370078740157,
          "duration": 0.4838709999999935
        },
        {
          "name": "D3",
          "midi": 50,
          "time": 78.38710199999989,
          "velocity": 0.5039370078740157,
          "duration": 0.4838709999999935
        },
        {
          "name": "G3",
          "midi": 55,
          "time": 78.87097299999988,
          "velocity": 0.5039370078740157,
          "duration": 3.870968000000005
        },
        {
          "name": "A3",
          "midi": 57,
          "time": 82.74194099999988,
          "velocity": 0.5039370078740157,
          "duration": 0.9677420000000012
        },
        {
          "name": "B3",
          "midi": 59,
          "time": 83.70968299999988,
          "velocity": 0.5039370078740157,
          "duration": 0.4838709999999935
        },
        {
          "name": "C4",
          "midi": 60,
          "time": 84.19355399999988,
          "velocity": 0.5039370078740157,
          "duration": 0.4838709999999935
        },
        {
          "name": "F3",
          "midi": 53,
          "time": 84.67742499999987,
          "velocity": 0.5039370078740157,
          "duration": 0.24193549999999675
        },
        {
          "name": "A3",
          "midi": 57,
          "time": 84.91936049999987,
          "velocity": 0.5039370078740157,
          "duration": 0.24193549999999675
        },
        {
          "name": "G3",
          "midi": 55,
          "time": 85.16129599999987,
          "velocity": 0.5039370078740157,
          "duration": 0.24193549999999675
        },
        {
          "name": "F3",
          "midi": 53,
          "time": 85.40323149999986,
          "velocity": 0.5039370078740157,
          "duration": 0.24193549999999675
        },
        {
          "name": "E3",
          "midi": 52,
          "time": 85.64516699999986,
          "velocity": 0.5039370078740157,
          "duration": 0.24193549999999675
        },
        {
          "name": "D3",
          "midi": 50,
          "time": 85.88710249999986,
          "velocity": 0.5039370078740157,
          "duration": 0.24193549999999675
        },
        {
          "name": "C3",
          "midi": 48,
          "time": 86.12903799999985,
          "velocity": 0.5039370078740157,
          "duration": 0.24193549999999675
        },
        {
          "name": "B2",
          "midi": 47,
          "time": 86.37097349999985,
          "velocity": 0.5039370078740157,
          "duration": 0.24193549999999675
        },
        {
          "name": "C3",
          "midi": 48,
          "time": 86.61290899999985,
          "velocity": 0.5039370078740157,
          "duration": 0.24193549999999675
        },
        {
          "name": "D3",
          "midi": 50,
          "time": 86.85484449999984,
          "velocity": 0.5039370078740157,
          "duration": 0.24193549999999675
        },
        {
          "name": "E3",
          "midi": 52,
          "time": 87.09677999999984,
          "velocity": 0.5039370078740157,
          "duration": 0.24193549999999675
        },
        {
          "name": "F3",
          "midi": 53,
          "time": 87.33871549999984,
          "velocity": 0.5039370078740157,
          "duration": 0.24193549999999675
        },
        {
          "name": "G3",
          "midi": 55,
          "time": 87.58065099999983,
          "velocity": 0.5039370078740157,
          "duration": 0.4838709999999935
        },
        {
          "name": "G2",
          "midi": 43,
          "time": 88.06452199999983,
          "velocity": 0.5039370078740157,
          "duration": 0.4838709999999935
        },
        {
          "name": "C3",
          "midi": 48,
          "time": 88.54839299999982,
          "velocity": 0.5039370078740157,
          "duration": 15.483872000000005
        }],
      "controlChanges": {},
      "id": 4,
      "channelNumber": 0,
      "isPercussion": false
    }
  ]
}