{
  "header": {
    "PPQ": 120,
    "bpm": 60,
    "timeSignature": [
      4,
      4
    ],
    "name": ""
  },
  "startTime": 0,
  "duration": 108.0000000000003,
  "tracks": [
    
    {
      "startTime": 8,
      "duration": 108.00000000000021,
      "length": 271,
      "notes": [
        {
          "name": "A4",
          "midi": 69,
          "time": 8,
          "velocity": 0.5039370078740157,
          "duration": 0.16666666666666607
        },
        {
          "name": "B4",
          "midi": 71,
          "time": 8.158333333333333,
          "velocity": 0.5039370078740157,
          "duration": 0.16666666666666607
        },
        {
          "name": "C5",
          "midi": 72,
          "time": 8.333333333333332,
          "velocity": 0.5039370078740157,
          "duration": 0.16666666666666607
        },
        {
          "name": "D5",
          "midi": 74,
          "time": 8.499999999999998,
          "velocity": 0.5039370078740157,
          "duration": 0.16666666666666607
        },
        {
          "name": "C5",
          "midi": 72,
          "time": 8.666666666666664,
          "velocity": 0.5039370078740157,
          "duration": 0.16666666666666607
        },
        {
          "name": "B4",
          "midi": 71,
          "time": 8.83333333333333,
          "velocity": 0.5039370078740157,
          "duration": 0.16666666666666607
        },
        {
          "name": "C5",
          "midi": 72,
          "time": 8.999999999999996,
          "velocity": 0.5039370078740157,
          "duration": 0.16666666666666607
        },
        {
          "name": "D5",
          "midi": 74,
          "time": 9.166666666666663,
          "velocity": 0.5039370078740157,
          "duration": 0.16666666666666607
        },
        {
          "name": "E5",
          "midi": 76,
          "time": 9.333333333333329,
          "velocity": 0.5039370078740157,
          "duration": 0.16666666666666607
        },
        {
          "name": "F5",
          "midi": 77,
          "time": 9.499999999999995,
          "velocity": 0.5039370078740157,
          "duration": 0.16666666666666607
        },
        {
          "name": "E5",
          "midi": 76,
          "time": 9.66666666666666,
          "velocity": 0.5039370078740157,
          "duration": 0.16666666666666607
        },
        {
          "name": "D5",
          "midi": 74,
          "time": 9.833333333333327,
          "velocity": 0.5039370078740157,
          "duration": 0.16666666666666607
        },
        {
          "name": "E5",
          "midi": 76,
          "time": 9.999999999999993,
          "velocity": 0.5039370078740157,
          "duration": 0.5
        },
        {
          "name": "A5",
          "midi": 81,
          "time": 10.499999999999993,
          "velocity": 0.5039370078740157,
          "duration": 0.5
        },
        {
          "name": "G#5",
          "midi": 80,
          "time": 10.999999999999993,
          "velocity": 0.5039370078740157,
          "duration": 0.5
        },
        {
          "name": "G5",
          "midi": 79,
          "time": 11.499999999999993,
          "velocity": 0.5039370078740157,
          "duration": 0.5
        },
        {
          "name": "F#5",
          "midi": 78,
          "time": 11.999999999999993,
          "velocity": 0.5039370078740157,
          "duration": 0.5
        },
        {
          "name": "F5",
          "midi": 77,
          "time": 12.499999999999993,
          "velocity": 0.5039370078740157,
          "duration": 0.5
        },
        {
          "name": "E5",
          "midi": 76,
          "time": 12.999999999999993,
          "velocity": 0.5039370078740157,
          "duration": 0.5
        },
        {
          "name": "D5",
          "midi": 74,
          "time": 13.499999999999993,
          "velocity": 0.5039370078740157,
          "duration": 1
        },
        {
          "name": "C5",
          "midi": 72,
          "time": 14.499999999999993,
          "velocity": 0.5039370078740157,
          "duration": 0.5
        },
        {
          "name": "B4",
          "midi": 71,
          "time": 14.999999999999993,
          "velocity": 0.5039370078740157,
          "duration": 0.5
        },
        {
          "name": "E5",
          "midi": 76,
          "time": 15.499999999999993,
          "velocity": 0.5039370078740157,
          "duration": 0.5
        },
        {
          "name": "A4",
          "midi": 69,
          "time": 15.999999999999993,
          "velocity": 0.5039370078740157,
          "duration": 0.5
        },
        {
          "name": "B4",
          "midi": 71,
          "time": 16.499999999999993,
          "velocity": 0.5039370078740157,
          "duration": 0.5
        },
        {
          "name": "C5",
          "midi": 72,
          "time": 16.999999999999993,
          "velocity": 0.5039370078740157,
          "duration": 0.5
        },
        {
          "name": "G#4",
          "midi": 68,
          "time": 17.499999999999993,
          "velocity": 0.5039370078740157,
          "duration": 0.5
        },
        {
          "name": "A4",
          "midi": 69,
          "time": 17.999999999999993,
          "velocity": 0.5039370078740157,
          "duration": 0.16666666666666785
        },
        {
          "name": "G4",
          "midi": 67,
          "time": 18.16666666666666,
          "velocity": 0.5039370078740157,
          "duration": 0.16666666666666785
        },
        {
          "name": "F4",
          "midi": 65,
          "time": 18.33333333333333,
          "velocity": 0.5039370078740157,
          "duration": 0.16666666666666785
        },
        {
          "name": "E4",
          "midi": 64,
          "time": 18.499999999999996,
          "velocity": 0.5039370078740157,
          "duration": 0.16666666666666785
        },
        {
          "name": "F4",
          "midi": 65,
          "time": 18.666666666666664,
          "velocity": 0.5039370078740157,
          "duration": 0.16666666666666785
        },
        {
          "name": "G4",
          "midi": 67,
          "time": 18.833333333333332,
          "velocity": 0.5039370078740157,
          "duration": 0.16666666666666785
        },
        {
          "name": "F4",
          "midi": 65,
          "time": 19,
          "velocity": 0.5039370078740157,
          "duration": 0.16666666666666785
        },
        {
          "name": "E4",
          "midi": 64,
          "time": 19.166666666666668,
          "velocity": 0.5039370078740157,
          "duration": 0.16666666666666785
        },
        {
          "name": "D4",
          "midi": 62,
          "time": 19.333333333333336,
          "velocity": 0.5039370078740157,
          "duration": 0.16666666666666785
        },
        {
          "name": "C#4",
          "midi": 61,
          "time": 19.500000000000004,
          "velocity": 0.5039370078740157,
          "duration": 0.16666666666666785
        },
        {
          "name": "D4",
          "midi": 62,
          "time": 19.66666666666667,
          "velocity": 0.5039370078740157,
          "duration": 0.16666666666666785
        },
        {
          "name": "E4",
          "midi": 64,
          "time": 19.83333333333334,
          "velocity": 0.5039370078740157,
          "duration": 0.16666666666666785
        },
        {
          "name": "D4",
          "midi": 62,
          "time": 20.000000000000007,
          "velocity": 0.5039370078740157,
          "duration": 0.5
        },
        {
          "name": "C#4",
          "midi": 61,
          "time": 20.500000000000007,
          "velocity": 0.5039370078740157,
          "duration": 0.5
        },
        {
          "name": "D4",
          "midi": 62,
          "time": 21.000000000000007,
          "velocity": 0.5039370078740157,
          "duration": 0.5
        },
        {
          "name": "G4",
          "midi": 67,
          "time": 21.500000000000007,
          "velocity": 0.5039370078740157,
          "duration": 0.75
        },
        {
          "name": "E4",
          "midi": 64,
          "time": 22.250000000000007,
          "velocity": 0.5039370078740157,
          "duration": 0.25
        },
        {
          "name": "F4",
          "midi": 65,
          "time": 22.500000000000007,
          "velocity": 0.5039370078740157,
          "duration": 0.25
        },
        {
          "name": "G4",
          "midi": 67,
          "time": 22.750000000000007,
          "velocity": 0.5039370078740157,
          "duration": 0.25
        },
        {
          "name": "A4",
          "midi": 69,
          "time": 23.000000000000007,
          "velocity": 0.5039370078740157,
          "duration": 0.25
        },
        {
          "name": "B4",
          "midi": 71,
          "time": 23.250000000000007,
          "velocity": 0.5039370078740157,
          "duration": 0.25
        },
        {
          "name": "C5",
          "midi": 72,
          "time": 23.500000000000007,
          "velocity": 0.5039370078740157,
          "duration": 0.25
        },
        {
          "name": "A4",
          "midi": 69,
          "time": 23.750000000000007,
          "velocity": 0.5039370078740157,
          "duration": 0.25
        },
        {
          "name": "D5",
          "midi": 74,
          "time": 24.000000000000007,
          "velocity": 0.5039370078740157,
          "duration": 0.25
        },
        {
          "name": "C#5",
          "midi": 73,
          "time": 24.250000000000007,
          "velocity": 0.5039370078740157,
          "duration": 0.25
        },
        {
          "name": "D5",
          "midi": 74,
          "time": 24.500000000000007,
          "velocity": 0.5039370078740157,
          "duration": 0.25
        },
        {
          "name": "E5",
          "midi": 76,
          "time": 24.750000000000007,
          "velocity": 0.5039370078740157,
          "duration": 0.25
        },
        {
          "name": "F5",
          "midi": 77,
          "time": 25.000000000000007,
          "velocity": 0.5039370078740157,
          "duration": 0.25
        },
        {
          "name": "B4",
          "midi": 71,
          "time": 25.250000000000007,
          "velocity": 0.5039370078740157,
          "duration": 0.25
        },
        {
          "name": "E5",
          "midi": 76,
          "time": 25.500000000000007,
          "velocity": 0.5039370078740157,
          "duration": 0.25
        },
        {
          "name": "D5",
          "midi": 74,
          "time": 25.750000000000007,
          "velocity": 0.5039370078740157,
          "duration": 0.25
        },
        {
          "name": "C#5",
          "midi": 73,
          "time": 26.000000000000007,
          "velocity": 0.5039370078740157,
          "duration": 0.25
        },
        {
          "name": "A4",
          "midi": 69,
          "time": 26.250000000000007,
          "velocity": 0.5039370078740157,
          "duration": 0.25
        },
        {
          "name": "D5",
          "midi": 74,
          "time": 26.500000000000007,
          "velocity": 0.5039370078740157,
          "duration": 1
        },
        {
          "name": "C5",
          "midi": 72,
          "time": 27.500000000000007,
          "velocity": 0.5039370078740157,
          "duration": 1
        },
        {
          "name": "A#4",
          "midi": 70,
          "time": 28.500000000000007,
          "velocity": 0.5039370078740157,
          "duration": 0.5
        },
        {
          "name": "A4",
          "midi": 69,
          "time": 29.000000000000007,
          "velocity": 0.5039370078740157,
          "duration": 1
        },
        {
          "name": "G4",
          "midi": 67,
          "time": 30.000000000000007,
          "velocity": 0.5039370078740157,
          "duration": 0.25
        },
        {
          "name": "G5",
          "midi": 79,
          "time": 30.250000000000007,
          "velocity": 0.5039370078740157,
          "duration": 0.25
        },
        {
          "name": "A5",
          "midi": 81,
          "time": 30.500000000000007,
          "velocity": 0.5039370078740157,
          "duration": 0.25
        },
        {
          "name": "G5",
          "midi": 79,
          "time": 30.750000000000007,
          "velocity": 0.5039370078740157,
          "duration": 0.25
        },
        {
          "name": "F5",
          "midi": 77,
          "time": 31.000000000000007,
          "velocity": 0.5039370078740157,
          "duration": 0.25
        },
        {
          "name": "A5",
          "midi": 81,
          "time": 31.250000000000007,
          "velocity": 0.5039370078740157,
          "duration": 0.25
        },
        {
          "name": "G5",
          "midi": 79,
          "time": 31.500000000000007,
          "velocity": 0.5039370078740157,
          "duration": 0.25
        },
        {
          "name": "F5",
          "midi": 77,
          "time": 31.750000000000007,
          "velocity": 0.5039370078740157,
          "duration": 0.25
        },
        {
          "name": "E5",
          "midi": 76,
          "time": 32.00000000000001,
          "velocity": 0.5039370078740157,
          "duration": 0.25
        },
        {
          "name": "C5",
          "midi": 72,
          "time": 32.25000000000001,
          "velocity": 0.5039370078740157,
          "duration": 0.25
        },
        {
          "name": "F5",
          "midi": 77,
          "time": 32.50000000000001,
          "velocity": 0.5039370078740157,
          "duration": 1
        },
        {
          "name": "E5",
          "midi": 76,
          "time": 33.50000000000001,
          "velocity": 0.5039370078740157,
          "duration": 0.75
        },
        {
          "name": "F5",
          "midi": 77,
          "time": 34.25000000000001,
          "velocity": 0.5039370078740157,
          "duration": 0.5
        },
        {
          "name": "E5",
          "midi": 76,
          "time": 34.75000000000001,
          "velocity": 0.5039370078740157,
          "duration": 0.5
        },
        {
          "name": "D5",
          "midi": 74,
          "time": 35.25000000000001,
          "velocity": 0.5039370078740157,
          "duration": 0.5
        },
        {
          "name": "C#5",
          "midi": 73,
          "time": 35.75000000000001,
          "velocity": 0.5039370078740157,
          "duration": 0.25
        },
        {
          "name": "D5",
          "midi": 74,
          "time": 36.00000000000001,
          "velocity": 0.5039370078740157,
          "duration": 0.5
        },
        {
          "name": "A#4",
          "midi": 70,
          "time": 36.50000000000001,
          "velocity": 0.5039370078740157,
          "duration": 0.5
        },
        {
          "name": "A4",
          "midi": 69,
          "time": 37.00000000000001,
          "velocity": 0.5039370078740157,
          "duration": 0.1666666666666643
        },
        {
          "name": "G4",
          "midi": 67,
          "time": 37.16666666666667,
          "velocity": 0.5039370078740157,
          "duration": 0.1666666666666643
        },
        {
          "name": "F4",
          "midi": 65,
          "time": 37.333333333333336,
          "velocity": 0.5039370078740157,
          "duration": 0.1666666666666643
        },
        {
          "name": "E4",
          "midi": 64,
          "time": 37.5,
          "velocity": 0.5039370078740157,
          "duration": 0.1666666666666643
        },
        {
          "name": "F4",
          "midi": 65,
          "time": 37.666666666666664,
          "velocity": 0.5039370078740157,
          "duration": 0.1666666666666643
        },
        {
          "name": "G4",
          "midi": 67,
          "time": 37.83333333333333,
          "velocity": 0.5039370078740157,
          "duration": 0.1666666666666643
        },
        {
          "name": "F4",
          "midi": 65,
          "time": 37.99999999999999,
          "velocity": 0.5039370078740157,
          "duration": 0.1666666666666643
        },
        {
          "name": "E4",
          "midi": 64,
          "time": 38.16666666666666,
          "velocity": 0.5039370078740157,
          "duration": 0.1666666666666643
        },
        {
          "name": "D4",
          "midi": 62,
          "time": 38.33333333333332,
          "velocity": 0.5039370078740157,
          "duration": 0.1666666666666643
        },
        {
          "name": "C#4",
          "midi": 61,
          "time": 38.499999999999986,
          "velocity": 0.5039370078740157,
          "duration": 0.1666666666666643
        },
        {
          "name": "D4",
          "midi": 62,
          "time": 38.66666666666665,
          "velocity": 0.5039370078740157,
          "duration": 0.1666666666666643
        },
        {
          "name": "E4",
          "midi": 64,
          "time": 38.833333333333314,
          "velocity": 0.5039370078740157,
          "duration": 0.1666666666666643
        },
        {
          "name": "D4",
          "midi": 62,
          "time": 38.99999999999998,
          "velocity": 0.5039370078740157,
          "duration": 0.1666666666666643
        },
        {
          "name": "E4",
          "midi": 64,
          "time": 39.16666666666664,
          "velocity": 0.5039370078740157,
          "duration": 0.1666666666666643
        },
        {
          "name": "F4",
          "midi": 65,
          "time": 39.33333333333331,
          "velocity": 0.5039370078740157,
          "duration": 0.1666666666666643
        },
        {
          "name": "G4",
          "midi": 67,
          "time": 39.49999999999997,
          "velocity": 0.5039370078740157,
          "duration": 0.1666666666666643
        },
        {
          "name": "F4",
          "midi": 65,
          "time": 39.666666666666636,
          "velocity": 0.5039370078740157,
          "duration": 0.1666666666666643
        },
        {
          "name": "E4",
          "midi": 64,
          "time": 39.8333333333333,
          "velocity": 0.5039370078740157,
          "duration": 0.1666666666666643
        },
        {
          "name": "F4",
          "midi": 65,
          "time": 39.999999999999964,
          "velocity": 0.5039370078740157,
          "duration": 0.1666666666666643
        },
        {
          "name": "G4",
          "midi": 67,
          "time": 40.16666666666663,
          "velocity": 0.5039370078740157,
          "duration": 0.1666666666666643
        },
        {
          "name": "A4",
          "midi": 69,
          "time": 40.33333333333329,
          "velocity": 0.5039370078740157,
          "duration": 0.1666666666666643
        },
        {
          "name": "A#4",
          "midi": 70,
          "time": 40.49999999999996,
          "velocity": 0.5039370078740157,
          "duration": 0.1666666666666643
        },
        {
          "name": "A4",
          "midi": 69,
          "time": 40.66666666666662,
          "velocity": 0.5039370078740157,
          "duration": 0.1666666666666643
        },
        {
          "name": "G4",
          "midi": 67,
          "time": 40.833333333333286,
          "velocity": 0.5039370078740157,
          "duration": 0.1666666666666643
        },
        {
          "name": "A4",
          "midi": 69,
          "time": 40.99999999999995,
          "velocity": 0.5039370078740157,
          "duration": 0.5
        },
        {
          "name": "D5",
          "midi": 74,
          "time": 41.49999999999995,
          "velocity": 0.5039370078740157,
          "duration": 0.5
        },
        {
          "name": "C#5",
          "midi": 73,
          "time": 41.99999999999995,
          "velocity": 0.5039370078740157,
          "duration": 0.5
        },
        {
          "name": "C5",
          "midi": 72,
          "time": 42.49999999999995,
          "velocity": 0.5039370078740157,
          "duration": 0.5
        },
        {
          "name": "B4",
          "midi": 71,
          "time": 42.99999999999995,
          "velocity": 0.5039370078740157,
          "duration": 0.5
        },
        {
          "name": "A#4",
          "midi": 70,
          "time": 43.49999999999995,
          "velocity": 0.5039370078740157,
          "duration": 0.5
        },
        {
          "name": "A4",
          "midi": 69,
          "time": 43.99999999999995,
          "velocity": 0.5039370078740157,
          "duration": 0.5
        },
        {
          "name": "A5",
          "midi": 81,
          "time": 44.49999999999995,
          "velocity": 0.5039370078740157,
          "duration": 0.5
        },
        {
          "name": "G#5",
          "midi": 80,
          "time": 44.99999999999995,
          "velocity": 0.5039370078740157,
          "duration": 0.5
        },
        {
          "name": "G5",
          "midi": 79,
          "time": 45.49999999999995,
          "velocity": 0.5039370078740157,
          "duration": 0.5
        },
        {
          "name": "F#5",
          "midi": 78,
          "time": 45.99999999999995,
          "velocity": 0.5039370078740157,
          "duration": 0.5
        },
        {
          "name": "F5",
          "midi": 77,
          "time": 46.49999999999995,
          "velocity": 0.5039370078740157,
          "duration": 0.5
        },
        {
          "name": "E5",
          "midi": 76,
          "time": 46.99999999999995,
          "velocity": 0.5039370078740157,
          "duration": 1.5
        },
        {
          "name": "D5",
          "midi": 74,
          "time": 48.49999999999995,
          "velocity": 0.5039370078740157,
          "duration": 1
        },
        {
          "name": "C#5",
          "midi": 73,
          "time": 49.49999999999995,
          "velocity": 0.5039370078740157,
          "duration": 0.5
        },
        {
          "name": "A5",
          "midi": 81,
          "time": 50.24999999999995,
          "velocity": 0.5039370078740157,
          "duration": 0.25
        },
        {
          "name": "A4",
          "midi": 69,
          "time": 50.24999999999995,
          "velocity": 0.5039370078740157,
          "duration": 0.25
        },
        {
          "name": "A#5",
          "midi": 82,
          "time": 50.49999999999995,
          "velocity": 0.5039370078740157,
          "duration": 0.25
        },
        {
          "name": "A#4",
          "midi": 70,
          "time": 50.49999999999995,
          "velocity": 0.5039370078740157,
          "duration": 0.25
        },
        {
          "name": "A5",
          "midi": 81,
          "time": 50.74999999999995,
          "velocity": 0.5039370078740157,
          "duration": 0.25
        },
        {
          "name": "A4",
          "midi": 69,
          "time": 50.74999999999995,
          "velocity": 0.5039370078740157,
          "duration": 0.25
        },
        {
          "name": "G5",
          "midi": 79,
          "time": 50.99999999999995,
          "velocity": 0.5039370078740157,
          "duration": 0.25
        },
        {
          "name": "G4",
          "midi": 67,
          "time": 50.99999999999995,
          "velocity": 0.5039370078740157,
          "duration": 0.25
        },
        {
          "name": "A#5",
          "midi": 82,
          "time": 51.24999999999995,
          "velocity": 0.5039370078740157,
          "duration": 0.25
        },
        {
          "name": "A#4",
          "midi": 70,
          "time": 51.24999999999995,
          "velocity": 0.5039370078740157,
          "duration": 0.25
        },
        {
          "name": "A5",
          "midi": 81,
          "time": 51.49999999999995,
          "velocity": 0.5039370078740157,
          "duration": 0.25
        },
        {
          "name": "A4",
          "midi": 69,
          "time": 51.49999999999995,
          "velocity": 0.5039370078740157,
          "duration": 0.25
        },
        {
          "name": "G5",
          "midi": 79,
          "time": 51.74999999999995,
          "velocity": 0.5039370078740157,
          "duration": 0.25
        },
        {
          "name": "G4",
          "midi": 67,
          "time": 51.74999999999995,
          "velocity": 0.5039370078740157,
          "duration": 0.25
        },
        {
          "name": "F5",
          "midi": 77,
          "time": 51.99999999999995,
          "velocity": 0.5039370078740157,
          "duration": 0.1666666666666643
        },
        {
          "name": "F4",
          "midi": 65,
          "time": 51.99999999999995,
          "velocity": 0.5039370078740157,
          "duration": 0.4999999999999929
        },
        {
          "name": "E5",
          "midi": 76,
          "time": 52.166666666666615,
          "velocity": 0.5039370078740157,
          "duration": 0.1666666666666643
        },
        {
          "name": "D5",
          "midi": 74,
          "time": 52.33333333333328,
          "velocity": 0.5039370078740157,
          "duration": 0.1666666666666643
        },
        {
          "name": "C#5",
          "midi": 73,
          "time": 52.49999999999994,
          "velocity": 0.5039370078740157,
          "duration": 0.1666666666666643
        },
        {
          "name": "D5",
          "midi": 74,
          "time": 52.66666666666661,
          "velocity": 0.5039370078740157,
          "duration": 0.1666666666666643
        },
        {
          "name": "E5",
          "midi": 76,
          "time": 52.83333333333327,
          "velocity": 0.5039370078740157,
          "duration": 0.1666666666666643
        },
        {
          "name": "A4",
          "midi": 69,
          "time": 52.999999999999936,
          "velocity": 0.5039370078740157,
          "duration": 0.1666666666666643
        },
        {
          "name": "B4",
          "midi": 71,
          "time": 53.1666666666666,
          "velocity": 0.5039370078740157,
          "duration": 0.1666666666666643
        },
        {
          "name": "C#5",
          "midi": 73,
          "time": 53.333333333333265,
          "velocity": 0.5039370078740157,
          "duration": 0.1666666666666643
        },
        {
          "name": "D5",
          "midi": 74,
          "time": 53.49999999999993,
          "velocity": 0.5039370078740157,
          "duration": 0.1666666666666643
        },
        {
          "name": "C#5",
          "midi": 73,
          "time": 53.66666666666659,
          "velocity": 0.5039370078740157,
          "duration": 0.1666666666666643
        },
        {
          "name": "B4",
          "midi": 71,
          "time": 53.83333333333326,
          "velocity": 0.5039370078740157,
          "duration": 0.1666666666666643
        },
        {
          "name": "C#5",
          "midi": 73,
          "time": 53.99999999999992,
          "velocity": 0.5039370078740157,
          "duration": 0.1666666666666643
        },
        {
          "name": "D5",
          "midi": 74,
          "time": 54.166666666666586,
          "velocity": 0.5039370078740157,
          "duration": 0.1666666666666643
        },
        {
          "name": "E5",
          "midi": 76,
          "time": 54.33333333333325,
          "velocity": 0.5039370078740157,
          "duration": 0.1666666666666643
        },
        {
          "name": "F5",
          "midi": 77,
          "time": 54.499999999999915,
          "velocity": 0.5039370078740157,
          "duration": 0.1666666666666643
        },
        {
          "name": "E5",
          "midi": 76,
          "time": 54.66666666666658,
          "velocity": 0.5039370078740157,
          "duration": 0.1666666666666643
        },
        {
          "name": "D5",
          "midi": 74,
          "time": 54.83333333333324,
          "velocity": 0.5039370078740157,
          "duration": 0.1666666666666643
        },
        {
          "name": "E5",
          "midi": 76,
          "time": 54.99999999999991,
          "velocity": 0.5039370078740157,
          "duration": 0.5
        },
        {
          "name": "A5",
          "midi": 81,
          "time": 55.49999999999991,
          "velocity": 0.5039370078740157,
          "duration": 0.5
        },
        {
          "name": "G#5",
          "midi": 80,
          "time": 55.99999999999991,
          "velocity": 0.5039370078740157,
          "duration": 0.5
        },
        {
          "name": "G5",
          "midi": 79,
          "time": 56.49999999999991,
          "velocity": 0.5039370078740157,
          "duration": 0.5
        },
        {
          "name": "F#5",
          "midi": 78,
          "time": 56.99999999999991,
          "velocity": 0.5039370078740157,
          "duration": 0.5
        },
        {
          "name": "F5",
          "midi": 77,
          "time": 57.49999999999991,
          "velocity": 0.5039370078740157,
          "duration": 0.5
        },
        {
          "name": "E5",
          "midi": 76,
          "time": 57.99999999999991,
          "velocity": 0.5039370078740157,
          "duration": 0.5
        },
        {
          "name": "D5",
          "midi": 74,
          "time": 58.49999999999991,
          "velocity": 0.5039370078740157,
          "duration": 1
        },
        {
          "name": "C5",
          "midi": 72,
          "time": 59.49999999999991,
          "velocity": 0.5039370078740157,
          "duration": 0.5
        },
        {
          "name": "B4",
          "midi": 71,
          "time": 59.99999999999991,
          "velocity": 0.5039370078740157,
          "duration": 0.5
        },
        {
          "name": "A#4",
          "midi": 70,
          "time": 60.49999999999991,
          "velocity": 0.5039370078740157,
          "duration": 1
        },
        {
          "name": "A4",
          "midi": 69,
          "time": 61.49999999999991,
          "velocity": 0.5039370078740157,
          "duration": 0.5
        },
        {
          "name": "G#4",
          "midi": 68,
          "time": 61.99999999999991,
          "velocity": 0.5039370078740157,
          "duration": 0.5
        },
        {
          "name": "G4",
          "midi": 67,
          "time": 62.49999999999991,
          "velocity": 0.5039370078740157,
          "duration": 1
        },
        {
          "name": "F4",
          "midi": 65,
          "time": 63.49999999999991,
          "velocity": 0.5039370078740157,
          "duration": 0.5
        },
        {
          "name": "E4",
          "midi": 64,
          "time": 63.99999999999991,
          "velocity": 0.5039370078740157,
          "duration": 0.5000000000000071
        },
        {
          "name": "D4",
          "midi": 62,
          "time": 67.16666666666659,
          "velocity": 0.5039370078740157,
          "duration": 0.1666666666666714
        },
        {
          "name": "E4",
          "midi": 64,
          "time": 67.32499999999992,
          "velocity": 0.5039370078740157,
          "duration": 0.1666666666666714
        },
        {
          "name": "F4",
          "midi": 65,
          "time": 67.49999999999993,
          "velocity": 0.5039370078740157,
          "duration": 0.1666666666666714
        },
        {
          "name": "E4",
          "midi": 64,
          "time": 67.6666666666666,
          "velocity": 0.5039370078740157,
          "duration": 0.1666666666666714
        },
        {
          "name": "D4",
          "midi": 62,
          "time": 67.82499999999993,
          "velocity": 0.5039370078740157,
          "duration": 0.1666666666666714
        },
        {
          "name": "A#4",
          "midi": 70,
          "time": 68.1666666666666,
          "velocity": 0.5039370078740157,
          "duration": 0.1666666666666714
        },
        {
          "name": "A4",
          "midi": 69,
          "time": 68.33333333333327,
          "velocity": 0.5039370078740157,
          "duration": 0.1666666666666714
        },
        {
          "name": "G4",
          "midi": 67,
          "time": 68.49999999999994,
          "velocity": 0.5039370078740157,
          "duration": 0.1666666666666714
        },
        {
          "name": "A4",
          "midi": 69,
          "time": 68.66666666666661,
          "velocity": 0.5039370078740157,
          "duration": 0.1666666666666714
        },
        {
          "name": "A#4",
          "midi": 70,
          "time": 68.83333333333329,
          "velocity": 0.5039370078740157,
          "duration": 0.1666666666666714
        },
        {
          "name": "A4",
          "midi": 69,
          "time": 69.16666666666663,
          "velocity": 0.5039370078740157,
          "duration": 0.1666666666666714
        },
        {
          "name": "A#4",
          "midi": 70,
          "time": 69.3333333333333,
          "velocity": 0.5039370078740157,
          "duration": 0.1666666666666714
        },
        {
          "name": "C5",
          "midi": 72,
          "time": 69.49999999999997,
          "velocity": 0.5039370078740157,
          "duration": 0.1666666666666714
        },
        {
          "name": "A#4",
          "midi": 70,
          "time": 69.66666666666664,
          "velocity": 0.5039370078740157,
          "duration": 0.1666666666666714
        },
        {
          "name": "A4",
          "midi": 69,
          "time": 69.83333333333331,
          "velocity": 0.5039370078740157,
          "duration": 0.1666666666666714
        },
        {
          "name": "A#4",
          "midi": 70,
          "time": 69.99999999999999,
          "velocity": 0.5039370078740157,
          "duration": 0.5
        },
        {
          "name": "F#4",
          "midi": 66,
          "time": 70.49999999999999,
          "velocity": 0.5039370078740157,
          "duration": 0.5
        },
        {
          "name": "G4",
          "midi": 67,
          "time": 70.99999999999999,
          "velocity": 0.5039370078740157,
          "duration": 0.1666666666666714
        },
        {
          "name": "A4",
          "midi": 69,
          "time": 71.16666666666666,
          "velocity": 0.5039370078740157,
          "duration": 0.1666666666666714
        },
        {
          "name": "A#4",
          "midi": 70,
          "time": 71.33333333333333,
          "velocity": 0.5039370078740157,
          "duration": 0.1666666666666714
        },
        {
          "name": "C5",
          "midi": 72,
          "time": 71.5,
          "velocity": 0.5039370078740157,
          "duration": 0.1666666666666714
        },
        {
          "name": "A#4",
          "midi": 70,
          "time": 71.66666666666667,
          "velocity": 0.5039370078740157,
          "duration": 0.1666666666666714
        },
        {
          "name": "A4",
          "midi": 69,
          "time": 71.83333333333334,
          "velocity": 0.5039370078740157,
          "duration": 0.1666666666666714
        },
        {
          "name": "A#4",
          "midi": 70,
          "time": 72.00000000000001,
          "velocity": 0.5039370078740157,
          "duration": 0.1666666666666714
        },
        {
          "name": "C5",
          "midi": 72,
          "time": 72.16666666666669,
          "velocity": 0.5039370078740157,
          "duration": 0.1666666666666714
        },
        {
          "name": "D5",
          "midi": 74,
          "time": 72.33333333333336,
          "velocity": 0.5039370078740157,
          "duration": 0.1666666666666714
        },
        {
          "name": "D#5",
          "midi": 75,
          "time": 72.50000000000003,
          "velocity": 0.5039370078740157,
          "duration": 0.1666666666666714
        },
        {
          "name": "D5",
          "midi": 74,
          "time": 72.6666666666667,
          "velocity": 0.5039370078740157,
          "duration": 0.1666666666666714
        },
        {
          "name": "C#5",
          "midi": 73,
          "time": 72.83333333333337,
          "velocity": 0.5039370078740157,
          "duration": 0.1666666666666714
        },
        {
          "name": "D5",
          "midi": 74,
          "time": 73.00000000000004,
          "velocity": 0.5039370078740157,
          "duration": 1.5
        },
        {
          "name": "G5",
          "midi": 79,
          "time": 75.00000000000004,
          "velocity": 0.5039370078740157,
          "duration": 0.1666666666666714
        },
        {
          "name": "F5",
          "midi": 77,
          "time": 75.16666666666671,
          "velocity": 0.5039370078740157,
          "duration": 0.1666666666666714
        },
        {
          "name": "E5",
          "midi": 76,
          "time": 75.33333333333339,
          "velocity": 0.5039370078740157,
          "duration": 0.1666666666666714
        },
        {
          "name": "D5",
          "midi": 74,
          "time": 75.50000000000006,
          "velocity": 0.5039370078740157,
          "duration": 0.1666666666666714
        },
        {
          "name": "E5",
          "midi": 76,
          "time": 75.66666666666673,
          "velocity": 0.5039370078740157,
          "duration": 0.1666666666666714
        },
        {
          "name": "F5",
          "midi": 77,
          "time": 75.8333333333334,
          "velocity": 0.5039370078740157,
          "duration": 0.1666666666666714
        },
        {
          "name": "E5",
          "midi": 76,
          "time": 76.00000000000007,
          "velocity": 0.5039370078740157,
          "duration": 0.5
        },
        {
          "name": "G5",
          "midi": 79,
          "time": 76.50000000000007,
          "velocity": 0.5039370078740157,
          "duration": 0.5
        },
        {
          "name": "C5",
          "midi": 72,
          "time": 77.00000000000007,
          "velocity": 0.5039370078740157,
          "duration": 0.5
        },
        {
          "name": "F5",
          "midi": 77,
          "time": 79.00000000000007,
          "velocity": 0.5039370078740157,
          "duration": 0.1666666666666714
        },
        {
          "name": "D#5",
          "midi": 75,
          "time": 79.16666666666674,
          "velocity": 0.5039370078740157,
          "duration": 0.1666666666666714
        },
        {
          "name": "D5",
          "midi": 74,
          "time": 79.33333333333341,
          "velocity": 0.5039370078740157,
          "duration": 0.1666666666666714
        },
        {
          "name": "C5",
          "midi": 72,
          "time": 79.50000000000009,
          "velocity": 0.5039370078740157,
          "duration": 0.1666666666666714
        },
        {
          "name": "D5",
          "midi": 74,
          "time": 79.66666666666676,
          "velocity": 0.5039370078740157,
          "duration": 0.1666666666666714
        },
        {
          "name": "D#5",
          "midi": 75,
          "time": 79.83333333333343,
          "velocity": 0.5039370078740157,
          "duration": 0.1666666666666714
        },
        {
          "name": "D5",
          "midi": 74,
          "time": 80.0000000000001,
          "velocity": 0.5039370078740157,
          "duration": 1
        },
        {
          "name": "C#5",
          "midi": 73,
          "time": 81.0000000000001,
          "velocity": 0.5039370078740157,
          "duration": 0.1666666666666714
        },
        {
          "name": "D5",
          "midi": 74,
          "time": 81.16666666666677,
          "velocity": 0.5039370078740157,
          "duration": 0.1666666666666714
        },
        {
          "name": "E5",
          "midi": 76,
          "time": 81.33333333333344,
          "velocity": 0.5039370078740157,
          "duration": 0.1666666666666714
        },
        {
          "name": "F5",
          "midi": 77,
          "time": 81.50000000000011,
          "velocity": 0.5039370078740157,
          "duration": 0.1666666666666714
        },
        {
          "name": "E5",
          "midi": 76,
          "time": 81.66666666666679,
          "velocity": 0.5039370078740157,
          "duration": 0.1666666666666714
        },
        {
          "name": "D5",
          "midi": 74,
          "time": 81.83333333333346,
          "velocity": 0.5039370078740157,
          "duration": 0.1666666666666714
        },
        {
          "name": "E5",
          "midi": 76,
          "time": 82.00000000000013,
          "velocity": 0.5039370078740157,
          "duration": 0.1666666666666714
        },
        {
          "name": "F5",
          "midi": 77,
          "time": 82.1666666666668,
          "velocity": 0.5039370078740157,
          "duration": 0.1666666666666714
        },
        {
          "name": "G5",
          "midi": 79,
          "time": 82.33333333333347,
          "velocity": 0.5039370078740157,
          "duration": 0.1666666666666714
        },
        {
          "name": "A5",
          "midi": 81,
          "time": 82.50000000000014,
          "velocity": 0.5039370078740157,
          "duration": 0.1666666666666714
        },
        {
          "name": "G5",
          "midi": 79,
          "time": 82.66666666666681,
          "velocity": 0.5039370078740157,
          "duration": 0.1666666666666714
        },
        {
          "name": "F5",
          "midi": 77,
          "time": 82.83333333333348,
          "velocity": 0.5039370078740157,
          "duration": 0.1666666666666714
        },
        {
          "name": "G5",
          "midi": 79,
          "time": 83.00000000000016,
          "velocity": 0.5039370078740157,
          "duration": 0.5
        },
        {
          "name": "F5",
          "midi": 77,
          "time": 83.50000000000016,
          "velocity": 0.5039370078740157,
          "duration": 0.5
        },
        {
          "name": "E5",
          "midi": 76,
          "time": 84.00000000000016,
          "velocity": 0.5039370078740157,
          "duration": 1.25
        },
        {
          "name": "D5",
          "midi": 74,
          "time": 85.25000000000016,
          "velocity": 0.5039370078740157,
          "duration": 0.25
        },
        {
          "name": "D#5",
          "midi": 75,
          "time": 85.50000000000016,
          "velocity": 0.5039370078740157,
          "duration": 0.25
        },
        {
          "name": "D5",
          "midi": 74,
          "time": 85.75000000000016,
          "velocity": 0.5039370078740157,
          "duration": 0.25
        },
        {
          "name": "C#5",
          "midi": 73,
          "time": 86.00000000000016,
          "velocity": 0.5039370078740157,
          "duration": 0.25
        },
        {
          "name": "E5",
          "midi": 76,
          "time": 86.25000000000016,
          "velocity": 0.5039370078740157,
          "duration": 0.25
        },
        {
          "name": "D5",
          "midi": 74,
          "time": 86.50000000000016,
          "velocity": 0.5039370078740157,
          "duration": 0.25
        },
        {
          "name": "C5",
          "midi": 72,
          "time": 86.75000000000016,
          "velocity": 0.5039370078740157,
          "duration": 0.25
        },
        {
          "name": "B4",
          "midi": 71,
          "time": 87.00000000000016,
          "velocity": 0.5039370078740157,
          "duration": 0.5
        },
        {
          "name": "A#4",
          "midi": 70,
          "time": 87.50000000000016,
          "velocity": 0.5039370078740157,
          "duration": 0.5
        },
        {
          "name": "A4",
          "midi": 69,
          "time": 88.00000000000016,
          "velocity": 0.5039370078740157,
          "duration": 1.5
        },
        {
          "name": "G4",
          "midi": 67,
          "time": 89.50000000000016,
          "velocity": 0.5039370078740157,
          "duration": 1
        },
        {
          "name": "F4",
          "midi": 65,
          "time": 90.50000000000016,
          "velocity": 0.5039370078740157,
          "duration": 0.5
        },
        {
          "name": "E4",
          "midi": 64,
          "time": 91.00000000000016,
          "velocity": 0.5039370078740157,
          "duration": 1
        },
        {
          "name": "D4",
          "midi": 62,
          "time": 92.00000000000016,
          "velocity": 0.5039370078740157,
          "duration": 1
        },
        {
          "name": "D4",
          "midi": 62,
          "time": 98.00000000000016,
          "velocity": 0.5039370078740157,
          "duration": 0.1666666666666714
        },
        {
          "name": "E4",
          "midi": 64,
          "time": 98.16666666666683,
          "velocity": 0.5039370078740157,
          "duration": 0.1666666666666714
        },
        {
          "name": "F4",
          "midi": 65,
          "time": 98.3333333333335,
          "velocity": 0.5039370078740157,
          "duration": 0.1666666666666714
        },
        {
          "name": "G4",
          "midi": 67,
          "time": 98.50000000000017,
          "velocity": 0.5039370078740157,
          "duration": 0.1666666666666714
        },
        {
          "name": "F4",
          "midi": 65,
          "time": 98.66666666666684,
          "velocity": 0.5039370078740157,
          "duration": 0.1666666666666714
        },
        {
          "name": "E4",
          "midi": 64,
          "time": 98.83333333333351,
          "velocity": 0.5039370078740157,
          "duration": 0.1666666666666714
        },
        {
          "name": "F4",
          "midi": 65,
          "time": 99.00000000000018,
          "velocity": 0.5039370078740157,
          "duration": 0.1666666666666714
        },
        {
          "name": "G4",
          "midi": 67,
          "time": 99.16666666666686,
          "velocity": 0.5039370078740157,
          "duration": 0.1666666666666714
        },
        {
          "name": "A4",
          "midi": 69,
          "time": 99.33333333333353,
          "velocity": 0.5039370078740157,
          "duration": 0.1666666666666714
        },
        {
          "name": "A#4",
          "midi": 70,
          "time": 99.5000000000002,
          "velocity": 0.5039370078740157,
          "duration": 0.1666666666666714
        },
        {
          "name": "A4",
          "midi": 69,
          "time": 99.66666666666687,
          "velocity": 0.5039370078740157,
          "duration": 0.1666666666666714
        },
        {
          "name": "G4",
          "midi": 67,
          "time": 99.83333333333354,
          "velocity": 0.5039370078740157,
          "duration": 0.1666666666666714
        },
        {
          "name": "A4",
          "midi": 69,
          "time": 100.00000000000021,
          "velocity": 0.5039370078740157,
          "duration": 0.5
        },
        {
          "name": "D5",
          "midi": 74,
          "time": 100.50000000000021,
          "velocity": 0.5039370078740157,
          "duration": 0.5
        },
        {
          "name": "C#5",
          "midi": 73,
          "time": 101.00000000000021,
          "velocity": 0.5039370078740157,
          "duration": 0.5
        },
        {
          "name": "C5",
          "midi": 72,
          "time": 101.50000000000021,
          "velocity": 0.5039370078740157,
          "duration": 0.5
        },
        {
          "name": "B4",
          "midi": 71,
          "time": 102.00000000000021,
          "velocity": 0.5039370078740157,
          "duration": 0.5
        },
        {
          "name": "A#4",
          "midi": 70,
          "time": 102.50000000000021,
          "velocity": 0.5039370078740157,
          "duration": 0.5
        },
        {
          "name": "A4",
          "midi": 69,
          "time": 103.00000000000021,
          "velocity": 0.5039370078740157,
          "duration": 0.5
        },
        {
          "name": "G4",
          "midi": 67,
          "time": 103.50000000000021,
          "velocity": 0.5039370078740157,
          "duration": 0.75
        },
        {
          "name": "G4",
          "midi": 67,
          "time": 104.25000000000021,
          "velocity": 0.5039370078740157,
          "duration": 0.25
        },
        {
          "name": "F4",
          "midi": 65,
          "time": 104.50000000000021,
          "velocity": 0.5039370078740157,
          "duration": 0.25
        },
        {
          "name": "E4",
          "midi": 64,
          "time": 104.75000000000021,
          "velocity": 0.5039370078740157,
          "duration": 0.25
        },
        {
          "name": "E4",
          "midi": 64,
          "time": 105.00000000000021,
          "velocity": 0.5039370078740157,
          "duration": 0.75
        },
        {
          "name": "D4",
          "midi": 62,
          "time": 105.75000000000021,
          "velocity": 0.5039370078740157,
          "duration": 0.25
        },
        {
          "name": "D4",
          "midi": 62,
          "time": 106.00000000000021,
          "velocity": 0.5039370078740157,
          "duration": 2
        }
      ],
      "controlChanges": {},
      "id": 1,
      "channelNumber": 0,
      "isPercussion": false
    },
    {
      "startTime": 0,
      "duration": 108.00000000000017,
      "length": 265,
      "notes": [
        {
          "name": "D4",
          "midi": 62,
          "time": 0,
          "velocity": 0.5039370078740157,
          "duration": 0.16666666666666666
        },
        {
          "name": "E4",
          "midi": 64,
          "time": 0.16666666666666666,
          "velocity": 0.5039370078740157,
          "duration": 0.16666666666666666
        },
        {
          "name": "F4",
          "midi": 65,
          "time": 0.3333333333333333,
          "velocity": 0.5039370078740157,
          "duration": 0.16666666666666669
        },
        {
          "name": "G4",
          "midi": 67,
          "time": 0.5,
          "velocity": 0.5039370078740157,
          "duration": 0.16666666666666663
        },
        {
          "name": "F4",
          "midi": 65,
          "time": 0.6666666666666666,
          "velocity": 0.5039370078740157,
          "duration": 0.16666666666666663
        },
        {
          "name": "E4",
          "midi": 64,
          "time": 0.8333333333333333,
          "velocity": 0.5039370078740157,
          "duration": 0.16666666666666663
        },
        {
          "name": "F4",
          "midi": 65,
          "time": 0.9999999999999999,
          "velocity": 0.5039370078740157,
          "duration": 0.16666666666666663
        },
        {
          "name": "G4",
          "midi": 67,
          "time": 1.1666666666666665,
          "velocity": 0.5039370078740157,
          "duration": 0.16666666666666674
        },
        {
          "name": "A4",
          "midi": 69,
          "time": 1.3333333333333333,
          "velocity": 0.5039370078740157,
          "duration": 0.16666666666666674
        },
        {
          "name": "A#4",
          "midi": 70,
          "time": 1.5,
          "velocity": 0.5039370078740157,
          "duration": 0.16666666666666674
        },
        {
          "name": "A4",
          "midi": 69,
          "time": 1.6666666666666667,
          "velocity": 0.5039370078740157,
          "duration": 0.16666666666666674
        },
        {
          "name": "G4",
          "midi": 67,
          "time": 1.8333333333333335,
          "velocity": 0.5039370078740157,
          "duration": 0.16666666666666652
        },
        {
          "name": "A4",
          "midi": 69,
          "time": 2,
          "velocity": 0.5039370078740157,
          "duration": 0.5
        },
        {
          "name": "D5",
          "midi": 74,
          "time": 2.5,
          "velocity": 0.5039370078740157,
          "duration": 0.5
        },
        {
          "name": "C#5",
          "midi": 73,
          "time": 3,
          "velocity": 0.5039370078740157,
          "duration": 0.5
        },
        {
          "name": "C5",
          "midi": 72,
          "time": 3.5,
          "velocity": 0.5039370078740157,
          "duration": 0.5
        },
        {
          "name": "B4",
          "midi": 71,
          "time": 4,
          "velocity": 0.5039370078740157,
          "duration": 0.5
        },
        {
          "name": "A#4",
          "midi": 70,
          "time": 4.5,
          "velocity": 0.5039370078740157,
          "duration": 0.5
        },
        {
          "name": "A4",
          "midi": 69,
          "time": 5,
          "velocity": 0.5039370078740157,
          "duration": 0.5
        },
        {
          "name": "G4",
          "midi": 67,
          "time": 5.5,
          "velocity": 0.5039370078740157,
          "duration": 1
        },
        {
          "name": "F4",
          "midi": 65,
          "time": 6.5,
          "velocity": 0.5039370078740157,
          "duration": 0.5
        },
        {
          "name": "E4",
          "midi": 64,
          "time": 7,
          "velocity": 0.5039370078740157,
          "duration": 0.5
        },
        {
          "name": "A4",
          "midi": 69,
          "time": 7.5,
          "velocity": 0.5039370078740157,
          "duration": 0.5
        },
        {
          "name": "F4",
          "midi": 65,
          "time": 8,
          "velocity": 0.5039370078740157,
          "duration": 0.5
        },
        {
          "name": "D4",
          "midi": 62,
          "time": 8.5,
          "velocity": 0.5039370078740157,
          "duration": 0.5
        },
        {
          "name": "A4",
          "midi": 69,
          "time": 9,
          "velocity": 0.5039370078740157,
          "duration": 0.5
        },
        {
          "name": "B3",
          "midi": 59,
          "time": 10.25,
          "velocity": 0.5039370078740157,
          "duration": 0.25
        },
        {
          "name": "C4",
          "midi": 60,
          "time": 10.5,
          "velocity": 0.5039370078740157,
          "duration": 0.25
        },
        {
          "name": "D4",
          "midi": 62,
          "time": 10.75,
          "velocity": 0.5039370078740157,
          "duration": 0.25
        },
        {
          "name": "E4",
          "midi": 64,
          "time": 11,
          "velocity": 0.5039370078740157,
          "duration": 0.25
        },
        {
          "name": "F#4",
          "midi": 66,
          "time": 11.25,
          "velocity": 0.5039370078740157,
          "duration": 0.25
        },
        {
          "name": "G4",
          "midi": 67,
          "time": 11.5,
          "velocity": 0.5039370078740157,
          "duration": 0.25
        },
        {
          "name": "E4",
          "midi": 64,
          "time": 11.75,
          "velocity": 0.5039370078740157,
          "duration": 0.25
        },
        {
          "name": "A4",
          "midi": 69,
          "time": 12,
          "velocity": 0.5039370078740157,
          "duration": 0.25
        },
        {
          "name": "G#4",
          "midi": 68,
          "time": 12.25,
          "velocity": 0.5039370078740157,
          "duration": 0.25
        },
        {
          "name": "A4",
          "midi": 69,
          "time": 12.5,
          "velocity": 0.5039370078740157,
          "duration": 0.25
        },
        {
          "name": "B4",
          "midi": 71,
          "time": 12.75,
          "velocity": 0.5039370078740157,
          "duration": 0.25
        },
        {
          "name": "C5",
          "midi": 72,
          "time": 13,
          "velocity": 0.5039370078740157,
          "duration": 0.25
        },
        {
          "name": "F#4",
          "midi": 66,
          "time": 13.25,
          "velocity": 0.5039370078740157,
          "duration": 0.25
        },
        {
          "name": "B4",
          "midi": 71,
          "time": 13.5,
          "velocity": 0.5039370078740157,
          "duration": 0.25
        },
        {
          "name": "A4",
          "midi": 69,
          "time": 13.75,
          "velocity": 0.5039370078740157,
          "duration": 0.25
        },
        {
          "name": "G#4",
          "midi": 68,
          "time": 14,
          "velocity": 0.5039370078740157,
          "duration": 0.25
        },
        {
          "name": "E4",
          "midi": 64,
          "time": 14.25,
          "velocity": 0.5039370078740157,
          "duration": 0.25
        },
        {
          "name": "A4",
          "midi": 69,
          "time": 14.5,
          "velocity": 0.5039370078740157,
          "duration": 1
        },
        {
          "name": "G4",
          "midi": 67,
          "time": 15.5,
          "velocity": 0.5039370078740157,
          "duration": 0.6666666666666679
        },
        {
          "name": "F4",
          "midi": 65,
          "time": 16.166666666666668,
          "velocity": 0.5039370078740157,
          "duration": 0.16666666666666785
        },
        {
          "name": "E4",
          "midi": 64,
          "time": 16.325000000000003,
          "velocity": 0.5039370078740157,
          "duration": 0.16666666666666785
        },
        {
          "name": "D4",
          "midi": 62,
          "time": 16.500000000000004,
          "velocity": 0.5039370078740157,
          "duration": 0.16666666666666785
        },
        {
          "name": "E4",
          "midi": 64,
          "time": 16.66666666666667,
          "velocity": 0.5039370078740157,
          "duration": 0.16666666666666785
        },
        {
          "name": "F4",
          "midi": 65,
          "time": 16.825000000000006,
          "velocity": 0.5039370078740157,
          "duration": 0.16666666666666785
        },
        {
          "name": "E4",
          "midi": 64,
          "time": 17.000000000000007,
          "velocity": 0.5039370078740157,
          "duration": 0.16666666666666785
        },
        {
          "name": "D4",
          "midi": 62,
          "time": 17.166666666666675,
          "velocity": 0.5039370078740157,
          "duration": 0.16666666666666785
        },
        {
          "name": "C4",
          "midi": 60,
          "time": 17.333333333333343,
          "velocity": 0.5039370078740157,
          "duration": 0.16666666666666785
        },
        {
          "name": "B3",
          "midi": 59,
          "time": 17.50000000000001,
          "velocity": 0.5039370078740157,
          "duration": 0.16666666666666785
        },
        {
          "name": "C4",
          "midi": 60,
          "time": 17.66666666666668,
          "velocity": 0.5039370078740157,
          "duration": 0.16666666666666785
        },
        {
          "name": "D4",
          "midi": 62,
          "time": 17.833333333333346,
          "velocity": 0.5039370078740157,
          "duration": 0.16666666666666785
        },
        {
          "name": "C4",
          "midi": 60,
          "time": 18.000000000000014,
          "velocity": 0.5039370078740157,
          "duration": 0.5
        },
        {
          "name": "C#4",
          "midi": 61,
          "time": 18.500000000000014,
          "velocity": 0.5039370078740157,
          "duration": 0.5
        },
        {
          "name": "D4",
          "midi": 62,
          "time": 19.000000000000014,
          "velocity": 0.5039370078740157,
          "duration": 0.5
        },
        {
          "name": "G3",
          "midi": 55,
          "time": 19.500000000000014,
          "velocity": 0.5039370078740157,
          "duration": 0.5
        },
        {
          "name": "F3",
          "midi": 53,
          "time": 20.000000000000014,
          "velocity": 0.5039370078740157,
          "duration": 0.5
        },
        {
          "name": "A#3",
          "midi": 58,
          "time": 20.500000000000014,
          "velocity": 0.5039370078740157,
          "duration": 0.5
        },
        {
          "name": "A3",
          "midi": 57,
          "time": 21.000000000000014,
          "velocity": 0.5039370078740157,
          "duration": 0.5
        },
        {
          "name": "D4",
          "midi": 62,
          "time": 21.500000000000014,
          "velocity": 0.5039370078740157,
          "duration": 0.5
        },
        {
          "name": "C#4",
          "midi": 61,
          "time": 22.000000000000014,
          "velocity": 0.5039370078740157,
          "duration": 0.5
        },
        {
          "name": "D4",
          "midi": 62,
          "time": 22.500000000000014,
          "velocity": 0.5039370078740157,
          "duration": 0.5
        },
        {
          "name": "E4",
          "midi": 64,
          "time": 23.000000000000014,
          "velocity": 0.5039370078740157,
          "duration": 1
        },
        {
          "name": "D4",
          "midi": 62,
          "time": 24.000000000000014,
          "velocity": 0.5039370078740157,
          "duration": 1
        },
        {
          "name": "A4",
          "midi": 69,
          "time": 26.250000000000014,
          "velocity": 0.5039370078740157,
          "duration": 0.25
        },
        {
          "name": "A#4",
          "midi": 70,
          "time": 26.500000000000014,
          "velocity": 0.5039370078740157,
          "duration": 0.25
        },
        {
          "name": "A4",
          "midi": 69,
          "time": 26.750000000000014,
          "velocity": 0.5039370078740157,
          "duration": 0.25
        },
        {
          "name": "G4",
          "midi": 67,
          "time": 27.000000000000014,
          "velocity": 0.5039370078740157,
          "duration": 0.25
        },
        {
          "name": "A#4",
          "midi": 70,
          "time": 27.250000000000014,
          "velocity": 0.5039370078740157,
          "duration": 0.25
        },
        {
          "name": "A4",
          "midi": 69,
          "time": 27.500000000000014,
          "velocity": 0.5039370078740157,
          "duration": 0.25
        },
        {
          "name": "A4",
          "midi": 69,
          "time": 27.500000000000014,
          "velocity": 0.5039370078740157,
          "duration": 0.25
        },
        {
          "name": "G4",
          "midi": 67,
          "time": 27.750000000000014,
          "velocity": 0.5039370078740157,
          "duration": 0.25
        },
        {
          "name": "G4",
          "midi": 67,
          "time": 27.750000000000014,
          "velocity": 0.5039370078740157,
          "duration": 0.25
        },
        {
          "name": "F#4",
          "midi": 66,
          "time": 28.000000000000014,
          "velocity": 0.5039370078740157,
          "duration": 0.25
        },
        {
          "name": "F#4",
          "midi": 66,
          "time": 28.000000000000014,
          "velocity": 0.5039370078740157,
          "duration": 0.5
        },
        {
          "name": "D4",
          "midi": 62,
          "time": 28.250000000000014,
          "velocity": 0.5039370078740157,
          "duration": 0.25
        },
        {
          "name": "G4",
          "midi": 67,
          "time": 28.500000000000014,
          "velocity": 0.5039370078740157,
          "duration": 1
        },
        {
          "name": "F4",
          "midi": 65,
          "time": 29.500000000000014,
          "velocity": 0.5039370078740157,
          "duration": 1
        },
        {
          "name": "E4",
          "midi": 64,
          "time": 30.500000000000014,
          "velocity": 0.5039370078740157,
          "duration": 0.5
        },
        {
          "name": "D4",
          "midi": 62,
          "time": 31.000000000000014,
          "velocity": 0.5039370078740157,
          "duration": 1
        },
        {
          "name": "C4",
          "midi": 60,
          "time": 32.000000000000014,
          "velocity": 0.5039370078740157,
          "duration": 0.25
        },
        {
          "name": "C5",
          "midi": 72,
          "time": 32.250000000000014,
          "velocity": 0.5039370078740157,
          "duration": 0.25
        },
        {
          "name": "D5",
          "midi": 74,
          "time": 32.500000000000014,
          "velocity": 0.5039370078740157,
          "duration": 0.25
        },
        {
          "name": "C5",
          "midi": 72,
          "time": 32.750000000000014,
          "velocity": 0.5039370078740157,
          "duration": 0.25
        },
        {
          "name": "A#4",
          "midi": 70,
          "time": 33.000000000000014,
          "velocity": 0.5039370078740157,
          "duration": 0.25
        },
        {
          "name": "D5",
          "midi": 74,
          "time": 33.250000000000014,
          "velocity": 0.5039370078740157,
          "duration": 0.25
        },
        {
          "name": "C5",
          "midi": 72,
          "time": 33.500000000000014,
          "velocity": 0.5039370078740157,
          "duration": 0.25
        },
        {
          "name": "A#4",
          "midi": 70,
          "time": 33.750000000000014,
          "velocity": 0.5039370078740157,
          "duration": 0.25
        },
        {
          "name": "A4",
          "midi": 69,
          "time": 34.000000000000014,
          "velocity": 0.5039370078740157,
          "duration": 0.5
        },
        {
          "name": "G4",
          "midi": 67,
          "time": 34.500000000000014,
          "velocity": 0.5039370078740157,
          "duration": 0.5
        },
        {
          "name": "F4",
          "midi": 65,
          "time": 35.000000000000014,
          "velocity": 0.5039370078740157,
          "duration": 0.5
        },
        {
          "name": "E4",
          "midi": 64,
          "time": 35.500000000000014,
          "velocity": 0.5039370078740157,
          "duration": 0.5
        },
        {
          "name": "F4",
          "midi": 65,
          "time": 36.000000000000014,
          "velocity": 0.5039370078740157,
          "duration": 0.5
        },
        {
          "name": "C#4",
          "midi": 61,
          "time": 36.500000000000014,
          "velocity": 0.5039370078740157,
          "duration": 0.5
        },
        {
          "name": "D4",
          "midi": 62,
          "time": 37.000000000000014,
          "velocity": 0.5039370078740157,
          "duration": 1.5
        },
        {
          "name": "A#3",
          "midi": 58,
          "time": 38.500000000000014,
          "velocity": 0.5039370078740157,
          "duration": 0.5
        },
        {
          "name": "A3",
          "midi": 57,
          "time": 39.000000000000014,
          "velocity": 0.5039370078740157,
          "duration": 1.1666666666666643
        },
        {
          "name": "G3",
          "midi": 55,
          "time": 40.16666666666668,
          "velocity": 0.5039370078740157,
          "duration": 0.1666666666666643
        },
        {
          "name": "F3",
          "midi": 53,
          "time": 40.33333333333334,
          "velocity": 0.5039370078740157,
          "duration": 0.1666666666666643
        },
        {
          "name": "E3",
          "midi": 52,
          "time": 40.50000000000001,
          "velocity": 0.5039370078740157,
          "duration": 0.1666666666666643
        },
        {
          "name": "F3",
          "midi": 53,
          "time": 40.66666666666667,
          "velocity": 0.5039370078740157,
          "duration": 0.1666666666666643
        },
        {
          "name": "G3",
          "midi": 55,
          "time": 40.833333333333336,
          "velocity": 0.5039370078740157,
          "duration": 0.1666666666666643
        },
        {
          "name": "F3",
          "midi": 53,
          "time": 41,
          "velocity": 0.5039370078740157,
          "duration": 0.75
        },
        {
          "name": "G3",
          "midi": 55,
          "time": 41.75,
          "velocity": 0.5039370078740157,
          "duration": 0.25
        },
        {
          "name": "G3",
          "midi": 55,
          "time": 42.25,
          "velocity": 0.5039370078740157,
          "duration": 0.25
        },
        {
          "name": "F#3",
          "midi": 54,
          "time": 42.5,
          "velocity": 0.5039370078740157,
          "duration": 0.5
        },
        {
          "name": "F3",
          "midi": 53,
          "time": 43.25,
          "velocity": 0.5039370078740157,
          "duration": 0.25
        },
        {
          "name": "E3",
          "midi": 52,
          "time": 43.5,
          "velocity": 0.5039370078740157,
          "duration": 0.5
        },
        {
          "name": "D#3",
          "midi": 51,
          "time": 44.25,
          "velocity": 0.5039370078740157,
          "duration": 0.25
        },
        {
          "name": "D3",
          "midi": 50,
          "time": 44.5,
          "velocity": 0.5039370078740157,
          "duration": 0.5
        },
        {
          "name": "D3",
          "midi": 50,
          "time": 45.25,
          "velocity": 0.5039370078740157,
          "duration": 0.25
        },
        {
          "name": "C#3",
          "midi": 49,
          "time": 45.5,
          "velocity": 0.5039370078740157,
          "duration": 0.5
        },
        {
          "name": "D3",
          "midi": 50,
          "time": 46,
          "velocity": 0.5039370078740157,
          "duration": 0.25
        },
        {
          "name": "A4",
          "midi": 69,
          "time": 46.25,
          "velocity": 0.5039370078740157,
          "duration": 0.25
        },
        {
          "name": "A#4",
          "midi": 70,
          "time": 46.5,
          "velocity": 0.5039370078740157,
          "duration": 0.25
        },
        {
          "name": "A4",
          "midi": 69,
          "time": 46.75,
          "velocity": 0.5039370078740157,
          "duration": 0.25
        },
        {
          "name": "G4",
          "midi": 67,
          "time": 47,
          "velocity": 0.5039370078740157,
          "duration": 0.25
        },
        {
          "name": "A#4",
          "midi": 70,
          "time": 47.25,
          "velocity": 0.5039370078740157,
          "duration": 0.25
        },
        {
          "name": "A4",
          "midi": 69,
          "time": 47.5,
          "velocity": 0.5039370078740157,
          "duration": 0.25
        },
        {
          "name": "G4",
          "midi": 67,
          "time": 47.75,
          "velocity": 0.5039370078740157,
          "duration": 0.25
        },
        {
          "name": "F4",
          "midi": 65,
          "time": 48,
          "velocity": 0.5039370078740157,
          "duration": 1
        },
        {
          "name": "E4",
          "midi": 64,
          "time": 49,
          "velocity": 0.5039370078740157,
          "duration": 1.5
        },
        {
          "name": "D4",
          "midi": 62,
          "time": 50.5,
          "velocity": 0.5039370078740157,
          "duration": 1
        },
        {
          "name": "C#4",
          "midi": 61,
          "time": 51.5,
          "velocity": 0.5039370078740157,
          "duration": 0.5
        },
        {
          "name": "D4",
          "midi": 62,
          "time": 52,
          "velocity": 0.5039370078740157,
          "duration": 0.1666666666666643
        },
        {
          "name": "E4",
          "midi": 64,
          "time": 52.166666666666664,
          "velocity": 0.5039370078740157,
          "duration": 0.1666666666666643
        },
        {
          "name": "F4",
          "midi": 65,
          "time": 52.33333333333333,
          "velocity": 0.5039370078740157,
          "duration": 0.1666666666666643
        },
        {
          "name": "G4",
          "midi": 67,
          "time": 52.49999999999999,
          "velocity": 0.5039370078740157,
          "duration": 0.1666666666666643
        },
        {
          "name": "F4",
          "midi": 65,
          "time": 52.66666666666666,
          "velocity": 0.5039370078740157,
          "duration": 0.1666666666666643
        },
        {
          "name": "E4",
          "midi": 64,
          "time": 52.83333333333332,
          "velocity": 0.5039370078740157,
          "duration": 0.1666666666666643
        },
        {
          "name": "F4",
          "midi": 65,
          "time": 52.999999999999986,
          "velocity": 0.5039370078740157,
          "duration": 0.1666666666666643
        },
        {
          "name": "G4",
          "midi": 67,
          "time": 53.16666666666665,
          "velocity": 0.5039370078740157,
          "duration": 0.1666666666666643
        },
        {
          "name": "A4",
          "midi": 69,
          "time": 53.333333333333314,
          "velocity": 0.5039370078740157,
          "duration": 0.1666666666666643
        },
        {
          "name": "A#4",
          "midi": 70,
          "time": 53.49999999999998,
          "velocity": 0.5039370078740157,
          "duration": 0.1666666666666643
        },
        {
          "name": "A4",
          "midi": 69,
          "time": 53.66666666666664,
          "velocity": 0.5039370078740157,
          "duration": 0.1666666666666643
        },
        {
          "name": "G4",
          "midi": 67,
          "time": 53.83333333333331,
          "velocity": 0.5039370078740157,
          "duration": 0.1666666666666643
        },
        {
          "name": "A4",
          "midi": 69,
          "time": 53.99999999999997,
          "velocity": 0.5039370078740157,
          "duration": 0.5
        },
        {
          "name": "D5",
          "midi": 74,
          "time": 54.49999999999997,
          "velocity": 0.5039370078740157,
          "duration": 0.5
        },
        {
          "name": "C#5",
          "midi": 73,
          "time": 54.99999999999997,
          "velocity": 0.5039370078740157,
          "duration": 0.5
        },
        {
          "name": "C5",
          "midi": 72,
          "time": 55.49999999999997,
          "velocity": 0.5039370078740157,
          "duration": 0.5
        },
        {
          "name": "B4",
          "midi": 71,
          "time": 55.99999999999997,
          "velocity": 0.5039370078740157,
          "duration": 0.5
        },
        {
          "name": "A#4",
          "midi": 70,
          "time": 56.49999999999997,
          "velocity": 0.5039370078740157,
          "duration": 0.5
        },
        {
          "name": "A4",
          "midi": 69,
          "time": 56.99999999999997,
          "velocity": 0.5039370078740157,
          "duration": 1.5
        },
        {
          "name": "F4",
          "midi": 65,
          "time": 58.74999999999997,
          "velocity": 0.5039370078740157,
          "duration": 0.25
        },
        {
          "name": "E4",
          "midi": 64,
          "time": 58.99999999999997,
          "velocity": 0.5039370078740157,
          "duration": 0.75
        },
        {
          "name": "E4",
          "midi": 64,
          "time": 59.74999999999997,
          "velocity": 0.5039370078740157,
          "duration": 0.25
        },
        {
          "name": "D4",
          "midi": 62,
          "time": 59.99999999999997,
          "velocity": 0.5039370078740157,
          "duration": 0.75
        },
        {
          "name": "D4",
          "midi": 62,
          "time": 60.74999999999997,
          "velocity": 0.5039370078740157,
          "duration": 0.25
        },
        {
          "name": "C4",
          "midi": 60,
          "time": 60.99999999999997,
          "velocity": 0.5039370078740157,
          "duration": 0.75
        },
        {
          "name": "C4",
          "midi": 60,
          "time": 61.74999999999997,
          "velocity": 0.5039370078740157,
          "duration": 0.25
        },
        {
          "name": "B3",
          "midi": 59,
          "time": 61.99999999999997,
          "velocity": 0.5039370078740157,
          "duration": 0.75
        },
        {
          "name": "A#3",
          "midi": 58,
          "time": 62.74999999999997,
          "velocity": 0.5039370078740157,
          "duration": 0.25
        },
        {
          "name": "A3",
          "midi": 57,
          "time": 62.99999999999997,
          "velocity": 0.5039370078740157,
          "duration": 0.5
        },
        {
          "name": "A4",
          "midi": 69,
          "time": 63.99999999999997,
          "velocity": 0.5039370078740157,
          "duration": 0.1666666666666714
        },
        {
          "name": "G4",
          "midi": 67,
          "time": 64.16666666666664,
          "velocity": 0.5039370078740157,
          "duration": 0.1666666666666714
        },
        {
          "name": "F4",
          "midi": 65,
          "time": 64.32499999999997,
          "velocity": 0.5039370078740157,
          "duration": 0.1666666666666714
        },
        {
          "name": "E4",
          "midi": 64,
          "time": 64.49999999999999,
          "velocity": 0.5039370078740157,
          "duration": 0.1666666666666714
        },
        {
          "name": "F4",
          "midi": 65,
          "time": 64.66666666666666,
          "velocity": 0.5039370078740157,
          "duration": 0.1666666666666714
        },
        {
          "name": "G4",
          "midi": 67,
          "time": 64.82499999999999,
          "velocity": 0.5039370078740157,
          "duration": 0.1666666666666714
        },
        {
          "name": "F4",
          "midi": 65,
          "time": 65,
          "velocity": 0.5039370078740157,
          "duration": 0.1666666666666714
        },
        {
          "name": "E4",
          "midi": 64,
          "time": 65.16666666666667,
          "velocity": 0.5039370078740157,
          "duration": 0.1666666666666714
        },
        {
          "name": "D4",
          "midi": 62,
          "time": 65.325,
          "velocity": 0.5039370078740157,
          "duration": 0.1666666666666714
        },
        {
          "name": "C#4",
          "midi": 61,
          "time": 65.50000000000001,
          "velocity": 0.5039370078740157,
          "duration": 0.1666666666666714
        },
        {
          "name": "D4",
          "midi": 62,
          "time": 65.66666666666669,
          "velocity": 0.5039370078740157,
          "duration": 0.1666666666666714
        },
        {
          "name": "E4",
          "midi": 64,
          "time": 65.82500000000002,
          "velocity": 0.5039370078740157,
          "duration": 0.1666666666666714
        },
        {
          "name": "D4",
          "midi": 62,
          "time": 66.00000000000003,
          "velocity": 0.5039370078740157,
          "duration": 0.5
        },
        {
          "name": "A3",
          "midi": 57,
          "time": 66.50000000000003,
          "velocity": 0.5039370078740157,
          "duration": 0.5
        },
        {
          "name": "A#3",
          "midi": 58,
          "time": 67.00000000000003,
          "velocity": 0.5039370078740157,
          "duration": 0.5
        },
        {
          "name": "B3",
          "midi": 59,
          "time": 67.50000000000003,
          "velocity": 0.5039370078740157,
          "duration": 0.5
        },
        {
          "name": "C4",
          "midi": 60,
          "time": 68.00000000000003,
          "velocity": 0.5039370078740157,
          "duration": 0.5
        },
        {
          "name": "C#4",
          "midi": 61,
          "time": 68.50000000000003,
          "velocity": 0.5039370078740157,
          "duration": 0.5
        },
        {
          "name": "D4",
          "midi": 62,
          "time": 69.00000000000003,
          "velocity": 0.5039370078740157,
          "duration": 2.5
        },
        {
          "name": "D5",
          "midi": 74,
          "time": 73.00000000000003,
          "velocity": 0.5039370078740157,
          "duration": 0.1666666666666714
        },
        {
          "name": "C5",
          "midi": 72,
          "time": 73.1666666666667,
          "velocity": 0.5039370078740157,
          "duration": 0.1666666666666714
        },
        {
          "name": "A#4",
          "midi": 70,
          "time": 73.33333333333337,
          "velocity": 0.5039370078740157,
          "duration": 0.1666666666666714
        },
        {
          "name": "A4",
          "midi": 69,
          "time": 73.50000000000004,
          "velocity": 0.5039370078740157,
          "duration": 0.1666666666666714
        },
        {
          "name": "A#4",
          "midi": 70,
          "time": 73.66666666666671,
          "velocity": 0.5039370078740157,
          "duration": 0.1666666666666714
        },
        {
          "name": "C5",
          "midi": 72,
          "time": 73.83333333333339,
          "velocity": 0.5039370078740157,
          "duration": 0.1666666666666714
        },
        {
          "name": "A#4",
          "midi": 70,
          "time": 74.00000000000006,
          "velocity": 0.5039370078740157,
          "duration": 0.5
        },
        {
          "name": "D5",
          "midi": 74,
          "time": 74.50000000000006,
          "velocity": 0.5039370078740157,
          "duration": 0.5
        },
        {
          "name": "G4",
          "midi": 67,
          "time": 75.00000000000006,
          "velocity": 0.5039370078740157,
          "duration": 0.5
        },
        {
          "name": "B4",
          "midi": 71,
          "time": 75.50000000000006,
          "velocity": 0.5039370078740157,
          "duration": 0.5
        },
        {
          "name": "C5",
          "midi": 72,
          "time": 76.00000000000006,
          "velocity": 0.5039370078740157,
          "duration": 0.5
        },
        {
          "name": "C5",
          "midi": 72,
          "time": 77.00000000000006,
          "velocity": 0.5039370078740157,
          "duration": 0.1666666666666714
        },
        {
          "name": "A#4",
          "midi": 70,
          "time": 77.16666666666673,
          "velocity": 0.5039370078740157,
          "duration": 0.1666666666666714
        },
        {
          "name": "A4",
          "midi": 69,
          "time": 77.3333333333334,
          "velocity": 0.5039370078740157,
          "duration": 0.1666666666666714
        },
        {
          "name": "G4",
          "midi": 67,
          "time": 77.50000000000007,
          "velocity": 0.5039370078740157,
          "duration": 0.1666666666666714
        },
        {
          "name": "A4",
          "midi": 69,
          "time": 77.66666666666674,
          "velocity": 0.5039370078740157,
          "duration": 0.1666666666666714
        },
        {
          "name": "A#4",
          "midi": 70,
          "time": 77.83333333333341,
          "velocity": 0.5039370078740157,
          "duration": 0.1666666666666714
        },
        {
          "name": "A4",
          "midi": 69,
          "time": 78.00000000000009,
          "velocity": 0.5039370078740157,
          "duration": 0.5
        },
        {
          "name": "C5",
          "midi": 72,
          "time": 78.50000000000009,
          "velocity": 0.5039370078740157,
          "duration": 0.5
        },
        {
          "name": "F4",
          "midi": 65,
          "time": 79.00000000000009,
          "velocity": 0.5039370078740157,
          "duration": 0.5
        },
        {
          "name": "A4",
          "midi": 69,
          "time": 79.50000000000009,
          "velocity": 0.5039370078740157,
          "duration": 0.5
        },
        {
          "name": "A#4",
          "midi": 70,
          "time": 80.00000000000009,
          "velocity": 0.5039370078740157,
          "duration": 0.5
        },
        {
          "name": "A4",
          "midi": 69,
          "time": 80.50000000000009,
          "velocity": 0.5039370078740157,
          "duration": 2.75
        },
        {
          "name": "A4",
          "midi": 69,
          "time": 83.25000000000009,
          "velocity": 0.5039370078740157,
          "duration": 0.25
        },
        {
          "name": "A#4",
          "midi": 70,
          "time": 83.50000000000009,
          "velocity": 0.5039370078740157,
          "duration": 0.25
        },
        {
          "name": "A4",
          "midi": 69,
          "time": 83.75000000000009,
          "velocity": 0.5039370078740157,
          "duration": 0.25
        },
        {
          "name": "G4",
          "midi": 67,
          "time": 84.00000000000009,
          "velocity": 0.5039370078740157,
          "duration": 0.25
        },
        {
          "name": "A#4",
          "midi": 70,
          "time": 84.25000000000009,
          "velocity": 0.5039370078740157,
          "duration": 0.25
        },
        {
          "name": "A4",
          "midi": 69,
          "time": 84.50000000000009,
          "velocity": 0.5039370078740157,
          "duration": 0.25
        },
        {
          "name": "G4",
          "midi": 67,
          "time": 84.75000000000009,
          "velocity": 0.5039370078740157,
          "duration": 0.25
        },
        {
          "name": "F4",
          "midi": 65,
          "time": 85.00000000000009,
          "velocity": 0.5039370078740157,
          "duration": 0.5
        },
        {
          "name": "A#3",
          "midi": 58,
          "time": 85.50000000000009,
          "velocity": 0.5039370078740157,
          "duration": 0.5
        },
        {
          "name": "A3",
          "midi": 57,
          "time": 86.00000000000009,
          "velocity": 0.5039370078740157,
          "duration": 1
        },
        {
          "name": "G3",
          "midi": 55,
          "time": 87.00000000000009,
          "velocity": 0.5039370078740157,
          "duration": 0.5
        },
        {
          "name": "G4",
          "midi": 67,
          "time": 87.50000000000009,
          "velocity": 0.5039370078740157,
          "duration": 1
        },
        {
          "name": "F4",
          "midi": 65,
          "time": 88.50000000000009,
          "velocity": 0.5039370078740157,
          "duration": 0.25
        },
        {
          "name": "E4",
          "midi": 64,
          "time": 88.75000000000009,
          "velocity": 0.5039370078740157,
          "duration": 0.25
        },
        {
          "name": "D4",
          "midi": 62,
          "time": 89.00000000000009,
          "velocity": 0.5039370078740157,
          "duration": 0.25
        },
        {
          "name": "F4",
          "midi": 65,
          "time": 89.25000000000009,
          "velocity": 0.5039370078740157,
          "duration": 0.25
        },
        {
          "name": "E4",
          "midi": 64,
          "time": 89.50000000000009,
          "velocity": 0.5039370078740157,
          "duration": 0.25
        },
        {
          "name": "D4",
          "midi": 62,
          "time": 89.75000000000009,
          "velocity": 0.5039370078740157,
          "duration": 0.25
        },
        {
          "name": "C#4",
          "midi": 61,
          "time": 90.00000000000009,
          "velocity": 0.5039370078740157,
          "duration": 0.5
        },
        {
          "name": "D4",
          "midi": 62,
          "time": 90.50000000000009,
          "velocity": 0.5039370078740157,
          "duration": 1
        },
        {
          "name": "C#4",
          "midi": 61,
          "time": 91.50000000000009,
          "velocity": 0.5039370078740157,
          "duration": 0.5
        },
        {
          "name": "D4",
          "midi": 62,
          "time": 92.00000000000009,
          "velocity": 0.5039370078740157,
          "duration": 0.25
        },
        {
          "name": "C4",
          "midi": 60,
          "time": 92.25000000000009,
          "velocity": 0.5039370078740157,
          "duration": 0.25
        },
        {
          "name": "A#3",
          "midi": 58,
          "time": 92.50000000000009,
          "velocity": 0.5039370078740157,
          "duration": 0.25
        },
        {
          "name": "A3",
          "midi": 57,
          "time": 92.75000000000009,
          "velocity": 0.5039370078740157,
          "duration": 0.25
        },
        {
          "name": "G3",
          "midi": 55,
          "time": 93.00000000000009,
          "velocity": 0.5039370078740157,
          "duration": 0.25
        },
        {
          "name": "A#3",
          "midi": 58,
          "time": 93.25000000000009,
          "velocity": 0.5039370078740157,
          "duration": 0.25
        },
        {
          "name": "A3",
          "midi": 57,
          "time": 93.50000000000009,
          "velocity": 0.5039370078740157,
          "duration": 0.25
        },
        {
          "name": "G3",
          "midi": 55,
          "time": 93.75000000000009,
          "velocity": 0.5039370078740157,
          "duration": 0.25
        },
        {
          "name": "F3",
          "midi": 53,
          "time": 94.00000000000009,
          "velocity": 0.5039370078740157,
          "duration": 0.25
        },
        {
          "name": "A3",
          "midi": 57,
          "time": 94.25000000000009,
          "velocity": 0.5039370078740157,
          "duration": 0.25
        },
        {
          "name": "G3",
          "midi": 55,
          "time": 94.50000000000009,
          "velocity": 0.5039370078740157,
          "duration": 0.25
        },
        {
          "name": "F3",
          "midi": 53,
          "time": 94.75000000000009,
          "velocity": 0.5039370078740157,
          "duration": 0.25
        },
        {
          "name": "E3",
          "midi": 52,
          "time": 95.00000000000009,
          "velocity": 0.5039370078740157,
          "duration": 0.25
        },
        {
          "name": "D3",
          "midi": 50,
          "time": 95.25000000000009,
          "velocity": 0.5039370078740157,
          "duration": 0.25
        },
        {
          "name": "C#3",
          "midi": 49,
          "time": 95.50000000000009,
          "velocity": 0.5039370078740157,
          "duration": 0.25
        },
        {
          "name": "E3",
          "midi": 52,
          "time": 95.75000000000009,
          "velocity": 0.5039370078740157,
          "duration": 0.25
        },
        {
          "name": "D3",
          "midi": 50,
          "time": 96.00000000000009,
          "velocity": 0.5039370078740157,
          "duration": 0.1666666666666714
        },
        {
          "name": "E3",
          "midi": 52,
          "time": 96.16666666666676,
          "velocity": 0.5039370078740157,
          "duration": 0.1666666666666714
        },
        {
          "name": "F3",
          "midi": 53,
          "time": 96.33333333333343,
          "velocity": 0.5039370078740157,
          "duration": 0.1666666666666714
        },
        {
          "name": "G3",
          "midi": 55,
          "time": 96.5000000000001,
          "velocity": 0.5039370078740157,
          "duration": 0.1666666666666714
        },
        {
          "name": "F3",
          "midi": 53,
          "time": 96.66666666666677,
          "velocity": 0.5039370078740157,
          "duration": 0.1666666666666714
        },
        {
          "name": "E3",
          "midi": 52,
          "time": 96.83333333333344,
          "velocity": 0.5039370078740157,
          "duration": 0.1666666666666714
        },
        {
          "name": "F3",
          "midi": 53,
          "time": 97.00000000000011,
          "velocity": 0.5039370078740157,
          "duration": 0.1666666666666714
        },
        {
          "name": "G3",
          "midi": 55,
          "time": 97.16666666666679,
          "velocity": 0.5039370078740157,
          "duration": 0.1666666666666714
        },
        {
          "name": "A3",
          "midi": 57,
          "time": 97.33333333333346,
          "velocity": 0.5039370078740157,
          "duration": 0.1666666666666714
        },
        {
          "name": "A#3",
          "midi": 58,
          "time": 97.50000000000013,
          "velocity": 0.5039370078740157,
          "duration": 0.1666666666666714
        },
        {
          "name": "A3",
          "midi": 57,
          "time": 97.6666666666668,
          "velocity": 0.5039370078740157,
          "duration": 0.1666666666666714
        },
        {
          "name": "G3",
          "midi": 55,
          "time": 97.83333333333347,
          "velocity": 0.5039370078740157,
          "duration": 0.1666666666666714
        },
        {
          "name": "A3",
          "midi": 57,
          "time": 98.00000000000014,
          "velocity": 0.5039370078740157,
          "duration": 1.1666666666666714
        },
        {
          "name": "G3",
          "midi": 55,
          "time": 99.16666666666681,
          "velocity": 0.5039370078740157,
          "duration": 0.1666666666666714
        },
        {
          "name": "F3",
          "midi": 53,
          "time": 99.33333333333348,
          "velocity": 0.5039370078740157,
          "duration": 0.1666666666666714
        },
        {
          "name": "E3",
          "midi": 52,
          "time": 99.50000000000016,
          "velocity": 0.5039370078740157,
          "duration": 0.1666666666666714
        },
        {
          "name": "F3",
          "midi": 53,
          "time": 99.66666666666683,
          "velocity": 0.5039370078740157,
          "duration": 0.1666666666666714
        },
        {
          "name": "G3",
          "midi": 55,
          "time": 99.8333333333335,
          "velocity": 0.5039370078740157,
          "duration": 0.1666666666666714
        },
        {
          "name": "F3",
          "midi": 53,
          "time": 100.00000000000017,
          "velocity": 0.5039370078740157,
          "duration": 0.5
        },
        {
          "name": "F4",
          "midi": 65,
          "time": 100.50000000000017,
          "velocity": 0.5039370078740157,
          "duration": 0.5
        },
        {
          "name": "E4",
          "midi": 64,
          "time": 101.00000000000017,
          "velocity": 0.5039370078740157,
          "duration": 0.5
        },
        {
          "name": "A4",
          "midi": 69,
          "time": 101.50000000000017,
          "velocity": 0.5039370078740157,
          "duration": 1.25
        },
        {
          "name": "G4",
          "midi": 67,
          "time": 102.75000000000017,
          "velocity": 0.5039370078740157,
          "duration": 0.5
        },
        {
          "name": "F4",
          "midi": 65,
          "time": 103.25000000000017,
          "velocity": 0.5039370078740157,
          "duration": 0.5
        },
        {
          "name": "F4",
          "midi": 65,
          "time": 103.75000000000017,
          "velocity": 0.5039370078740157,
          "duration": 0.25
        },
        {
          "name": "E4",
          "midi": 64,
          "time": 104.00000000000017,
          "velocity": 0.5039370078740157,
          "duration": 0.5
        },
        {
          "name": "D4",
          "midi": 62,
          "time": 104.50000000000017,
          "velocity": 0.5039370078740157,
          "duration": 1
        },
        {
          "name": "C#4",
          "midi": 61,
          "time": 105.50000000000017,
          "velocity": 0.5039370078740157,
          "duration": 0.5
        },
        {
          "name": "D4",
          "midi": 62,
          "time": 106.00000000000017,
          "velocity": 0.5039370078740157,
          "duration": 2
        }
      ],
      "controlChanges": {},
      "id": 2,
      "channelNumber": 1,
      "isPercussion": false
    },
    {
      "startTime": 20,
      "duration": 108.0000000000003,
      "length": 275,
      "notes": [
        {
          "name": "D3",
          "midi": 50,
          "time": 20,
          "velocity": 0.5039370078740157,
          "duration": 0.16666666666666785
        },
        {
          "name": "E3",
          "midi": 52,
          "time": 20.166666666666668,
          "velocity": 0.5039370078740157,
          "duration": 0.16666666666666785
        },
        {
          "name": "F3",
          "midi": 53,
          "time": 20.333333333333336,
          "velocity": 0.5039370078740157,
          "duration": 0.16666666666666785
        },
        {
          "name": "G3",
          "midi": 55,
          "time": 20.500000000000004,
          "velocity": 0.5039370078740157,
          "duration": 0.16666666666666785
        },
        {
          "name": "F3",
          "midi": 53,
          "time": 20.66666666666667,
          "velocity": 0.5039370078740157,
          "duration": 0.16666666666666785
        },
        {
          "name": "E3",
          "midi": 52,
          "time": 20.83333333333334,
          "velocity": 0.5039370078740157,
          "duration": 0.16666666666666785
        },
        {
          "name": "F3",
          "midi": 53,
          "time": 21.000000000000007,
          "velocity": 0.5039370078740157,
          "duration": 0.16666666666666785
        },
        {
          "name": "G3",
          "midi": 55,
          "time": 21.166666666666675,
          "velocity": 0.5039370078740157,
          "duration": 0.16666666666666785
        },
        {
          "name": "A3",
          "midi": 57,
          "time": 21.333333333333343,
          "velocity": 0.5039370078740157,
          "duration": 0.16666666666666785
        },
        {
          "name": "A#3",
          "midi": 58,
          "time": 21.50000000000001,
          "velocity": 0.5039370078740157,
          "duration": 0.16666666666666785
        },
        {
          "name": "A3",
          "midi": 57,
          "time": 21.66666666666668,
          "velocity": 0.5039370078740157,
          "duration": 0.16666666666666785
        },
        {
          "name": "G3",
          "midi": 55,
          "time": 21.833333333333346,
          "velocity": 0.5039370078740157,
          "duration": 0.16666666666666785
        },
        {
          "name": "A3",
          "midi": 57,
          "time": 22.000000000000014,
          "velocity": 0.5039370078740157,
          "duration": 0.5
        },
        {
          "name": "D4",
          "midi": 62,
          "time": 22.500000000000014,
          "velocity": 0.5039370078740157,
          "duration": 0.5
        },
        {
          "name": "C#4",
          "midi": 61,
          "time": 23.000000000000014,
          "velocity": 0.5039370078740157,
          "duration": 0.5
        },
        {
          "name": "C4",
          "midi": 60,
          "time": 23.500000000000014,
          "velocity": 0.5039370078740157,
          "duration": 0.5
        },
        {
          "name": "B3",
          "midi": 59,
          "time": 24.000000000000014,
          "velocity": 0.5039370078740157,
          "duration": 0.5
        },
        {
          "name": "A#3",
          "midi": 58,
          "time": 24.500000000000014,
          "velocity": 0.5039370078740157,
          "duration": 0.5
        },
        {
          "name": "A3",
          "midi": 57,
          "time": 25.000000000000014,
          "velocity": 0.5039370078740157,
          "duration": 0.5
        },
        {
          "name": "G3",
          "midi": 55,
          "time": 25.500000000000014,
          "velocity": 0.5039370078740157,
          "duration": 1
        },
        {
          "name": "F3",
          "midi": 53,
          "time": 26.500000000000014,
          "velocity": 0.5039370078740157,
          "duration": 0.5
        },
        {
          "name": "E3",
          "midi": 52,
          "time": 27.000000000000014,
          "velocity": 0.5039370078740157,
          "duration": 0.5
        },
        {
          "name": "A3",
          "midi": 57,
          "time": 27.500000000000014,
          "velocity": 0.5039370078740157,
          "duration": 0.5
        },
        {
          "name": "D3",
          "midi": 50,
          "time": 28.000000000000014,
          "velocity": 0.5039370078740157,
          "duration": 0.25
        },
        {
          "name": "D4",
          "midi": 62,
          "time": 28.250000000000014,
          "velocity": 0.5039370078740157,
          "duration": 0.25
        },
        {
          "name": "D#4",
          "midi": 63,
          "time": 28.500000000000014,
          "velocity": 0.5039370078740157,
          "duration": 0.25
        },
        {
          "name": "D4",
          "midi": 62,
          "time": 28.750000000000014,
          "velocity": 0.5039370078740157,
          "duration": 0.25
        },
        {
          "name": "C4",
          "midi": 60,
          "time": 29.000000000000014,
          "velocity": 0.5039370078740157,
          "duration": 0.25
        },
        {
          "name": "D#4",
          "midi": 63,
          "time": 29.250000000000014,
          "velocity": 0.5039370078740157,
          "duration": 0.25
        },
        {
          "name": "D4",
          "midi": 62,
          "time": 29.500000000000014,
          "velocity": 0.5039370078740157,
          "duration": 0.25
        },
        {
          "name": "C4",
          "midi": 60,
          "time": 29.750000000000014,
          "velocity": 0.5039370078740157,
          "duration": 0.25
        },
        {
          "name": "B3",
          "midi": 59,
          "time": 30.000000000000014,
          "velocity": 0.5039370078740157,
          "duration": 0.25
        },
        {
          "name": "G3",
          "midi": 55,
          "time": 30.250000000000014,
          "velocity": 0.5039370078740157,
          "duration": 0.25
        },
        {
          "name": "C4",
          "midi": 60,
          "time": 30.500000000000014,
          "velocity": 0.5039370078740157,
          "duration": 1
        },
        {
          "name": "A#3",
          "midi": 58,
          "time": 31.500000000000014,
          "velocity": 0.5039370078740157,
          "duration": 1
        },
        {
          "name": "A3",
          "midi": 57,
          "time": 32.500000000000014,
          "velocity": 0.5039370078740157,
          "duration": 0.5
        },
        {
          "name": "G3",
          "midi": 55,
          "time": 33.000000000000014,
          "velocity": 0.5039370078740157,
          "duration": 0.5
        },
        {
          "name": "C4",
          "midi": 60,
          "time": 33.500000000000014,
          "velocity": 0.5039370078740157,
          "duration": 0.5
        },
        {
          "name": "F3",
          "midi": 53,
          "time": 34.000000000000014,
          "velocity": 0.5039370078740157,
          "duration": 0.1666666666666643
        },
        {
          "name": "G3",
          "midi": 55,
          "time": 34.16666666666668,
          "velocity": 0.5039370078740157,
          "duration": 0.1666666666666643
        },
        {
          "name": "A3",
          "midi": 57,
          "time": 34.33333333333334,
          "velocity": 0.5039370078740157,
          "duration": 0.1666666666666643
        },
        {
          "name": "A#3",
          "midi": 58,
          "time": 34.50000000000001,
          "velocity": 0.5039370078740157,
          "duration": 0.1666666666666643
        },
        {
          "name": "A3",
          "midi": 57,
          "time": 34.66666666666667,
          "velocity": 0.5039370078740157,
          "duration": 0.1666666666666643
        },
        {
          "name": "G3",
          "midi": 55,
          "time": 34.833333333333336,
          "velocity": 0.5039370078740157,
          "duration": 0.1666666666666643
        },
        {
          "name": "A3",
          "midi": 57,
          "time": 35,
          "velocity": 0.5039370078740157,
          "duration": 0.5
        },
        {
          "name": "A2",
          "midi": 45,
          "time": 35.5,
          "velocity": 0.5039370078740157,
          "duration": 0.5
        },
        {
          "name": "D3",
          "midi": 50,
          "time": 36,
          "velocity": 0.5039370078740157,
          "duration": 0.1666666666666643
        },
        {
          "name": "E3",
          "midi": 52,
          "time": 36.166666666666664,
          "velocity": 0.5039370078740157,
          "duration": 0.1666666666666643
        },
        {
          "name": "F3",
          "midi": 53,
          "time": 36.33333333333333,
          "velocity": 0.5039370078740157,
          "duration": 0.1666666666666643
        },
        {
          "name": "G3",
          "midi": 55,
          "time": 36.49999999999999,
          "velocity": 0.5039370078740157,
          "duration": 0.1666666666666643
        },
        {
          "name": "F3",
          "midi": 53,
          "time": 36.66666666666666,
          "velocity": 0.5039370078740157,
          "duration": 0.1666666666666643
        },
        {
          "name": "E3",
          "midi": 52,
          "time": 36.83333333333332,
          "velocity": 0.5039370078740157,
          "duration": 0.1666666666666643
        },
        {
          "name": "F3",
          "midi": 53,
          "time": 36.999999999999986,
          "velocity": 0.5039370078740157,
          "duration": 0.1666666666666643
        },
        {
          "name": "G3",
          "midi": 55,
          "time": 37.16666666666665,
          "velocity": 0.5039370078740157,
          "duration": 0.1666666666666643
        },
        {
          "name": "A3",
          "midi": 57,
          "time": 37.333333333333314,
          "velocity": 0.5039370078740157,
          "duration": 0.1666666666666643
        },
        {
          "name": "A#3",
          "midi": 58,
          "time": 37.49999999999998,
          "velocity": 0.5039370078740157,
          "duration": 0.1666666666666643
        },
        {
          "name": "A3",
          "midi": 57,
          "time": 37.66666666666664,
          "velocity": 0.5039370078740157,
          "duration": 0.1666666666666643
        },
        {
          "name": "G3",
          "midi": 55,
          "time": 37.83333333333331,
          "velocity": 0.5039370078740157,
          "duration": 0.1666666666666643
        },
        {
          "name": "A3",
          "midi": 57,
          "time": 37.99999999999997,
          "velocity": 0.5039370078740157,
          "duration": 0.5
        },
        {
          "name": "G3",
          "midi": 55,
          "time": 38.49999999999997,
          "velocity": 0.5039370078740157,
          "duration": 0.5
        },
        {
          "name": "F3",
          "midi": 53,
          "time": 38.99999999999997,
          "velocity": 0.5039370078740157,
          "duration": 0.1666666666666643
        },
        {
          "name": "E3",
          "midi": 52,
          "time": 39.166666666666636,
          "velocity": 0.5039370078740157,
          "duration": 0.1666666666666643
        },
        {
          "name": "D3",
          "midi": 50,
          "time": 39.3333333333333,
          "velocity": 0.5039370078740157,
          "duration": 0.1666666666666643
        },
        {
          "name": "C#3",
          "midi": 49,
          "time": 39.499999999999964,
          "velocity": 0.5039370078740157,
          "duration": 0.1666666666666643
        },
        {
          "name": "D3",
          "midi": 50,
          "time": 39.66666666666663,
          "velocity": 0.5039370078740157,
          "duration": 0.1666666666666643
        },
        {
          "name": "E3",
          "midi": 52,
          "time": 39.83333333333329,
          "velocity": 0.5039370078740157,
          "duration": 0.1666666666666643
        },
        {
          "name": "D3",
          "midi": 50,
          "time": 39.99999999999996,
          "velocity": 0.5039370078740157,
          "duration": 1.25
        },
        {
          "name": "C3",
          "midi": 48,
          "time": 41.24999999999996,
          "velocity": 0.5039370078740157,
          "duration": 0.25
        },
        {
          "name": "A#2",
          "midi": 46,
          "time": 41.49999999999996,
          "velocity": 0.5039370078740157,
          "duration": 0.5
        },
        {
          "name": "A2",
          "midi": 45,
          "time": 41.99999999999996,
          "velocity": 0.5039370078740157,
          "duration": 0.75
        },
        {
          "name": "D3",
          "midi": 50,
          "time": 42.74999999999996,
          "velocity": 0.5039370078740157,
          "duration": 0.25
        },
        {
          "name": "G2",
          "midi": 43,
          "time": 42.99999999999996,
          "velocity": 0.5039370078740157,
          "duration": 0.75
        },
        {
          "name": "C3",
          "midi": 48,
          "time": 43.74999999999996,
          "velocity": 0.5039370078740157,
          "duration": 0.25
        },
        {
          "name": "F2",
          "midi": 41,
          "time": 43.99999999999996,
          "velocity": 0.5039370078740157,
          "duration": 0.75
        },
        {
          "name": "A#2",
          "midi": 46,
          "time": 44.74999999999996,
          "velocity": 0.5039370078740157,
          "duration": 0.25
        },
        {
          "name": "E2",
          "midi": 40,
          "time": 44.99999999999996,
          "velocity": 0.5039370078740157,
          "duration": 0.75
        },
        {
          "name": "A2",
          "midi": 45,
          "time": 45.74999999999996,
          "velocity": 0.5039370078740157,
          "duration": 0.25
        },
        {
          "name": "D2",
          "midi": 38,
          "time": 45.99999999999996,
          "velocity": 0.5039370078740157,
          "duration": 0.5
        },
        {
          "name": "D3",
          "midi": 50,
          "time": 46.49999999999996,
          "velocity": 0.5039370078740157,
          "duration": 1
        },
        {
          "name": "C#3",
          "midi": 49,
          "time": 47.49999999999996,
          "velocity": 0.5039370078740157,
          "duration": 0.5
        },
        {
          "name": "D3",
          "midi": 50,
          "time": 47.99999999999996,
          "velocity": 0.5039370078740157,
          "duration": 0.25
        },
        {
          "name": "A3",
          "midi": 57,
          "time": 48.24999999999996,
          "velocity": 0.5039370078740157,
          "duration": 0.25
        },
        {
          "name": "A#3",
          "midi": 58,
          "time": 48.49999999999996,
          "velocity": 0.5039370078740157,
          "duration": 0.25
        },
        {
          "name": "A3",
          "midi": 57,
          "time": 48.74999999999996,
          "velocity": 0.5039370078740157,
          "duration": 0.25
        },
        {
          "name": "G3",
          "midi": 55,
          "time": 48.99999999999996,
          "velocity": 0.5039370078740157,
          "duration": 0.25
        },
        {
          "name": "A#3",
          "midi": 58,
          "time": 49.24999999999996,
          "velocity": 0.5039370078740157,
          "duration": 0.25
        },
        {
          "name": "A3",
          "midi": 57,
          "time": 49.49999999999996,
          "velocity": 0.5039370078740157,
          "duration": 0.25
        },
        {
          "name": "G3",
          "midi": 55,
          "time": 49.74999999999996,
          "velocity": 0.5039370078740157,
          "duration": 0.25
        },
        {
          "name": "F3",
          "midi": 53,
          "time": 49.99999999999996,
          "velocity": 0.5039370078740157,
          "duration": 1
        },
        {
          "name": "E3",
          "midi": 52,
          "time": 50.99999999999996,
          "velocity": 0.5039370078740157,
          "duration": 1
        },
        {
          "name": "D3",
          "midi": 50,
          "time": 51.99999999999996,
          "velocity": 0.5039370078740157,
          "duration": 0.5
        },
        {
          "name": "B2",
          "midi": 47,
          "time": 55.24999999999996,
          "velocity": 0.5039370078740157,
          "duration": 0.25
        },
        {
          "name": "C3",
          "midi": 48,
          "time": 55.49999999999996,
          "velocity": 0.5039370078740157,
          "duration": 0.25
        },
        {
          "name": "D3",
          "midi": 50,
          "time": 55.74999999999996,
          "velocity": 0.5039370078740157,
          "duration": 0.25
        },
        {
          "name": "E3",
          "midi": 52,
          "time": 55.99999999999996,
          "velocity": 0.5039370078740157,
          "duration": 0.25
        },
        {
          "name": "F#3",
          "midi": 54,
          "time": 56.24999999999996,
          "velocity": 0.5039370078740157,
          "duration": 0.25
        },
        {
          "name": "G3",
          "midi": 55,
          "time": 56.49999999999996,
          "velocity": 0.5039370078740157,
          "duration": 0.25
        },
        {
          "name": "E3",
          "midi": 52,
          "time": 56.74999999999996,
          "velocity": 0.5039370078740157,
          "duration": 0.25
        },
        {
          "name": "A3",
          "midi": 57,
          "time": 56.99999999999996,
          "velocity": 0.5039370078740157,
          "duration": 0.25
        },
        {
          "name": "G#3",
          "midi": 56,
          "time": 57.24999999999996,
          "velocity": 0.5039370078740157,
          "duration": 0.25
        },
        {
          "name": "A3",
          "midi": 57,
          "time": 57.49999999999996,
          "velocity": 0.5039370078740157,
          "duration": 0.25
        },
        {
          "name": "B3",
          "midi": 59,
          "time": 57.74999999999996,
          "velocity": 0.5039370078740157,
          "duration": 0.25
        },
        {
          "name": "C4",
          "midi": 60,
          "time": 57.99999999999996,
          "velocity": 0.5039370078740157,
          "duration": 0.25
        },
        {
          "name": "F#3",
          "midi": 54,
          "time": 58.24999999999996,
          "velocity": 0.5039370078740157,
          "duration": 0.25
        },
        {
          "name": "B3",
          "midi": 59,
          "time": 58.49999999999996,
          "velocity": 0.5039370078740157,
          "duration": 0.25
        },
        {
          "name": "A3",
          "midi": 57,
          "time": 58.74999999999996,
          "velocity": 0.5039370078740157,
          "duration": 0.25
        },
        {
          "name": "G#3",
          "midi": 56,
          "time": 58.99999999999996,
          "velocity": 0.5039370078740157,
          "duration": 0.25
        },
        {
          "name": "E3",
          "midi": 52,
          "time": 59.24999999999996,
          "velocity": 0.5039370078740157,
          "duration": 0.25
        },
        {
          "name": "A3",
          "midi": 57,
          "time": 59.49999999999996,
          "velocity": 0.5039370078740157,
          "duration": 0.75
        },
        {
          "name": "D3",
          "midi": 50,
          "time": 60.24999999999996,
          "velocity": 0.5039370078740157,
          "duration": 0.25
        },
        {
          "name": "G3",
          "midi": 55,
          "time": 60.49999999999996,
          "velocity": 0.5039370078740157,
          "duration": 0.25
        },
        {
          "name": "F3",
          "midi": 53,
          "time": 60.74999999999996,
          "velocity": 0.5039370078740157,
          "duration": 0.25
        },
        {
          "name": "E3",
          "midi": 52,
          "time": 60.99999999999996,
          "velocity": 0.5039370078740157,
          "duration": 0.25
        },
        {
          "name": "C3",
          "midi": 48,
          "time": 61.24999999999996,
          "velocity": 0.5039370078740157,
          "duration": 0.25
        },
        {
          "name": "F3",
          "midi": 53,
          "time": 61.49999999999996,
          "velocity": 0.5039370078740157,
          "duration": 0.75
        },
        {
          "name": "B2",
          "midi": 47,
          "time": 62.24999999999996,
          "velocity": 0.5039370078740157,
          "duration": 0.25
        },
        {
          "name": "E3",
          "midi": 52,
          "time": 62.49999999999996,
          "velocity": 0.5039370078740157,
          "duration": 0.25
        },
        {
          "name": "D3",
          "midi": 50,
          "time": 62.74999999999996,
          "velocity": 0.5039370078740157,
          "duration": 0.25
        },
        {
          "name": "C#3",
          "midi": 49,
          "time": 62.99999999999996,
          "velocity": 0.5039370078740157,
          "duration": 0.25
        },
        {
          "name": "A2",
          "midi": 45,
          "time": 63.24999999999996,
          "velocity": 0.5039370078740157,
          "duration": 0.25
        },
        {
          "name": "D3",
          "midi": 50,
          "time": 63.49999999999996,
          "velocity": 0.5039370078740157,
          "duration": 1
        },
        {
          "name": "C#3",
          "midi": 49,
          "time": 64.49999999999996,
          "velocity": 0.5039370078740157,
          "duration": 0.5
        },
        {
          "name": "D3",
          "midi": 50,
          "time": 64.99999999999996,
          "velocity": 0.5039370078740157,
          "duration": 0.1666666666666714
        },
        {
          "name": "C3",
          "midi": 48,
          "time": 65.16666666666663,
          "velocity": 0.5039370078740157,
          "duration": 0.1666666666666714
        },
        {
          "name": "A#2",
          "midi": 46,
          "time": 65.32499999999996,
          "velocity": 0.5039370078740157,
          "duration": 0.1666666666666714
        },
        {
          "name": "A2",
          "midi": 45,
          "time": 65.49999999999997,
          "velocity": 0.5039370078740157,
          "duration": 0.1666666666666714
        },
        {
          "name": "A#2",
          "midi": 46,
          "time": 65.66666666666664,
          "velocity": 0.5039370078740157,
          "duration": 0.1666666666666714
        },
        {
          "name": "C3",
          "midi": 48,
          "time": 65.82499999999997,
          "velocity": 0.5039370078740157,
          "duration": 0.1666666666666714
        },
        {
          "name": "A#2",
          "midi": 46,
          "time": 65.99999999999999,
          "velocity": 0.5039370078740157,
          "duration": 0.1666666666666714
        },
        {
          "name": "A2",
          "midi": 45,
          "time": 66.16666666666666,
          "velocity": 0.5039370078740157,
          "duration": 0.1666666666666714
        },
        {
          "name": "G2",
          "midi": 43,
          "time": 66.32499999999999,
          "velocity": 0.5039370078740157,
          "duration": 0.1666666666666714
        },
        {
          "name": "F#2",
          "midi": 42,
          "time": 66.5,
          "velocity": 0.5039370078740157,
          "duration": 0.1666666666666714
        },
        {
          "name": "G2",
          "midi": 43,
          "time": 66.66666666666667,
          "velocity": 0.5039370078740157,
          "duration": 0.1666666666666714
        },
        {
          "name": "A2",
          "midi": 45,
          "time": 66.825,
          "velocity": 0.5039370078740157,
          "duration": 0.1666666666666714
        },
        {
          "name": "G2",
          "midi": 43,
          "time": 67.00000000000001,
          "velocity": 0.5039370078740157,
          "duration": 0.5
        },
        {
          "name": "D2",
          "midi": 38,
          "time": 67.50000000000001,
          "velocity": 0.5039370078740157,
          "duration": 0.5
        },
        {
          "name": "D#2",
          "midi": 39,
          "time": 68.00000000000001,
          "velocity": 0.5039370078740157,
          "duration": 0.5
        },
        {
          "name": "E2",
          "midi": 40,
          "time": 68.50000000000001,
          "velocity": 0.5039370078740157,
          "duration": 0.5
        },
        {
          "name": "F2",
          "midi": 41,
          "time": 69.00000000000001,
          "velocity": 0.5039370078740157,
          "duration": 0.5
        },
        {
          "name": "F#2",
          "midi": 42,
          "time": 69.50000000000001,
          "velocity": 0.5039370078740157,
          "duration": 0.5
        },
        {
          "name": "G2",
          "midi": 43,
          "time": 70.00000000000001,
          "velocity": 0.5039370078740157,
          "duration": 0.1666666666666714
        },
        {
          "name": "A2",
          "midi": 45,
          "time": 70.16666666666669,
          "velocity": 0.5039370078740157,
          "duration": 0.1666666666666714
        },
        {
          "name": "A#2",
          "midi": 46,
          "time": 70.33333333333336,
          "velocity": 0.5039370078740157,
          "duration": 0.1666666666666714
        },
        {
          "name": "C3",
          "midi": 48,
          "time": 70.50000000000003,
          "velocity": 0.5039370078740157,
          "duration": 0.1666666666666714
        },
        {
          "name": "A#2",
          "midi": 46,
          "time": 70.6666666666667,
          "velocity": 0.5039370078740157,
          "duration": 0.1666666666666714
        },
        {
          "name": "A2",
          "midi": 45,
          "time": 70.83333333333337,
          "velocity": 0.5039370078740157,
          "duration": 0.1666666666666714
        },
        {
          "name": "A#2",
          "midi": 46,
          "time": 71.00000000000004,
          "velocity": 0.5039370078740157,
          "duration": 0.1666666666666714
        },
        {
          "name": "C3",
          "midi": 48,
          "time": 71.16666666666671,
          "velocity": 0.5039370078740157,
          "duration": 0.1666666666666714
        },
        {
          "name": "D3",
          "midi": 50,
          "time": 71.33333333333339,
          "velocity": 0.5039370078740157,
          "duration": 0.1666666666666714
        },
        {
          "name": "D#3",
          "midi": 51,
          "time": 71.50000000000006,
          "velocity": 0.5039370078740157,
          "duration": 0.1666666666666714
        },
        {
          "name": "D3",
          "midi": 50,
          "time": 71.66666666666673,
          "velocity": 0.5039370078740157,
          "duration": 0.1666666666666714
        },
        {
          "name": "C3",
          "midi": 48,
          "time": 71.8333333333334,
          "velocity": 0.5039370078740157,
          "duration": 0.1666666666666714
        },
        {
          "name": "D3",
          "midi": 50,
          "time": 72.00000000000007,
          "velocity": 0.5039370078740157,
          "duration": 0.5
        },
        {
          "name": "G3",
          "midi": 55,
          "time": 72.50000000000007,
          "velocity": 0.5039370078740157,
          "duration": 1
        },
        {
          "name": "F#3",
          "midi": 54,
          "time": 73.50000000000007,
          "velocity": 0.5039370078740157,
          "duration": 0.5
        },
        {
          "name": "G3",
          "midi": 55,
          "time": 74.00000000000007,
          "velocity": 0.5039370078740157,
          "duration": 0.1666666666666714
        },
        {
          "name": "F3",
          "midi": 53,
          "time": 74.16666666666674,
          "velocity": 0.5039370078740157,
          "duration": 0.1666666666666714
        },
        {
          "name": "E3",
          "midi": 52,
          "time": 74.33333333333341,
          "velocity": 0.5039370078740157,
          "duration": 0.1666666666666714
        },
        {
          "name": "D3",
          "midi": 50,
          "time": 74.50000000000009,
          "velocity": 0.5039370078740157,
          "duration": 0.1666666666666714
        },
        {
          "name": "E3",
          "midi": 52,
          "time": 74.66666666666676,
          "velocity": 0.5039370078740157,
          "duration": 0.1666666666666714
        },
        {
          "name": "F3",
          "midi": 53,
          "time": 74.83333333333343,
          "velocity": 0.5039370078740157,
          "duration": 0.1666666666666714
        },
        {
          "name": "E3",
          "midi": 52,
          "time": 75.0000000000001,
          "velocity": 0.5039370078740157,
          "duration": 0.5
        },
        {
          "name": "G3",
          "midi": 55,
          "time": 75.5000000000001,
          "velocity": 0.5039370078740157,
          "duration": 0.5
        },
        {
          "name": "C4",
          "midi": 60,
          "time": 76.0000000000001,
          "velocity": 0.5039370078740157,
          "duration": 0.1666666666666714
        },
        {
          "name": "A#3",
          "midi": 58,
          "time": 76.16666666666677,
          "velocity": 0.5039370078740157,
          "duration": 0.1666666666666714
        },
        {
          "name": "A3",
          "midi": 57,
          "time": 76.33333333333344,
          "velocity": 0.5039370078740157,
          "duration": 0.1666666666666714
        },
        {
          "name": "G3",
          "midi": 55,
          "time": 76.50000000000011,
          "velocity": 0.5039370078740157,
          "duration": 0.1666666666666714
        },
        {
          "name": "A3",
          "midi": 57,
          "time": 76.66666666666679,
          "velocity": 0.5039370078740157,
          "duration": 0.1666666666666714
        },
        {
          "name": "A#3",
          "midi": 58,
          "time": 76.83333333333346,
          "velocity": 0.5039370078740157,
          "duration": 0.1666666666666714
        },
        {
          "name": "A3",
          "midi": 57,
          "time": 77.00000000000013,
          "velocity": 0.5039370078740157,
          "duration": 0.5
        },
        {
          "name": "C4",
          "midi": 60,
          "time": 77.50000000000013,
          "velocity": 0.5039370078740157,
          "duration": 0.5
        },
        {
          "name": "F3",
          "midi": 53,
          "time": 78.00000000000013,
          "velocity": 0.5039370078740157,
          "duration": 0.1666666666666714
        },
        {
          "name": "D#3",
          "midi": 51,
          "time": 78.1666666666668,
          "velocity": 0.5039370078740157,
          "duration": 0.1666666666666714
        },
        {
          "name": "D3",
          "midi": 50,
          "time": 78.33333333333347,
          "velocity": 0.5039370078740157,
          "duration": 0.1666666666666714
        },
        {
          "name": "C3",
          "midi": 48,
          "time": 78.50000000000014,
          "velocity": 0.5039370078740157,
          "duration": 0.1666666666666714
        },
        {
          "name": "D3",
          "midi": 50,
          "time": 78.66666666666681,
          "velocity": 0.5039370078740157,
          "duration": 0.1666666666666714
        },
        {
          "name": "D#3",
          "midi": 51,
          "time": 78.83333333333348,
          "velocity": 0.5039370078740157,
          "duration": 0.1666666666666714
        },
        {
          "name": "D3",
          "midi": 50,
          "time": 79.00000000000016,
          "velocity": 0.5039370078740157,
          "duration": 0.5
        },
        {
          "name": "F3",
          "midi": 53,
          "time": 79.50000000000016,
          "velocity": 0.5039370078740157,
          "duration": 0.5
        },
        {
          "name": "A#3",
          "midi": 58,
          "time": 80.00000000000016,
          "velocity": 0.5039370078740157,
          "duration": 0.1666666666666714
        },
        {
          "name": "A3",
          "midi": 57,
          "time": 80.16666666666683,
          "velocity": 0.5039370078740157,
          "duration": 0.1666666666666714
        },
        {
          "name": "G3",
          "midi": 55,
          "time": 80.3333333333335,
          "velocity": 0.5039370078740157,
          "duration": 0.1666666666666714
        },
        {
          "name": "F#3",
          "midi": 54,
          "time": 80.50000000000017,
          "velocity": 0.5039370078740157,
          "duration": 0.1666666666666714
        },
        {
          "name": "G3",
          "midi": 55,
          "time": 80.66666666666684,
          "velocity": 0.5039370078740157,
          "duration": 0.1666666666666714
        },
        {
          "name": "A3",
          "midi": 57,
          "time": 80.83333333333351,
          "velocity": 0.5039370078740157,
          "duration": 0.1666666666666714
        },
        {
          "name": "G3",
          "midi": 55,
          "time": 81.00000000000018,
          "velocity": 0.5039370078740157,
          "duration": 0.1666666666666714
        },
        {
          "name": "F3",
          "midi": 53,
          "time": 81.16666666666686,
          "velocity": 0.5039370078740157,
          "duration": 0.1666666666666714
        },
        {
          "name": "E3",
          "midi": 52,
          "time": 81.33333333333353,
          "velocity": 0.5039370078740157,
          "duration": 0.1666666666666714
        },
        {
          "name": "D3",
          "midi": 50,
          "time": 81.5000000000002,
          "velocity": 0.5039370078740157,
          "duration": 0.1666666666666714
        },
        {
          "name": "E3",
          "midi": 52,
          "time": 81.66666666666687,
          "velocity": 0.5039370078740157,
          "duration": 0.1666666666666714
        },
        {
          "name": "F3",
          "midi": 53,
          "time": 81.83333333333354,
          "velocity": 0.5039370078740157,
          "duration": 0.1666666666666714
        },
        {
          "name": "E3",
          "midi": 52,
          "time": 82.00000000000021,
          "velocity": 0.5039370078740157,
          "duration": 0.1666666666666714
        },
        {
          "name": "D3",
          "midi": 50,
          "time": 82.16666666666688,
          "velocity": 0.5039370078740157,
          "duration": 0.1666666666666714
        },
        {
          "name": "C#3",
          "midi": 49,
          "time": 82.33333333333356,
          "velocity": 0.5039370078740157,
          "duration": 0.1666666666666714
        },
        {
          "name": "B2",
          "midi": 47,
          "time": 82.50000000000023,
          "velocity": 0.5039370078740157,
          "duration": 0.1666666666666714
        },
        {
          "name": "C#3",
          "midi": 49,
          "time": 82.6666666666669,
          "velocity": 0.5039370078740157,
          "duration": 0.1666666666666714
        },
        {
          "name": "D3",
          "midi": 50,
          "time": 82.83333333333357,
          "velocity": 0.5039370078740157,
          "duration": 0.1666666666666714
        },
        {
          "name": "C#3",
          "midi": 49,
          "time": 83.00000000000024,
          "velocity": 0.5039370078740157,
          "duration": 0.25
        },
        {
          "name": "A2",
          "midi": 45,
          "time": 83.25000000000024,
          "velocity": 0.5039370078740157,
          "duration": 0.25
        },
        {
          "name": "D3",
          "midi": 50,
          "time": 83.50000000000024,
          "velocity": 0.5039370078740157,
          "duration": 1
        },
        {
          "name": "C#3",
          "midi": 49,
          "time": 84.50000000000024,
          "velocity": 0.5039370078740157,
          "duration": 0.5
        },
        {
          "name": "D3",
          "midi": 50,
          "time": 85.00000000000024,
          "velocity": 0.5039370078740157,
          "duration": 0.5
        },
        {
          "name": "G3",
          "midi": 55,
          "time": 85.50000000000024,
          "velocity": 0.5039370078740157,
          "duration": 1
        },
        {
          "name": "F#3",
          "midi": 54,
          "time": 86.50000000000024,
          "velocity": 0.5039370078740157,
          "duration": 0.5
        },
        {
          "name": "G3",
          "midi": 55,
          "time": 87.00000000000024,
          "velocity": 0.5039370078740157,
          "duration": 0.25
        },
        {
          "name": "F3",
          "midi": 53,
          "time": 87.25000000000024,
          "velocity": 0.5039370078740157,
          "duration": 0.25
        },
        {
          "name": "E3",
          "midi": 52,
          "time": 87.50000000000024,
          "velocity": 0.5039370078740157,
          "duration": 0.25
        },
        {
          "name": "D3",
          "midi": 50,
          "time": 87.75000000000024,
          "velocity": 0.5039370078740157,
          "duration": 0.25
        },
        {
          "name": "C#3",
          "midi": 49,
          "time": 88.00000000000024,
          "velocity": 0.5039370078740157,
          "duration": 0.25
        },
        {
          "name": "E3",
          "midi": 52,
          "time": 88.25000000000024,
          "velocity": 0.5039370078740157,
          "duration": 0.25
        },
        {
          "name": "D3",
          "midi": 50,
          "time": 88.50000000000024,
          "velocity": 0.5039370078740157,
          "duration": 0.25
        },
        {
          "name": "C3",
          "midi": 48,
          "time": 88.75000000000024,
          "velocity": 0.5039370078740157,
          "duration": 0.25
        },
        {
          "name": "B2",
          "midi": 47,
          "time": 89.00000000000024,
          "velocity": 0.5039370078740157,
          "duration": 0.5
        },
        {
          "name": "A#2",
          "midi": 46,
          "time": 89.50000000000024,
          "velocity": 0.5039370078740157,
          "duration": 0.5
        },
        {
          "name": "A2",
          "midi": 45,
          "time": 90.00000000000024,
          "velocity": 0.5039370078740157,
          "duration": 0.25
        },
        {
          "name": "A3",
          "midi": 57,
          "time": 90.25000000000024,
          "velocity": 0.5039370078740157,
          "duration": 0.25
        },
        {
          "name": "A#3",
          "midi": 58,
          "time": 90.50000000000024,
          "velocity": 0.5039370078740157,
          "duration": 0.25
        },
        {
          "name": "A3",
          "midi": 57,
          "time": 90.75000000000024,
          "velocity": 0.5039370078740157,
          "duration": 0.25
        },
        {
          "name": "G3",
          "midi": 55,
          "time": 91.00000000000024,
          "velocity": 0.5039370078740157,
          "duration": 0.25
        },
        {
          "name": "A#3",
          "midi": 58,
          "time": 91.25000000000024,
          "velocity": 0.5039370078740157,
          "duration": 0.25
        },
        {
          "name": "A3",
          "midi": 57,
          "time": 91.50000000000024,
          "velocity": 0.5039370078740157,
          "duration": 0.25
        },
        {
          "name": "G3",
          "midi": 55,
          "time": 91.75000000000024,
          "velocity": 0.5039370078740157,
          "duration": 0.25
        },
        {
          "name": "F3",
          "midi": 53,
          "time": 92.00000000000024,
          "velocity": 0.5039370078740157,
          "duration": 0.25
        },
        {
          "name": "A3",
          "midi": 57,
          "time": 92.25000000000024,
          "velocity": 0.5039370078740157,
          "duration": 0.25
        },
        {
          "name": "G3",
          "midi": 55,
          "time": 92.50000000000024,
          "velocity": 0.5039370078740157,
          "duration": 0.25
        },
        {
          "name": "F3",
          "midi": 53,
          "time": 92.75000000000024,
          "velocity": 0.5039370078740157,
          "duration": 0.25
        },
        {
          "name": "E3",
          "midi": 52,
          "time": 93.00000000000024,
          "velocity": 0.5039370078740157,
          "duration": 0.25
        },
        {
          "name": "D3",
          "midi": 50,
          "time": 93.25000000000024,
          "velocity": 0.5039370078740157,
          "duration": 0.25
        },
        {
          "name": "C#3",
          "midi": 49,
          "time": 93.50000000000024,
          "velocity": 0.5039370078740157,
          "duration": 0.25
        },
        {
          "name": "E3",
          "midi": 52,
          "time": 93.75000000000024,
          "velocity": 0.5039370078740157,
          "duration": 0.25
        },
        {
          "name": "D3",
          "midi": 50,
          "time": 94.00000000000024,
          "velocity": 0.5039370078740157,
          "duration": 0.25
        },
        {
          "name": "C3",
          "midi": 48,
          "time": 94.25000000000024,
          "velocity": 0.5039370078740157,
          "duration": 0.25
        },
        {
          "name": "A#2",
          "midi": 46,
          "time": 94.50000000000024,
          "velocity": 0.5039370078740157,
          "duration": 0.25
        },
        {
          "name": "A2",
          "midi": 45,
          "time": 94.75000000000024,
          "velocity": 0.5039370078740157,
          "duration": 0.25
        },
        {
          "name": "G2",
          "midi": 43,
          "time": 95.00000000000024,
          "velocity": 0.5039370078740157,
          "duration": 0.25
        },
        {
          "name": "A#2",
          "midi": 46,
          "time": 95.25000000000024,
          "velocity": 0.5039370078740157,
          "duration": 0.25
        },
        {
          "name": "A2",
          "midi": 45,
          "time": 95.50000000000024,
          "velocity": 0.5039370078740157,
          "duration": 0.25
        },
        {
          "name": "G2",
          "midi": 43,
          "time": 95.75000000000024,
          "velocity": 0.5039370078740157,
          "duration": 0.25
        },
        {
          "name": "F2",
          "midi": 41,
          "time": 96.00000000000024,
          "velocity": 0.5039370078740157,
          "duration": 0.5
        },
        {
          "name": "A#2",
          "midi": 46,
          "time": 96.50000000000024,
          "velocity": 0.5039370078740157,
          "duration": 0.5
        },
        {
          "name": "A2",
          "midi": 45,
          "time": 97.00000000000024,
          "velocity": 0.5039370078740157,
          "duration": 0.1666666666666714
        },
        {
          "name": "G2",
          "midi": 43,
          "time": 97.16666666666691,
          "velocity": 0.5039370078740157,
          "duration": 0.1666666666666714
        },
        {
          "name": "F2",
          "midi": 41,
          "time": 97.33333333333358,
          "velocity": 0.5039370078740157,
          "duration": 0.1666666666666714
        },
        {
          "name": "E2",
          "midi": 40,
          "time": 97.50000000000026,
          "velocity": 0.5039370078740157,
          "duration": 0.1666666666666714
        },
        {
          "name": "F2",
          "midi": 41,
          "time": 97.66666666666693,
          "velocity": 0.5039370078740157,
          "duration": 0.1666666666666714
        },
        {
          "name": "G2",
          "midi": 43,
          "time": 97.8333333333336,
          "velocity": 0.5039370078740157,
          "duration": 0.1666666666666714
        },
        {
          "name": "F2",
          "midi": 41,
          "time": 98.00000000000027,
          "velocity": 0.5039370078740157,
          "duration": 0.1666666666666714
        },
        {
          "name": "E2",
          "midi": 40,
          "time": 98.16666666666694,
          "velocity": 0.5039370078740157,
          "duration": 0.1666666666666714
        },
        {
          "name": "D2",
          "midi": 38,
          "time": 98.33333333333361,
          "velocity": 0.5039370078740157,
          "duration": 0.1666666666666714
        },
        {
          "name": "C#2",
          "midi": 37,
          "time": 98.50000000000028,
          "velocity": 0.5039370078740157,
          "duration": 0.1666666666666714
        },
        {
          "name": "D2",
          "midi": 38,
          "time": 98.66666666666696,
          "velocity": 0.5039370078740157,
          "duration": 0.1666666666666714
        },
        {
          "name": "E2",
          "midi": 40,
          "time": 98.83333333333363,
          "velocity": 0.5039370078740157,
          "duration": 0.1666666666666714
        },
        {
          "name": "D2",
          "midi": 38,
          "time": 99.0000000000003,
          "velocity": 0.5039370078740157,
          "duration": 0.5
        },
        {
          "name": "E2",
          "midi": 40,
          "time": 100.2500000000003,
          "velocity": 0.5039370078740157,
          "duration": 0.25
        },
        {
          "name": "F2",
          "midi": 41,
          "time": 100.5000000000003,
          "velocity": 0.5039370078740157,
          "duration": 0.25
        },
        {
          "name": "G2",
          "midi": 43,
          "time": 100.7500000000003,
          "velocity": 0.5039370078740157,
          "duration": 0.25
        },
        {
          "name": "A2",
          "midi": 45,
          "time": 101.0000000000003,
          "velocity": 0.5039370078740157,
          "duration": 0.25
        },
        {
          "name": "B2",
          "midi": 47,
          "time": 101.2500000000003,
          "velocity": 0.5039370078740157,
          "duration": 0.25
        },
        {
          "name": "C3",
          "midi": 48,
          "time": 101.5000000000003,
          "velocity": 0.5039370078740157,
          "duration": 0.25
        },
        {
          "name": "A2",
          "midi": 45,
          "time": 101.7500000000003,
          "velocity": 0.5039370078740157,
          "duration": 0.25
        },
        {
          "name": "D3",
          "midi": 50,
          "time": 102.0000000000003,
          "velocity": 0.5039370078740157,
          "duration": 0.25
        },
        {
          "name": "C#3",
          "midi": 49,
          "time": 102.2500000000003,
          "velocity": 0.5039370078740157,
          "duration": 0.25
        },
        {
          "name": "D3",
          "midi": 50,
          "time": 102.5000000000003,
          "velocity": 0.5039370078740157,
          "duration": 0.25
        },
        {
          "name": "E3",
          "midi": 52,
          "time": 102.7500000000003,
          "velocity": 0.5039370078740157,
          "duration": 0.25
        },
        {
          "name": "F3",
          "midi": 53,
          "time": 103.0000000000003,
          "velocity": 0.5039370078740157,
          "duration": 0.25
        },
        {
          "name": "B2",
          "midi": 47,
          "time": 103.2500000000003,
          "velocity": 0.5039370078740157,
          "duration": 0.25
        },
        {
          "name": "E3",
          "midi": 52,
          "time": 103.5000000000003,
          "velocity": 0.5039370078740157,
          "duration": 0.25
        },
        {
          "name": "D3",
          "midi": 50,
          "time": 103.7500000000003,
          "velocity": 0.5039370078740157,
          "duration": 0.25
        },
        {
          "name": "C#3",
          "midi": 49,
          "time": 104.0000000000003,
          "velocity": 0.5039370078740157,
          "duration": 0.25
        },
        {
          "name": "A2",
          "midi": 45,
          "time": 104.2500000000003,
          "velocity": 0.5039370078740157,
          "duration": 0.25
        },
        {
          "name": "D3",
          "midi": 50,
          "time": 104.5000000000003,
          "velocity": 0.5039370078740157,
          "duration": 0.25
        },
        {
          "name": "G3",
          "midi": 55,
          "time": 104.7500000000003,
          "velocity": 0.5039370078740157,
          "duration": 0.25
        },
        {
          "name": "A3",
          "midi": 57,
          "time": 105.0000000000003,
          "velocity": 0.5039370078740157,
          "duration": 0.5
        },
        {
          "name": "A2",
          "midi": 45,
          "time": 105.5000000000003,
          "velocity": 0.5039370078740157,
          "duration": 0.5
        },
        {
          "name": "D2",
          "midi": 38,
          "time": 106.0000000000003,
          "velocity": 0.5039370078740157,
          "duration": 2
        }
      ],
      "controlChanges": {},
      "id": 3,
      "channelNumber": 0,
      "isPercussion": false
    }
  ]
}